<?xml version="1.0" encoding="utf-8" standalone="no"?>
<!DOCTYPE svg PUBLIC "-//W3C//DTD SVG 1.1//EN"
  "http://www.w3.org/Graphics/SVG/1.1/DTD/svg11.dtd">
<svg xmlns:xlink="http://www.w3.org/1999/xlink" width="499.91125pt" height="343.9975pt" viewBox="0 0 499.91125 343.9975" xmlns="http://www.w3.org/2000/svg" version="1.1">
 <metadata>
  <rdf:RDF xmlns:dc="http://purl.org/dc/elements/1.1/" xmlns:cc="http://creativecommons.org/ns#" xmlns:rdf="http://www.w3.org/1999/02/22-rdf-syntax-ns#">
   <cc:Work>
    <dc:type rdf:resource="http://purl.org/dc/dcmitype/StillImage"/>
    <dc:date>2026-02-24T15:51:25.711104</dc:date>
    <dc:format>image/svg+xml</dc:format>
    <dc:creator>
     <cc:Agent>
      <dc:title>Matplotlib v3.10.8, https://matplotlib.org/</dc:title>
     </cc:Agent>
    </dc:creator>
   </cc:Work>
  </rdf:RDF>
 </metadata>
 <defs>
  <style type="text/css">*{stroke-linejoin: round; stroke-linecap: butt}</style>
 </defs>
 <g id="figure_1">
  <g id="patch_1">
   <path d="M 0 343.9975 
L 499.91125 343.9975 
L 499.91125 0 
L 0 0 
z
" style="fill: #ffffff"/>
  </g>
  <g id="axes_1">
   <g id="patch_2">
    <path d="M 46.31125 301.037812 
L 492.71125 301.037812 
L 492.71125 23.837812 
L 46.31125 23.837812 
z
" style="fill: #ffffff"/>
   </g>
   <g id="matplotlib.axis_1">
    <g id="xtick_1">
     <g id="text_1">
      <!-- Rural -->
      <g style="fill: #262626" transform="translate(106.492031 318.896094) scale(0.11 -0.11)">
       <defs>
        <path id="DejaVuSans-52" d="M 2841 2188 
Q 3044 2119 3236 1894 
Q 3428 1669 3622 1275 
L 4263 0 
L 3584 0 
L 2988 1197 
Q 2756 1666 2539 1819 
Q 2322 1972 1947 1972 
L 1259 1972 
L 1259 0 
L 628 0 
L 628 4666 
L 2053 4666 
Q 2853 4666 3247 4331 
Q 3641 3997 3641 3322 
Q 3641 2881 3436 2590 
Q 3231 2300 2841 2188 
z
M 1259 4147 
L 1259 2491 
L 2053 2491 
Q 2509 2491 2742 2702 
Q 2975 2913 2975 3322 
Q 2975 3731 2742 3939 
Q 2509 4147 2053 4147 
L 1259 4147 
z
" transform="scale(0.015625)"/>
        <path id="DejaVuSans-75" d="M 544 1381 
L 544 3500 
L 1119 3500 
L 1119 1403 
Q 1119 906 1312 657 
Q 1506 409 1894 409 
Q 2359 409 2629 706 
Q 2900 1003 2900 1516 
L 2900 3500 
L 3475 3500 
L 3475 0 
L 2900 0 
L 2900 538 
Q 2691 219 2414 64 
Q 2138 -91 1772 -91 
Q 1169 -91 856 284 
Q 544 659 544 1381 
z
M 1991 3584 
L 1991 3584 
z
" transform="scale(0.015625)"/>
        <path id="DejaVuSans-72" d="M 2631 2963 
Q 2534 3019 2420 3045 
Q 2306 3072 2169 3072 
Q 1681 3072 1420 2755 
Q 1159 2438 1159 1844 
L 1159 0 
L 581 0 
L 581 3500 
L 1159 3500 
L 1159 2956 
Q 1341 3275 1631 3429 
Q 1922 3584 2338 3584 
Q 2397 3584 2469 3576 
Q 2541 3569 2628 3553 
L 2631 2963 
z
" transform="scale(0.015625)"/>
        <path id="DejaVuSans-61" d="M 2194 1759 
Q 1497 1759 1228 1600 
Q 959 1441 959 1056 
Q 959 750 1161 570 
Q 1363 391 1709 391 
Q 2188 391 2477 730 
Q 2766 1069 2766 1631 
L 2766 1759 
L 2194 1759 
z
M 3341 1997 
L 3341 0 
L 2766 0 
L 2766 531 
Q 2569 213 2275 61 
Q 1981 -91 1556 -91 
Q 1019 -91 701 211 
Q 384 513 384 1019 
Q 384 1609 779 1909 
Q 1175 2209 1959 2209 
L 2766 2209 
L 2766 2266 
Q 2766 2663 2505 2880 
Q 2244 3097 1772 3097 
Q 1472 3097 1187 3025 
Q 903 2953 641 2809 
L 641 3341 
Q 956 3463 1253 3523 
Q 1550 3584 1831 3584 
Q 2591 3584 2966 3190 
Q 3341 2797 3341 1997 
z
" transform="scale(0.015625)"/>
        <path id="DejaVuSans-6c" d="M 603 4863 
L 1178 4863 
L 1178 0 
L 603 0 
L 603 4863 
z
" transform="scale(0.015625)"/>
       </defs>
       <use xlink:href="#DejaVuSans-52"/>
       <use xlink:href="#DejaVuSans-75" transform="translate(64.982422 0)"/>
       <use xlink:href="#DejaVuSans-72" transform="translate(128.361328 0)"/>
       <use xlink:href="#DejaVuSans-61" transform="translate(169.474609 0)"/>
       <use xlink:href="#DejaVuSans-6c" transform="translate(230.753906 0)"/>
      </g>
     </g>
    </g>
    <g id="xtick_2">
     <g id="text_2">
      <!-- Peri-urban -->
      <g style="fill: #262626" transform="translate(241.142422 318.896094) scale(0.11 -0.11)">
       <defs>
        <path id="DejaVuSans-50" d="M 1259 4147 
L 1259 2394 
L 2053 2394 
Q 2494 2394 2734 2622 
Q 2975 2850 2975 3272 
Q 2975 3691 2734 3919 
Q 2494 4147 2053 4147 
L 1259 4147 
z
M 628 4666 
L 2053 4666 
Q 2838 4666 3239 4311 
Q 3641 3956 3641 3272 
Q 3641 2581 3239 2228 
Q 2838 1875 2053 1875 
L 1259 1875 
L 1259 0 
L 628 0 
L 628 4666 
z
" transform="scale(0.015625)"/>
        <path id="DejaVuSans-65" d="M 3597 1894 
L 3597 1613 
L 953 1613 
Q 991 1019 1311 708 
Q 1631 397 2203 397 
Q 2534 397 2845 478 
Q 3156 559 3463 722 
L 3463 178 
Q 3153 47 2828 -22 
Q 2503 -91 2169 -91 
Q 1331 -91 842 396 
Q 353 884 353 1716 
Q 353 2575 817 3079 
Q 1281 3584 2069 3584 
Q 2775 3584 3186 3129 
Q 3597 2675 3597 1894 
z
M 3022 2063 
Q 3016 2534 2758 2815 
Q 2500 3097 2075 3097 
Q 1594 3097 1305 2825 
Q 1016 2553 972 2059 
L 3022 2063 
z
" transform="scale(0.015625)"/>
        <path id="DejaVuSans-69" d="M 603 3500 
L 1178 3500 
L 1178 0 
L 603 0 
L 603 3500 
z
M 603 4863 
L 1178 4863 
L 1178 4134 
L 603 4134 
L 603 4863 
z
" transform="scale(0.015625)"/>
        <path id="DejaVuSans-2d" d="M 313 2009 
L 1997 2009 
L 1997 1497 
L 313 1497 
L 313 2009 
z
" transform="scale(0.015625)"/>
        <path id="DejaVuSans-62" d="M 3116 1747 
Q 3116 2381 2855 2742 
Q 2594 3103 2138 3103 
Q 1681 3103 1420 2742 
Q 1159 2381 1159 1747 
Q 1159 1113 1420 752 
Q 1681 391 2138 391 
Q 2594 391 2855 752 
Q 3116 1113 3116 1747 
z
M 1159 2969 
Q 1341 3281 1617 3432 
Q 1894 3584 2278 3584 
Q 2916 3584 3314 3078 
Q 3713 2572 3713 1747 
Q 3713 922 3314 415 
Q 2916 -91 2278 -91 
Q 1894 -91 1617 61 
Q 1341 213 1159 525 
L 1159 0 
L 581 0 
L 581 4863 
L 1159 4863 
L 1159 2969 
z
" transform="scale(0.015625)"/>
        <path id="DejaVuSans-6e" d="M 3513 2113 
L 3513 0 
L 2938 0 
L 2938 2094 
Q 2938 2591 2744 2837 
Q 2550 3084 2163 3084 
Q 1697 3084 1428 2787 
Q 1159 2491 1159 1978 
L 1159 0 
L 581 0 
L 581 3500 
L 1159 3500 
L 1159 2956 
Q 1366 3272 1645 3428 
Q 1925 3584 2291 3584 
Q 2894 3584 3203 3211 
Q 3513 2838 3513 2113 
z
" transform="scale(0.015625)"/>
       </defs>
       <use xlink:href="#DejaVuSans-50"/>
       <use xlink:href="#DejaVuSans-65" transform="translate(56.677734 0)"/>
       <use xlink:href="#DejaVuSans-72" transform="translate(118.201172 0)"/>
       <use xlink:href="#DejaVuSans-69" transform="translate(159.314453 0)"/>
       <use xlink:href="#DejaVuSans-2d" transform="translate(187.097656 0)"/>
       <use xlink:href="#DejaVuSans-75" transform="translate(223.181641 0)"/>
       <use xlink:href="#DejaVuSans-72" transform="translate(286.560547 0)"/>
       <use xlink:href="#DejaVuSans-62" transform="translate(327.673828 0)"/>
       <use xlink:href="#DejaVuSans-61" transform="translate(391.150391 0)"/>
       <use xlink:href="#DejaVuSans-6e" transform="translate(452.429688 0)"/>
      </g>
     </g>
    </g>
    <g id="xtick_3">
     <g id="text_3">
      <!-- Urban -->
      <g style="fill: #262626" transform="translate(401.677187 318.896094) scale(0.11 -0.11)">
       <defs>
        <path id="DejaVuSans-55" d="M 556 4666 
L 1191 4666 
L 1191 1831 
Q 1191 1081 1462 751 
Q 1734 422 2344 422 
Q 2950 422 3222 751 
Q 3494 1081 3494 1831 
L 3494 4666 
L 4128 4666 
L 4128 1753 
Q 4128 841 3676 375 
Q 3225 -91 2344 -91 
Q 1459 -91 1007 375 
Q 556 841 556 1753 
L 556 4666 
z
" transform="scale(0.015625)"/>
       </defs>
       <use xlink:href="#DejaVuSans-55"/>
       <use xlink:href="#DejaVuSans-72" transform="translate(73.193359 0)"/>
       <use xlink:href="#DejaVuSans-62" transform="translate(114.306641 0)"/>
       <use xlink:href="#DejaVuSans-61" transform="translate(177.783203 0)"/>
       <use xlink:href="#DejaVuSans-6e" transform="translate(239.0625 0)"/>
      </g>
     </g>
    </g>
    <g id="text_4">
     <!-- Urbanization Tier -->
     <g style="fill: #262626" transform="translate(218.17 334.301875) scale(0.12 -0.12)">
      <defs>
       <path id="DejaVuSans-7a" d="M 353 3500 
L 3084 3500 
L 3084 2975 
L 922 459 
L 3084 459 
L 3084 0 
L 275 0 
L 275 525 
L 2438 3041 
L 353 3041 
L 353 3500 
z
" transform="scale(0.015625)"/>
       <path id="DejaVuSans-74" d="M 1172 4494 
L 1172 3500 
L 2356 3500 
L 2356 3053 
L 1172 3053 
L 1172 1153 
Q 1172 725 1289 603 
Q 1406 481 1766 481 
L 2356 481 
L 2356 0 
L 1766 0 
Q 1100 0 847 248 
Q 594 497 594 1153 
L 594 3053 
L 172 3053 
L 172 3500 
L 594 3500 
L 594 4494 
L 1172 4494 
z
" transform="scale(0.015625)"/>
       <path id="DejaVuSans-6f" d="M 1959 3097 
Q 1497 3097 1228 2736 
Q 959 2375 959 1747 
Q 959 1119 1226 758 
Q 1494 397 1959 397 
Q 2419 397 2687 759 
Q 2956 1122 2956 1747 
Q 2956 2369 2687 2733 
Q 2419 3097 1959 3097 
z
M 1959 3584 
Q 2709 3584 3137 3096 
Q 3566 2609 3566 1747 
Q 3566 888 3137 398 
Q 2709 -91 1959 -91 
Q 1206 -91 779 398 
Q 353 888 353 1747 
Q 353 2609 779 3096 
Q 1206 3584 1959 3584 
z
" transform="scale(0.015625)"/>
       <path id="DejaVuSans-20" transform="scale(0.015625)"/>
       <path id="DejaVuSans-54" d="M -19 4666 
L 3928 4666 
L 3928 4134 
L 2272 4134 
L 2272 0 
L 1638 0 
L 1638 4134 
L -19 4134 
L -19 4666 
z
" transform="scale(0.015625)"/>
      </defs>
      <use xlink:href="#DejaVuSans-55"/>
      <use xlink:href="#DejaVuSans-72" transform="translate(73.193359 0)"/>
      <use xlink:href="#DejaVuSans-62" transform="translate(114.306641 0)"/>
      <use xlink:href="#DejaVuSans-61" transform="translate(177.783203 0)"/>
      <use xlink:href="#DejaVuSans-6e" transform="translate(239.0625 0)"/>
      <use xlink:href="#DejaVuSans-69" transform="translate(302.441406 0)"/>
      <use xlink:href="#DejaVuSans-7a" transform="translate(330.224609 0)"/>
      <use xlink:href="#DejaVuSans-61" transform="translate(382.714844 0)"/>
      <use xlink:href="#DejaVuSans-74" transform="translate(443.994141 0)"/>
      <use xlink:href="#DejaVuSans-69" transform="translate(483.203125 0)"/>
      <use xlink:href="#DejaVuSans-6f" transform="translate(510.986328 0)"/>
      <use xlink:href="#DejaVuSans-6e" transform="translate(572.167969 0)"/>
      <use xlink:href="#DejaVuSans-20" transform="translate(635.546875 0)"/>
      <use xlink:href="#DejaVuSans-54" transform="translate(667.333984 0)"/>
      <use xlink:href="#DejaVuSans-69" transform="translate(725.292969 0)"/>
      <use xlink:href="#DejaVuSans-65" transform="translate(753.076172 0)"/>
      <use xlink:href="#DejaVuSans-72" transform="translate(814.599609 0)"/>
     </g>
    </g>
   </g>
   <g id="matplotlib.axis_2">
    <g id="ytick_1">
     <g id="line2d_1">
      <path d="M 46.31125 269.879056 
L 492.71125 269.879056 
" clip-path="url(#pb2e144efba)" style="fill: none; stroke: #cccccc; stroke-linecap: round"/>
     </g>
     <g id="text_5">
      <!-- 0 -->
      <g style="fill: #262626" transform="translate(29.8125 274.058197) scale(0.11 -0.11)">
       <defs>
        <path id="DejaVuSans-30" d="M 2034 4250 
Q 1547 4250 1301 3770 
Q 1056 3291 1056 2328 
Q 1056 1369 1301 889 
Q 1547 409 2034 409 
Q 2525 409 2770 889 
Q 3016 1369 3016 2328 
Q 3016 3291 2770 3770 
Q 2525 4250 2034 4250 
z
M 2034 4750 
Q 2819 4750 3233 4129 
Q 3647 3509 3647 2328 
Q 3647 1150 3233 529 
Q 2819 -91 2034 -91 
Q 1250 -91 836 529 
Q 422 1150 422 2328 
Q 422 3509 836 4129 
Q 1250 4750 2034 4750 
z
" transform="scale(0.015625)"/>
       </defs>
       <use xlink:href="#DejaVuSans-30"/>
      </g>
     </g>
    </g>
    <g id="ytick_2">
     <g id="line2d_2">
      <path d="M 46.31125 227.328069 
L 492.71125 227.328069 
" clip-path="url(#pb2e144efba)" style="fill: none; stroke: #cccccc; stroke-linecap: round"/>
     </g>
     <g id="text_6">
      <!-- 2 -->
      <g style="fill: #262626" transform="translate(29.8125 231.507209) scale(0.11 -0.11)">
       <defs>
        <path id="DejaVuSans-32" d="M 1228 531 
L 3431 531 
L 3431 0 
L 469 0 
L 469 531 
Q 828 903 1448 1529 
Q 2069 2156 2228 2338 
Q 2531 2678 2651 2914 
Q 2772 3150 2772 3378 
Q 2772 3750 2511 3984 
Q 2250 4219 1831 4219 
Q 1534 4219 1204 4116 
Q 875 4013 500 3803 
L 500 4441 
Q 881 4594 1212 4672 
Q 1544 4750 1819 4750 
Q 2544 4750 2975 4387 
Q 3406 4025 3406 3419 
Q 3406 3131 3298 2873 
Q 3191 2616 2906 2266 
Q 2828 2175 2409 1742 
Q 1991 1309 1228 531 
z
" transform="scale(0.015625)"/>
       </defs>
       <use xlink:href="#DejaVuSans-32"/>
      </g>
     </g>
    </g>
    <g id="ytick_3">
     <g id="line2d_3">
      <path d="M 46.31125 184.777081 
L 492.71125 184.777081 
" clip-path="url(#pb2e144efba)" style="fill: none; stroke: #cccccc; stroke-linecap: round"/>
     </g>
     <g id="text_7">
      <!-- 4 -->
      <g style="fill: #262626" transform="translate(29.8125 188.956222) scale(0.11 -0.11)">
       <defs>
        <path id="DejaVuSans-34" d="M 2419 4116 
L 825 1625 
L 2419 1625 
L 2419 4116 
z
M 2253 4666 
L 3047 4666 
L 3047 1625 
L 3713 1625 
L 3713 1100 
L 3047 1100 
L 3047 0 
L 2419 0 
L 2419 1100 
L 313 1100 
L 313 1709 
L 2253 4666 
z
" transform="scale(0.015625)"/>
       </defs>
       <use xlink:href="#DejaVuSans-34"/>
      </g>
     </g>
    </g>
    <g id="ytick_4">
     <g id="line2d_4">
      <path d="M 46.31125 142.226093 
L 492.71125 142.226093 
" clip-path="url(#pb2e144efba)" style="fill: none; stroke: #cccccc; stroke-linecap: round"/>
     </g>
     <g id="text_8">
      <!-- 6 -->
      <g style="fill: #262626" transform="translate(29.8125 146.405234) scale(0.11 -0.11)">
       <defs>
        <path id="DejaVuSans-36" d="M 2113 2584 
Q 1688 2584 1439 2293 
Q 1191 2003 1191 1497 
Q 1191 994 1439 701 
Q 1688 409 2113 409 
Q 2538 409 2786 701 
Q 3034 994 3034 1497 
Q 3034 2003 2786 2293 
Q 2538 2584 2113 2584 
z
M 3366 4563 
L 3366 3988 
Q 3128 4100 2886 4159 
Q 2644 4219 2406 4219 
Q 1781 4219 1451 3797 
Q 1122 3375 1075 2522 
Q 1259 2794 1537 2939 
Q 1816 3084 2150 3084 
Q 2853 3084 3261 2657 
Q 3669 2231 3669 1497 
Q 3669 778 3244 343 
Q 2819 -91 2113 -91 
Q 1303 -91 875 529 
Q 447 1150 447 2328 
Q 447 3434 972 4092 
Q 1497 4750 2381 4750 
Q 2619 4750 2861 4703 
Q 3103 4656 3366 4563 
z
" transform="scale(0.015625)"/>
       </defs>
       <use xlink:href="#DejaVuSans-36"/>
      </g>
     </g>
    </g>
    <g id="ytick_5">
     <g id="line2d_5">
      <path d="M 46.31125 99.675106 
L 492.71125 99.675106 
" clip-path="url(#pb2e144efba)" style="fill: none; stroke: #cccccc; stroke-linecap: round"/>
     </g>
     <g id="text_9">
      <!-- 8 -->
      <g style="fill: #262626" transform="translate(29.8125 103.854246) scale(0.11 -0.11)">
       <defs>
        <path id="DejaVuSans-38" d="M 2034 2216 
Q 1584 2216 1326 1975 
Q 1069 1734 1069 1313 
Q 1069 891 1326 650 
Q 1584 409 2034 409 
Q 2484 409 2743 651 
Q 3003 894 3003 1313 
Q 3003 1734 2745 1975 
Q 2488 2216 2034 2216 
z
M 1403 2484 
Q 997 2584 770 2862 
Q 544 3141 544 3541 
Q 544 4100 942 4425 
Q 1341 4750 2034 4750 
Q 2731 4750 3128 4425 
Q 3525 4100 3525 3541 
Q 3525 3141 3298 2862 
Q 3072 2584 2669 2484 
Q 3125 2378 3379 2068 
Q 3634 1759 3634 1313 
Q 3634 634 3220 271 
Q 2806 -91 2034 -91 
Q 1263 -91 848 271 
Q 434 634 434 1313 
Q 434 1759 690 2068 
Q 947 2378 1403 2484 
z
M 1172 3481 
Q 1172 3119 1398 2916 
Q 1625 2713 2034 2713 
Q 2441 2713 2670 2916 
Q 2900 3119 2900 3481 
Q 2900 3844 2670 4047 
Q 2441 4250 2034 4250 
Q 1625 4250 1398 4047 
Q 1172 3844 1172 3481 
z
" transform="scale(0.015625)"/>
       </defs>
       <use xlink:href="#DejaVuSans-38"/>
      </g>
     </g>
    </g>
    <g id="ytick_6">
     <g id="line2d_6">
      <path d="M 46.31125 57.124118 
L 492.71125 57.124118 
" clip-path="url(#pb2e144efba)" style="fill: none; stroke: #cccccc; stroke-linecap: round"/>
     </g>
     <g id="text_10">
      <!-- 10 -->
      <g style="fill: #262626" transform="translate(22.81375 61.303259) scale(0.11 -0.11)">
       <defs>
        <path id="DejaVuSans-31" d="M 794 531 
L 1825 531 
L 1825 4091 
L 703 3866 
L 703 4441 
L 1819 4666 
L 2450 4666 
L 2450 531 
L 3481 531 
L 3481 0 
L 794 0 
L 794 531 
z
" transform="scale(0.015625)"/>
       </defs>
       <use xlink:href="#DejaVuSans-31"/>
       <use xlink:href="#DejaVuSans-30" transform="translate(63.623047 0)"/>
      </g>
     </g>
    </g>
    <g id="text_11">
     <!-- Mortality Rate (%) -->
     <g style="fill: #262626" transform="translate(16.318125 216.970312) rotate(-90) scale(0.12 -0.12)">
      <defs>
       <path id="DejaVuSans-4d" d="M 628 4666 
L 1569 4666 
L 2759 1491 
L 3956 4666 
L 4897 4666 
L 4897 0 
L 4281 0 
L 4281 4097 
L 3078 897 
L 2444 897 
L 1241 4097 
L 1241 0 
L 628 0 
L 628 4666 
z
" transform="scale(0.015625)"/>
       <path id="DejaVuSans-79" d="M 2059 -325 
Q 1816 -950 1584 -1140 
Q 1353 -1331 966 -1331 
L 506 -1331 
L 506 -850 
L 844 -850 
Q 1081 -850 1212 -737 
Q 1344 -625 1503 -206 
L 1606 56 
L 191 3500 
L 800 3500 
L 1894 763 
L 2988 3500 
L 3597 3500 
L 2059 -325 
z
" transform="scale(0.015625)"/>
       <path id="DejaVuSans-28" d="M 1984 4856 
Q 1566 4138 1362 3434 
Q 1159 2731 1159 2009 
Q 1159 1288 1364 580 
Q 1569 -128 1984 -844 
L 1484 -844 
Q 1016 -109 783 600 
Q 550 1309 550 2009 
Q 550 2706 781 3412 
Q 1013 4119 1484 4856 
L 1984 4856 
z
" transform="scale(0.015625)"/>
       <path id="DejaVuSans-25" d="M 4653 2053 
Q 4381 2053 4226 1822 
Q 4072 1591 4072 1178 
Q 4072 772 4226 539 
Q 4381 306 4653 306 
Q 4919 306 5073 539 
Q 5228 772 5228 1178 
Q 5228 1588 5073 1820 
Q 4919 2053 4653 2053 
z
M 4653 2450 
Q 5147 2450 5437 2106 
Q 5728 1763 5728 1178 
Q 5728 594 5436 251 
Q 5144 -91 4653 -91 
Q 4153 -91 3862 251 
Q 3572 594 3572 1178 
Q 3572 1766 3864 2108 
Q 4156 2450 4653 2450 
z
M 1428 4353 
Q 1159 4353 1004 4120 
Q 850 3888 850 3481 
Q 850 3069 1003 2837 
Q 1156 2606 1428 2606 
Q 1700 2606 1854 2837 
Q 2009 3069 2009 3481 
Q 2009 3884 1853 4118 
Q 1697 4353 1428 4353 
z
M 4250 4750 
L 4750 4750 
L 1831 -91 
L 1331 -91 
L 4250 4750 
z
M 1428 4750 
Q 1922 4750 2215 4408 
Q 2509 4066 2509 3481 
Q 2509 2891 2217 2550 
Q 1925 2209 1428 2209 
Q 931 2209 642 2551 
Q 353 2894 353 3481 
Q 353 4063 643 4406 
Q 934 4750 1428 4750 
z
" transform="scale(0.015625)"/>
       <path id="DejaVuSans-29" d="M 513 4856 
L 1013 4856 
Q 1481 4119 1714 3412 
Q 1947 2706 1947 2009 
Q 1947 1309 1714 600 
Q 1481 -109 1013 -844 
L 513 -844 
Q 928 -128 1133 580 
Q 1338 1288 1338 2009 
Q 1338 2731 1133 3434 
Q 928 4138 513 4856 
z
" transform="scale(0.015625)"/>
      </defs>
      <use xlink:href="#DejaVuSans-4d"/>
      <use xlink:href="#DejaVuSans-6f" transform="translate(86.279297 0)"/>
      <use xlink:href="#DejaVuSans-72" transform="translate(147.460938 0)"/>
      <use xlink:href="#DejaVuSans-74" transform="translate(188.574219 0)"/>
      <use xlink:href="#DejaVuSans-61" transform="translate(227.783203 0)"/>
      <use xlink:href="#DejaVuSans-6c" transform="translate(289.0625 0)"/>
      <use xlink:href="#DejaVuSans-69" transform="translate(316.845703 0)"/>
      <use xlink:href="#DejaVuSans-74" transform="translate(344.628906 0)"/>
      <use xlink:href="#DejaVuSans-79" transform="translate(383.837891 0)"/>
      <use xlink:href="#DejaVuSans-20" transform="translate(443.017578 0)"/>
      <use xlink:href="#DejaVuSans-52" transform="translate(474.804688 0)"/>
      <use xlink:href="#DejaVuSans-61" transform="translate(542.037109 0)"/>
      <use xlink:href="#DejaVuSans-74" transform="translate(603.316406 0)"/>
      <use xlink:href="#DejaVuSans-65" transform="translate(642.525391 0)"/>
      <use xlink:href="#DejaVuSans-20" transform="translate(704.048828 0)"/>
      <use xlink:href="#DejaVuSans-28" transform="translate(735.835938 0)"/>
      <use xlink:href="#DejaVuSans-25" transform="translate(774.849609 0)"/>
      <use xlink:href="#DejaVuSans-29" transform="translate(869.869141 0)"/>
     </g>
    </g>
   </g>
   <g id="FillBetweenPolyCollection_1">
    <defs>
     <path id="m303ab733d5" d="M 122.081306 -55.559688 
L 119.341194 -55.559688 
L 118.32531 -58.105142 
L 116.770398 -60.650597 
L 114.530813 -63.196051 
L 111.495589 -65.741506 
L 107.625449 -68.28696 
L 102.983353 -70.832415 
L 97.746403 -73.377869 
L 92.190708 -75.923324 
L 86.64922 -78.468778 
L 81.452336 -81.014233 
L 76.867908 -83.559688 
L 73.057929 -86.105142 
L 70.063181 -88.650597 
L 67.817385 -91.196051 
L 66.183104 -93.741506 
L 64.996249 -96.28696 
L 64.105955 -98.832415 
L 63.400601 -101.377869 
L 62.816641 -103.923324 
L 62.332419 -106.468778 
L 61.952512 -109.014233 
L 61.689231 -111.559688 
L 61.546902 -114.105142 
L 61.512497 -116.650597 
L 61.553981 -119.196051 
L 61.625884 -121.741506 
L 61.680178 -124.28696 
L 61.679422 -126.832415 
L 61.608293 -129.377869 
L 61.479573 -131.923324 
L 61.331803 -134.468778 
L 61.218406 -137.014233 
L 61.19125 -139.559687 
L 61.284083 -142.105142 
L 61.501574 -144.650597 
L 61.817557 -147.196051 
L 62.182449 -149.741506 
L 62.536472 -152.28696 
L 62.823785 -154.832415 
L 63.00336 -157.377869 
L 63.054593 -159.923324 
L 62.977978 -162.468778 
L 62.792448 -165.014233 
L 62.531091 -167.559688 
L 62.236126 -170.105142 
L 61.953185 -172.650597 
L 61.724656 -175.196051 
L 61.582462 -177.741506 
L 61.541698 -180.28696 
L 61.597534 -182.832415 
L 61.727514 -185.377869 
L 61.89978 -187.923324 
L 62.085111 -190.468778 
L 62.268416 -193.014233 
L 62.454882 -195.559687 
L 62.6679 -198.105142 
L 62.939385 -200.650597 
L 63.296429 -203.196051 
L 63.749666 -205.741506 
L 64.287597 -208.28696 
L 64.87821 -210.832415 
L 65.476168 -213.377869 
L 66.032101 -215.923324 
L 66.500815 -218.468778 
L 66.846798 -221.014233 
L 67.047122 -223.559688 
L 67.092688 -226.105142 
L 66.988491 -228.650597 
L 66.752874 -231.196051 
L 66.41536 -233.741506 
L 66.012997 -236.28696 
L 65.585916 -238.832415 
L 65.173238 -241.377869 
L 64.810196 -243.923324 
L 64.526412 -246.468778 
L 64.344499 -249.014233 
L 64.278271 -251.559688 
L 64.330921 -254.105142 
L 64.495098 -256.650597 
L 64.757645 -259.196051 
L 65.110922 -261.741506 
L 65.569897 -264.28696 
L 66.190371 -266.832415 
L 67.0805 -269.377869 
L 68.397196 -271.923324 
L 70.322211 -274.468778 
L 73.019531 -277.014233 
L 76.58394 -279.559687 
L 80.996728 -282.105142 
L 86.10511 -284.650597 
L 91.635582 -287.196051 
L 97.240064 -289.741506 
L 102.561885 -292.28696 
L 107.301725 -294.832415 
L 111.264595 -297.377869 
L 114.376996 -299.923324 
L 116.674499 -302.468778 
L 118.269185 -305.014233 
L 119.310293 -307.559687 
L 122.112207 -307.559687 
L 122.112207 -307.559687 
L 123.153315 -305.014233 
L 124.748001 -302.468778 
L 127.045504 -299.923324 
L 130.157905 -297.377869 
L 134.120775 -294.832415 
L 138.860615 -292.28696 
L 144.182436 -289.741506 
L 149.786918 -287.196051 
L 155.31739 -284.650597 
L 160.425772 -282.105142 
L 164.83856 -279.559687 
L 168.402969 -277.014233 
L 171.100289 -274.468778 
L 173.025304 -271.923324 
L 174.342 -269.377869 
L 175.232129 -266.832415 
L 175.852603 -264.28696 
L 176.311578 -261.741506 
L 176.664855 -259.196051 
L 176.927402 -256.650597 
L 177.091579 -254.105142 
L 177.144229 -251.559688 
L 177.078001 -249.014233 
L 176.896088 -246.468778 
L 176.612304 -243.923324 
L 176.249262 -241.377869 
L 175.836584 -238.832415 
L 175.409503 -236.28696 
L 175.00714 -233.741506 
L 174.669626 -231.196051 
L 174.434009 -228.650597 
L 174.329812 -226.105142 
L 174.375378 -223.559688 
L 174.575702 -221.014233 
L 174.921685 -218.468778 
L 175.390399 -215.923324 
L 175.946332 -213.377869 
L 176.54429 -210.832415 
L 177.134903 -208.28696 
L 177.672834 -205.741506 
L 178.126071 -203.196051 
L 178.483115 -200.650597 
L 178.7546 -198.105142 
L 178.967618 -195.559687 
L 179.154084 -193.014233 
L 179.337389 -190.468778 
L 179.52272 -187.923324 
L 179.694986 -185.377869 
L 179.824966 -182.832415 
L 179.880802 -180.28696 
L 179.840038 -177.741506 
L 179.697844 -175.196051 
L 179.469315 -172.650597 
L 179.186374 -170.105142 
L 178.891409 -167.559688 
L 178.630052 -165.014233 
L 178.444522 -162.468778 
L 178.367907 -159.923324 
L 178.41914 -157.377869 
L 178.598715 -154.832415 
L 178.886028 -152.28696 
L 179.240051 -149.741506 
L 179.604943 -147.196051 
L 179.920926 -144.650597 
L 180.138417 -142.105142 
L 180.23125 -139.559687 
L 180.204094 -137.014233 
L 180.090697 -134.468778 
L 179.942927 -131.923324 
L 179.814207 -129.377869 
L 179.743078 -126.832415 
L 179.742322 -124.28696 
L 179.796616 -121.741506 
L 179.868519 -119.196051 
L 179.910003 -116.650597 
L 179.875598 -114.105142 
L 179.733269 -111.559688 
L 179.469988 -109.014233 
L 179.090081 -106.468778 
L 178.605859 -103.923324 
L 178.021899 -101.377869 
L 177.316545 -98.832415 
L 176.426251 -96.28696 
L 175.239396 -93.741506 
L 173.605115 -91.196051 
L 171.359319 -88.650597 
L 168.364571 -86.105142 
L 164.554592 -83.559688 
L 159.970164 -81.014233 
L 154.77328 -78.468778 
L 149.231792 -75.923324 
L 143.676097 -73.377869 
L 138.439147 -70.832415 
L 133.797051 -68.28696 
L 129.926911 -65.741506 
L 126.891687 -63.196051 
L 124.652102 -60.650597 
L 123.09719 -58.105142 
L 122.081306 -55.559688 
z
" style="stroke: #4b4b4b; stroke-width: 1.25"/>
    </defs>
    <g clip-path="url(#pb2e144efba)">
     <use xlink:href="#m303ab733d5" x="0" y="343.9975" style="fill: #42b874; stroke: #4b4b4b; stroke-width: 1.25"/>
    </g>
   </g>
   <g id="FillBetweenPolyCollection_2">
    <defs>
     <path id="md76bfbb42a" d="M 270.829542 -60.591576 
L 268.192958 -60.591576 
L 266.857813 -63.035376 
L 264.601049 -65.479176 
L 261.13657 -67.922976 
L 256.305992 -70.366777 
L 250.188684 -72.810577 
L 243.153758 -75.254377 
L 235.809726 -77.698177 
L 228.855454 -80.141978 
L 222.890451 -82.585778 
L 218.265862 -85.029578 
L 215.033761 -87.473378 
L 212.999621 -89.917179 
L 211.837001 -92.360979 
L 211.208276 -94.804779 
L 210.849452 -97.248579 
L 210.603711 -99.692379 
L 210.411058 -102.13618 
L 210.273196 -104.57998 
L 210.213849 -107.02378 
L 210.249173 -109.46758 
L 210.374676 -111.911381 
L 210.567569 -114.355181 
L 210.798271 -116.798981 
L 211.042592 -119.242781 
L 211.28737 -121.686582 
L 211.526744 -124.130382 
L 211.752198 -126.574182 
L 211.943951 -129.017982 
L 212.071221 -131.461783 
L 212.103697 -133.905583 
L 212.028701 -136.349383 
L 211.863312 -138.793183 
L 211.652548 -141.236984 
L 211.453317 -143.680784 
L 211.313228 -146.124584 
L 211.256049 -148.568384 
L 211.27962 -151.012185 
L 211.362799 -153.455985 
L 211.4737 -155.899785 
L 211.574998 -158.343585 
L 211.628544 -160.787385 
L 211.60331 -163.231186 
L 211.485686 -165.674986 
L 211.285274 -168.118786 
L 211.030239 -170.562586 
L 210.754563 -173.006387 
L 210.487222 -175.450187 
L 210.251799 -177.893987 
L 210.074749 -180.337787 
L 209.99125 -182.781588 
L 210.038689 -185.225388 
L 210.238999 -187.669188 
L 210.582139 -190.112988 
L 211.023695 -192.556789 
L 211.499243 -195.000589 
L 211.94597 -197.444389 
L 212.318498 -199.888189 
L 212.592733 -202.33199 
L 212.761324 -204.77579 
L 212.828307 -207.21959 
L 212.806916 -209.66339 
L 212.718747 -212.10719 
L 212.590278 -214.550991 
L 212.445311 -216.994791 
L 212.296208 -219.438591 
L 212.139472 -221.882391 
L 211.960248 -224.326192 
L 211.745466 -226.769992 
L 211.498757 -229.213792 
L 211.246703 -231.657592 
L 211.030001 -234.101393 
L 210.883761 -236.545193 
L 210.820382 -238.988993 
L 210.827297 -241.432793 
L 210.880001 -243.876594 
L 210.958133 -246.320394 
L 211.050738 -248.764194 
L 211.147696 -251.207994 
L 211.227469 -253.651795 
L 211.255053 -256.095595 
L 211.19591 -258.539395 
L 211.039863 -260.983195 
L 210.823334 -263.426996 
L 210.642152 -265.870796 
L 210.655389 -268.314596 
L 211.084463 -270.758396 
L 212.205885 -273.202196 
L 214.324965 -275.645997 
L 217.714258 -278.089797 
L 222.516448 -280.533597 
L 228.642793 -282.977397 
L 235.722582 -285.421198 
L 243.150172 -287.864998 
L 250.229733 -290.308798 
L 256.361527 -292.752598 
L 261.187695 -295.196399 
L 264.639396 -297.640199 
L 266.882504 -300.083999 
L 268.206907 -302.527799 
L 270.815593 -302.527799 
L 270.815593 -302.527799 
L 272.139996 -300.083999 
L 274.383104 -297.640199 
L 277.834805 -295.196399 
L 282.660973 -292.752598 
L 288.792767 -290.308798 
L 295.872328 -287.864998 
L 303.299918 -285.421198 
L 310.379707 -282.977397 
L 316.506052 -280.533597 
L 321.308242 -278.089797 
L 324.697535 -275.645997 
L 326.816615 -273.202196 
L 327.938037 -270.758396 
L 328.367111 -268.314596 
L 328.380348 -265.870796 
L 328.199166 -263.426996 
L 327.982637 -260.983195 
L 327.82659 -258.539395 
L 327.767447 -256.095595 
L 327.795031 -253.651795 
L 327.874804 -251.207994 
L 327.971762 -248.764194 
L 328.064367 -246.320394 
L 328.142499 -243.876594 
L 328.195203 -241.432793 
L 328.202118 -238.988993 
L 328.138739 -236.545193 
L 327.992499 -234.101393 
L 327.775797 -231.657592 
L 327.523743 -229.213792 
L 327.277034 -226.769992 
L 327.062252 -224.326192 
L 326.883028 -221.882391 
L 326.726292 -219.438591 
L 326.577189 -216.994791 
L 326.432222 -214.550991 
L 326.303753 -212.10719 
L 326.215584 -209.66339 
L 326.194193 -207.21959 
L 326.261176 -204.77579 
L 326.429767 -202.33199 
L 326.704002 -199.888189 
L 327.07653 -197.444389 
L 327.523257 -195.000589 
L 327.998805 -192.556789 
L 328.440361 -190.112988 
L 328.783501 -187.669188 
L 328.983811 -185.225388 
L 329.03125 -182.781588 
L 328.947751 -180.337787 
L 328.770701 -177.893987 
L 328.535278 -175.450187 
L 328.267937 -173.006387 
L 327.992261 -170.562586 
L 327.737226 -168.118786 
L 327.536814 -165.674986 
L 327.41919 -163.231186 
L 327.393956 -160.787385 
L 327.447502 -158.343585 
L 327.5488 -155.899785 
L 327.659701 -153.455985 
L 327.74288 -151.012185 
L 327.766451 -148.568384 
L 327.709272 -146.124584 
L 327.569183 -143.680784 
L 327.369952 -141.236984 
L 327.159188 -138.793183 
L 326.993799 -136.349383 
L 326.918803 -133.905583 
L 326.951279 -131.461783 
L 327.078549 -129.017982 
L 327.270302 -126.574182 
L 327.495756 -124.130382 
L 327.73513 -121.686582 
L 327.979908 -119.242781 
L 328.224229 -116.798981 
L 328.454931 -114.355181 
L 328.647824 -111.911381 
L 328.773327 -109.46758 
L 328.808651 -107.02378 
L 328.749304 -104.57998 
L 328.611442 -102.13618 
L 328.418789 -99.692379 
L 328.173048 -97.248579 
L 327.814224 -94.804779 
L 327.185499 -92.360979 
L 326.022879 -89.917179 
L 323.988739 -87.473378 
L 320.756638 -85.029578 
L 316.132049 -82.585778 
L 310.167046 -80.141978 
L 303.212774 -77.698177 
L 295.868742 -75.254377 
L 288.833816 -72.810577 
L 282.716508 -70.366777 
L 277.88593 -67.922976 
L 274.421451 -65.479176 
L 272.164687 -63.035376 
L 270.829542 -60.591576 
z
" style="stroke: #4b4b4b; stroke-width: 1.25"/>
    </defs>
    <g clip-path="url(#pb2e144efba)">
     <use xlink:href="#md76bfbb42a" x="0" y="343.9975" style="fill: #d7962e; stroke: #4b4b4b; stroke-width: 1.25"/>
    </g>
   </g>
   <g id="FillBetweenPolyCollection_3">
    <defs>
     <path id="m30c714f792" d="M 419.555661 -58.29853 
L 417.066839 -58.29853 
L 415.984702 -60.788654 
L 414.241707 -63.278779 
L 411.639934 -65.768903 
L 408.040264 -68.259028 
L 403.423171 -70.749152 
L 397.931109 -73.239276 
L 391.869177 -75.729401 
L 385.654466 -78.219525 
L 379.726535 -80.709649 
L 374.450297 -83.199774 
L 370.04691 -85.689898 
L 366.575287 -88.180023 
L 363.963817 -90.670147 
L 362.071592 -93.160271 
L 360.750397 -95.650396 
L 359.884598 -98.14052 
L 359.400235 -100.630645 
L 359.24919 -103.120769 
L 359.383074 -105.610893 
L 359.732493 -108.101018 
L 360.201792 -110.591142 
L 360.680736 -113.081267 
L 361.066902 -115.571391 
L 361.288791 -118.061515 
L 361.320716 -120.55164 
L 361.184916 -123.041764 
L 360.941454 -125.531889 
L 360.670054 -128.022013 
L 360.449308 -130.512137 
L 360.338101 -133.002262 
L 360.362753 -135.492386 
L 360.511885 -137.982511 
L 360.739821 -140.472635 
L 360.977996 -142.962759 
L 361.152181 -145.452884 
L 361.2014 -147.943008 
L 361.093181 -150.433133 
L 360.830411 -152.923257 
L 360.448098 -155.413381 
L 360.002462 -157.903506 
L 359.557664 -160.39363 
L 359.175099 -162.883755 
L 358.906841 -165.373879 
L 358.79125 -167.864003 
L 358.847876 -170.354128 
L 359.071448 -172.844252 
L 359.428486 -175.334377 
L 359.861233 -177.824501 
L 360.300417 -180.314625 
L 360.682831 -182.80475 
L 360.966137 -185.294874 
L 361.134628 -187.784998 
L 361.194974 -190.275123 
L 361.166404 -192.765247 
L 361.071713 -195.255372 
L 360.933262 -197.745496 
L 360.773951 -200.23562 
L 360.61991 -202.725745 
L 360.500995 -205.215869 
L 360.446961 -207.705994 
L 360.480087 -210.196118 
L 360.607387 -212.686242 
L 360.81616 -215.176367 
L 361.075204 -217.666491 
L 361.341414 -220.156616 
L 361.569227 -222.64674 
L 361.719553 -225.136864 
L 361.765722 -227.626989 
L 361.695733 -230.117113 
L 361.511807 -232.607238 
L 361.229072 -235.097362 
L 360.874793 -237.587486 
L 360.487978 -240.077611 
L 360.117303 -242.567735 
L 359.814666 -245.05786 
L 359.623649 -247.547984 
L 359.566191 -250.038108 
L 359.634193 -252.528233 
L 359.792482 -255.018357 
L 359.994774 -257.508482 
L 360.207828 -259.998606 
L 360.435162 -262.48873 
L 360.733011 -264.978855 
L 361.215676 -267.468979 
L 362.050755 -269.959104 
L 363.444186 -272.449228 
L 365.61215 -274.939352 
L 368.736866 -277.429477 
L 372.909983 -279.919601 
L 378.078672 -282.409726 
L 384.017853 -284.89985 
L 390.348817 -287.389974 
L 396.607687 -289.880099 
L 402.344533 -292.370223 
L 407.218494 -294.860347 
L 411.055782 -297.350472 
L 413.854912 -299.840596 
L 415.746464 -302.330721 
L 416.930496 -304.820845 
L 419.692004 -304.820845 
L 419.692004 -304.820845 
L 420.876036 -302.330721 
L 422.767588 -299.840596 
L 425.566718 -297.350472 
L 429.404006 -294.860347 
L 434.277967 -292.370223 
L 440.014813 -289.880099 
L 446.273683 -287.389974 
L 452.604647 -284.89985 
L 458.543828 -282.409726 
L 463.712517 -279.919601 
L 467.885634 -277.429477 
L 471.01035 -274.939352 
L 473.178314 -272.449228 
L 474.571745 -269.959104 
L 475.406824 -267.468979 
L 475.889489 -264.978855 
L 476.187338 -262.48873 
L 476.414672 -259.998606 
L 476.627726 -257.508482 
L 476.830018 -255.018357 
L 476.988307 -252.528233 
L 477.056309 -250.038108 
L 476.998851 -247.547984 
L 476.807834 -245.05786 
L 476.505197 -242.567735 
L 476.134522 -240.077611 
L 475.747707 -237.587486 
L 475.393428 -235.097362 
L 475.110693 -232.607238 
L 474.926767 -230.117113 
L 474.856778 -227.626989 
L 474.902947 -225.136864 
L 475.053273 -222.64674 
L 475.281086 -220.156616 
L 475.547296 -217.666491 
L 475.80634 -215.176367 
L 476.015113 -212.686242 
L 476.142413 -210.196118 
L 476.175539 -207.705994 
L 476.121505 -205.215869 
L 476.00259 -202.725745 
L 475.848549 -200.23562 
L 475.689238 -197.745496 
L 475.550787 -195.255372 
L 475.456096 -192.765247 
L 475.427526 -190.275123 
L 475.487872 -187.784998 
L 475.656363 -185.294874 
L 475.939669 -182.80475 
L 476.322083 -180.314625 
L 476.761267 -177.824501 
L 477.194014 -175.334377 
L 477.551052 -172.844252 
L 477.774624 -170.354128 
L 477.83125 -167.864003 
L 477.715659 -165.373879 
L 477.447401 -162.883755 
L 477.064836 -160.39363 
L 476.620038 -157.903506 
L 476.174402 -155.413381 
L 475.792089 -152.923257 
L 475.529319 -150.433133 
L 475.4211 -147.943008 
L 475.470319 -145.452884 
L 475.644504 -142.962759 
L 475.882679 -140.472635 
L 476.110615 -137.982511 
L 476.259747 -135.492386 
L 476.284399 -133.002262 
L 476.173192 -130.512137 
L 475.952446 -128.022013 
L 475.681046 -125.531889 
L 475.437584 -123.041764 
L 475.301784 -120.55164 
L 475.333709 -118.061515 
L 475.555598 -115.571391 
L 475.941764 -113.081267 
L 476.420708 -110.591142 
L 476.890007 -108.101018 
L 477.239426 -105.610893 
L 477.37331 -103.120769 
L 477.222265 -100.630645 
L 476.737902 -98.14052 
L 475.872103 -95.650396 
L 474.550908 -93.160271 
L 472.658683 -90.670147 
L 470.047213 -88.180023 
L 466.57559 -85.689898 
L 462.172203 -83.199774 
L 456.895965 -80.709649 
L 450.968034 -78.219525 
L 444.753323 -75.729401 
L 438.691391 -73.239276 
L 433.199329 -70.749152 
L 428.582236 -68.259028 
L 424.982566 -65.768903 
L 422.380793 -63.278779 
L 420.637798 -60.788654 
L 419.555661 -58.29853 
z
" style="stroke: #4b4b4b; stroke-width: 1.25"/>
    </defs>
    <g clip-path="url(#pb2e144efba)">
     <use xlink:href="#m30c714f792" x="0" y="343.9975" style="fill: #d25d51; stroke: #4b4b4b; stroke-width: 1.25"/>
    </g>
   </g>
   <g id="line2d_7">
    <path d="M 120.71125 267.751507 
L 120.71125 57.124118 
" clip-path="url(#pb2e144efba)" style="fill: none; stroke: #4b4b4b; stroke-width: 1.875; stroke-linecap: round"/>
   </g>
   <g id="line2d_8">
    <path d="M 120.71125 216.052057 
L 120.71125 110.366041 
" clip-path="url(#pb2e144efba)" style="fill: none; stroke: #4b4b4b; stroke-width: 5.625; stroke-linecap: round"/>
   </g>
   <g id="line2d_9">
    <path d="M 120.71125 163.927097 
" clip-path="url(#pb2e144efba)" style="fill: none; stroke: #4b4b4b; stroke-width: 1.5; stroke-linecap: round"/>
    <defs>
     <path id="m177bd141f6" d="M 2.34375 0 
L -2.34375 -0 
" style="stroke: #ffffff; stroke-width: 1.125"/>
    </defs>
    <g clip-path="url(#pb2e144efba)">
     <use xlink:href="#m177bd141f6" x="120.71125" y="163.927097" style="fill: #ffffff; stroke: #ffffff; stroke-width: 1.125"/>
    </g>
   </g>
   <g id="line2d_10">
    <path d="M 269.51125 267.751507 
L 269.51125 57.124118 
" clip-path="url(#pb2e144efba)" style="fill: none; stroke: #4b4b4b; stroke-width: 1.875; stroke-linecap: round"/>
   </g>
   <g id="line2d_11">
    <path d="M 269.51125 215.413792 
L 269.51125 109.249078 
" clip-path="url(#pb2e144efba)" style="fill: none; stroke: #4b4b4b; stroke-width: 5.625; stroke-linecap: round"/>
   </g>
   <g id="line2d_12">
    <path d="M 269.51125 162.437812 
" clip-path="url(#pb2e144efba)" style="fill: none; stroke: #4b4b4b; stroke-width: 1.5; stroke-linecap: round"/>
    <g clip-path="url(#pb2e144efba)">
     <use xlink:href="#m177bd141f6" x="269.51125" y="162.437812" style="fill: #ffffff; stroke: #ffffff; stroke-width: 1.125"/>
    </g>
   </g>
   <g id="line2d_13">
    <path d="M 418.31125 267.751507 
L 418.31125 57.124118 
" clip-path="url(#pb2e144efba)" style="fill: none; stroke: #4b4b4b; stroke-width: 1.875; stroke-linecap: round"/>
   </g>
   <g id="line2d_14">
    <path d="M 418.31125 214.775527 
L 418.31125 109.249078 
" clip-path="url(#pb2e144efba)" style="fill: none; stroke: #4b4b4b; stroke-width: 5.625; stroke-linecap: round"/>
   </g>
   <g id="line2d_15">
    <path d="M 418.31125 162.863322 
" clip-path="url(#pb2e144efba)" style="fill: none; stroke: #4b4b4b; stroke-width: 1.5; stroke-linecap: round"/>
    <g clip-path="url(#pb2e144efba)">
     <use xlink:href="#m177bd141f6" x="418.31125" y="162.863322" style="fill: #ffffff; stroke: #ffffff; stroke-width: 1.125"/>
    </g>
   </g>
   <g id="patch_3">
    <path d="M 46.31125 301.037812 
L 46.31125 23.837812 
" style="fill: none; stroke: #cccccc; stroke-width: 1.25; stroke-linejoin: miter; stroke-linecap: square"/>
   </g>
   <g id="patch_4">
    <path d="M 492.71125 301.037812 
L 492.71125 23.837812 
" style="fill: none; stroke: #cccccc; stroke-width: 1.25; stroke-linejoin: miter; stroke-linecap: square"/>
   </g>
   <g id="patch_5">
    <path d="M 46.31125 301.037812 
L 492.71125 301.037812 
" style="fill: none; stroke: #cccccc; stroke-width: 1.25; stroke-linejoin: miter; stroke-linecap: square"/>
   </g>
   <g id="patch_6">
    <path d="M 46.31125 23.837812 
L 492.71125 23.837812 
" style="fill: none; stroke: #cccccc; stroke-width: 1.25; stroke-linejoin: miter; stroke-linecap: square"/>
   </g>
   <g id="text_12">
    <!-- Q1: Mortality Distribution by Urbanization Tier -->
    <g style="fill: #262626" transform="translate(107.957812 17.837812) scale(0.14 -0.14)">
     <defs>
      <path id="DejaVuSans-51" d="M 2522 4238 
Q 1834 4238 1429 3725 
Q 1025 3213 1025 2328 
Q 1025 1447 1429 934 
Q 1834 422 2522 422 
Q 3209 422 3611 934 
Q 4013 1447 4013 2328 
Q 4013 3213 3611 3725 
Q 3209 4238 2522 4238 
z
M 3406 84 
L 4238 -825 
L 3475 -825 
L 2784 -78 
Q 2681 -84 2626 -87 
Q 2572 -91 2522 -91 
Q 1538 -91 948 567 
Q 359 1225 359 2328 
Q 359 3434 948 4092 
Q 1538 4750 2522 4750 
Q 3503 4750 4090 4092 
Q 4678 3434 4678 2328 
Q 4678 1516 4351 937 
Q 4025 359 3406 84 
z
" transform="scale(0.015625)"/>
      <path id="DejaVuSans-3a" d="M 750 794 
L 1409 794 
L 1409 0 
L 750 0 
L 750 794 
z
M 750 3309 
L 1409 3309 
L 1409 2516 
L 750 2516 
L 750 3309 
z
" transform="scale(0.015625)"/>
      <path id="DejaVuSans-44" d="M 1259 4147 
L 1259 519 
L 2022 519 
Q 2988 519 3436 956 
Q 3884 1394 3884 2338 
Q 3884 3275 3436 3711 
Q 2988 4147 2022 4147 
L 1259 4147 
z
M 628 4666 
L 1925 4666 
Q 3281 4666 3915 4102 
Q 4550 3538 4550 2338 
Q 4550 1131 3912 565 
Q 3275 0 1925 0 
L 628 0 
L 628 4666 
z
" transform="scale(0.015625)"/>
      <path id="DejaVuSans-73" d="M 2834 3397 
L 2834 2853 
Q 2591 2978 2328 3040 
Q 2066 3103 1784 3103 
Q 1356 3103 1142 2972 
Q 928 2841 928 2578 
Q 928 2378 1081 2264 
Q 1234 2150 1697 2047 
L 1894 2003 
Q 2506 1872 2764 1633 
Q 3022 1394 3022 966 
Q 3022 478 2636 193 
Q 2250 -91 1575 -91 
Q 1294 -91 989 -36 
Q 684 19 347 128 
L 347 722 
Q 666 556 975 473 
Q 1284 391 1588 391 
Q 1994 391 2212 530 
Q 2431 669 2431 922 
Q 2431 1156 2273 1281 
Q 2116 1406 1581 1522 
L 1381 1569 
Q 847 1681 609 1914 
Q 372 2147 372 2553 
Q 372 3047 722 3315 
Q 1072 3584 1716 3584 
Q 2034 3584 2315 3537 
Q 2597 3491 2834 3397 
z
" transform="scale(0.015625)"/>
     </defs>
     <use xlink:href="#DejaVuSans-51"/>
     <use xlink:href="#DejaVuSans-31" transform="translate(78.710938 0)"/>
     <use xlink:href="#DejaVuSans-3a" transform="translate(142.333984 0)"/>
     <use xlink:href="#DejaVuSans-20" transform="translate(176.025391 0)"/>
     <use xlink:href="#DejaVuSans-4d" transform="translate(207.8125 0)"/>
     <use xlink:href="#DejaVuSans-6f" transform="translate(294.091797 0)"/>
     <use xlink:href="#DejaVuSans-72" transform="translate(355.273438 0)"/>
     <use xlink:href="#DejaVuSans-74" transform="translate(396.386719 0)"/>
     <use xlink:href="#DejaVuSans-61" transform="translate(435.595703 0)"/>
     <use xlink:href="#DejaVuSans-6c" transform="translate(496.875 0)"/>
     <use xlink:href="#DejaVuSans-69" transform="translate(524.658203 0)"/>
     <use xlink:href="#DejaVuSans-74" transform="translate(552.441406 0)"/>
     <use xlink:href="#DejaVuSans-79" transform="translate(591.650391 0)"/>
     <use xlink:href="#DejaVuSans-20" transform="translate(650.830078 0)"/>
     <use xlink:href="#DejaVuSans-44" transform="translate(682.617188 0)"/>
     <use xlink:href="#DejaVuSans-69" transform="translate(759.619141 0)"/>
     <use xlink:href="#DejaVuSans-73" transform="translate(787.402344 0)"/>
     <use xlink:href="#DejaVuSans-74" transform="translate(839.501953 0)"/>
     <use xlink:href="#DejaVuSans-72" transform="translate(878.710938 0)"/>
     <use xlink:href="#DejaVuSans-69" transform="translate(919.824219 0)"/>
     <use xlink:href="#DejaVuSans-62" transform="translate(947.607422 0)"/>
     <use xlink:href="#DejaVuSans-75" transform="translate(1011.083984 0)"/>
     <use xlink:href="#DejaVuSans-74" transform="translate(1074.462891 0)"/>
     <use xlink:href="#DejaVuSans-69" transform="translate(1113.671875 0)"/>
     <use xlink:href="#DejaVuSans-6f" transform="translate(1141.455078 0)"/>
     <use xlink:href="#DejaVuSans-6e" transform="translate(1202.636719 0)"/>
     <use xlink:href="#DejaVuSans-20" transform="translate(1266.015625 0)"/>
     <use xlink:href="#DejaVuSans-62" transform="translate(1297.802734 0)"/>
     <use xlink:href="#DejaVuSans-79" transform="translate(1361.279297 0)"/>
     <use xlink:href="#DejaVuSans-20" transform="translate(1420.458984 0)"/>
     <use xlink:href="#DejaVuSans-55" transform="translate(1452.246094 0)"/>
     <use xlink:href="#DejaVuSans-72" transform="translate(1525.439453 0)"/>
     <use xlink:href="#DejaVuSans-62" transform="translate(1566.552734 0)"/>
     <use xlink:href="#DejaVuSans-61" transform="translate(1630.029297 0)"/>
     <use xlink:href="#DejaVuSans-6e" transform="translate(1691.308594 0)"/>
     <use xlink:href="#DejaVuSans-69" transform="translate(1754.6875 0)"/>
     <use xlink:href="#DejaVuSans-7a" transform="translate(1782.470703 0)"/>
     <use xlink:href="#DejaVuSans-61" transform="translate(1834.960938 0)"/>
     <use xlink:href="#DejaVuSans-74" transform="translate(1896.240234 0)"/>
     <use xlink:href="#DejaVuSans-69" transform="translate(1935.449219 0)"/>
     <use xlink:href="#DejaVuSans-6f" transform="translate(1963.232422 0)"/>
     <use xlink:href="#DejaVuSans-6e" transform="translate(2024.414062 0)"/>
     <use xlink:href="#DejaVuSans-20" transform="translate(2087.792969 0)"/>
     <use xlink:href="#DejaVuSans-54" transform="translate(2119.580078 0)"/>
     <use xlink:href="#DejaVuSans-69" transform="translate(2177.539062 0)"/>
     <use xlink:href="#DejaVuSans-65" transform="translate(2205.322266 0)"/>
     <use xlink:href="#DejaVuSans-72" transform="translate(2266.845703 0)"/>
    </g>
   </g>
  </g>
 </g>
 <defs>
  <clipPath id="pb2e144efba">
   <rect x="46.31125" y="23.837812" width="446.4" height="277.2"/>
  </clipPath>
 </defs>
</svg>
