<?xml version="1.0" encoding="utf-8" standalone="no"?>
<!DOCTYPE svg PUBLIC "-//W3C//DTD SVG 1.1//EN"
  "http://www.w3.org/Graphics/SVG/1.1/DTD/svg11.dtd">
<svg xmlns:xlink="http://www.w3.org/1999/xlink" width="499.91125pt" height="343.9975pt" viewBox="0 0 499.91125 343.9975" xmlns="http://www.w3.org/2000/svg" version="1.1">
 <metadata>
  <rdf:RDF xmlns:dc="http://purl.org/dc/elements/1.1/" xmlns:cc="http://creativecommons.org/ns#" xmlns:rdf="http://www.w3.org/1999/02/22-rdf-syntax-ns#">
   <cc:Work>
    <dc:type rdf:resource="http://purl.org/dc/dcmitype/StillImage"/>
    <dc:date>2026-02-28T19:50:10.140667</dc:date>
    <dc:format>image/svg+xml</dc:format>
    <dc:creator>
     <cc:Agent>
      <dc:title>Matplotlib v3.10.8, https://matplotlib.org/</dc:title>
     </cc:Agent>
    </dc:creator>
   </cc:Work>
  </rdf:RDF>
 </metadata>
 <defs>
  <style type="text/css">*{stroke-linejoin: round; stroke-linecap: butt}</style>
 </defs>
 <g id="figure_1">
  <g id="patch_1">
   <path d="M 0 343.9975 
L 499.91125 343.9975 
L 499.91125 0 
L 0 0 
z
" style="fill: #ffffff"/>
  </g>
  <g id="axes_1">
   <g id="patch_2">
    <path d="M 46.31125 301.037812 
L 492.71125 301.037812 
L 492.71125 23.837812 
L 46.31125 23.837812 
z
" style="fill: #ffffff"/>
   </g>
   <g id="matplotlib.axis_1">
    <g id="xtick_1">
     <g id="text_1">
      <!-- Rural -->
      <g style="fill: #262626" transform="translate(106.492031 318.896094) scale(0.11 -0.11)">
       <defs>
        <path id="DejaVuSans-52" d="M 2841 2188 
Q 3044 2119 3236 1894 
Q 3428 1669 3622 1275 
L 4263 0 
L 3584 0 
L 2988 1197 
Q 2756 1666 2539 1819 
Q 2322 1972 1947 1972 
L 1259 1972 
L 1259 0 
L 628 0 
L 628 4666 
L 2053 4666 
Q 2853 4666 3247 4331 
Q 3641 3997 3641 3322 
Q 3641 2881 3436 2590 
Q 3231 2300 2841 2188 
z
M 1259 4147 
L 1259 2491 
L 2053 2491 
Q 2509 2491 2742 2702 
Q 2975 2913 2975 3322 
Q 2975 3731 2742 3939 
Q 2509 4147 2053 4147 
L 1259 4147 
z
" transform="scale(0.015625)"/>
        <path id="DejaVuSans-75" d="M 544 1381 
L 544 3500 
L 1119 3500 
L 1119 1403 
Q 1119 906 1312 657 
Q 1506 409 1894 409 
Q 2359 409 2629 706 
Q 2900 1003 2900 1516 
L 2900 3500 
L 3475 3500 
L 3475 0 
L 2900 0 
L 2900 538 
Q 2691 219 2414 64 
Q 2138 -91 1772 -91 
Q 1169 -91 856 284 
Q 544 659 544 1381 
z
M 1991 3584 
L 1991 3584 
z
" transform="scale(0.015625)"/>
        <path id="DejaVuSans-72" d="M 2631 2963 
Q 2534 3019 2420 3045 
Q 2306 3072 2169 3072 
Q 1681 3072 1420 2755 
Q 1159 2438 1159 1844 
L 1159 0 
L 581 0 
L 581 3500 
L 1159 3500 
L 1159 2956 
Q 1341 3275 1631 3429 
Q 1922 3584 2338 3584 
Q 2397 3584 2469 3576 
Q 2541 3569 2628 3553 
L 2631 2963 
z
" transform="scale(0.015625)"/>
        <path id="DejaVuSans-61" d="M 2194 1759 
Q 1497 1759 1228 1600 
Q 959 1441 959 1056 
Q 959 750 1161 570 
Q 1363 391 1709 391 
Q 2188 391 2477 730 
Q 2766 1069 2766 1631 
L 2766 1759 
L 2194 1759 
z
M 3341 1997 
L 3341 0 
L 2766 0 
L 2766 531 
Q 2569 213 2275 61 
Q 1981 -91 1556 -91 
Q 1019 -91 701 211 
Q 384 513 384 1019 
Q 384 1609 779 1909 
Q 1175 2209 1959 2209 
L 2766 2209 
L 2766 2266 
Q 2766 2663 2505 2880 
Q 2244 3097 1772 3097 
Q 1472 3097 1187 3025 
Q 903 2953 641 2809 
L 641 3341 
Q 956 3463 1253 3523 
Q 1550 3584 1831 3584 
Q 2591 3584 2966 3190 
Q 3341 2797 3341 1997 
z
" transform="scale(0.015625)"/>
        <path id="DejaVuSans-6c" d="M 603 4863 
L 1178 4863 
L 1178 0 
L 603 0 
L 603 4863 
z
" transform="scale(0.015625)"/>
       </defs>
       <use xlink:href="#DejaVuSans-52"/>
       <use xlink:href="#DejaVuSans-75" transform="translate(64.982422 0)"/>
       <use xlink:href="#DejaVuSans-72" transform="translate(128.361328 0)"/>
       <use xlink:href="#DejaVuSans-61" transform="translate(169.474609 0)"/>
       <use xlink:href="#DejaVuSans-6c" transform="translate(230.753906 0)"/>
      </g>
     </g>
    </g>
    <g id="xtick_2">
     <g id="text_2">
      <!-- Peri-urban -->
      <g style="fill: #262626" transform="translate(241.142422 318.896094) scale(0.11 -0.11)">
       <defs>
        <path id="DejaVuSans-50" d="M 1259 4147 
L 1259 2394 
L 2053 2394 
Q 2494 2394 2734 2622 
Q 2975 2850 2975 3272 
Q 2975 3691 2734 3919 
Q 2494 4147 2053 4147 
L 1259 4147 
z
M 628 4666 
L 2053 4666 
Q 2838 4666 3239 4311 
Q 3641 3956 3641 3272 
Q 3641 2581 3239 2228 
Q 2838 1875 2053 1875 
L 1259 1875 
L 1259 0 
L 628 0 
L 628 4666 
z
" transform="scale(0.015625)"/>
        <path id="DejaVuSans-65" d="M 3597 1894 
L 3597 1613 
L 953 1613 
Q 991 1019 1311 708 
Q 1631 397 2203 397 
Q 2534 397 2845 478 
Q 3156 559 3463 722 
L 3463 178 
Q 3153 47 2828 -22 
Q 2503 -91 2169 -91 
Q 1331 -91 842 396 
Q 353 884 353 1716 
Q 353 2575 817 3079 
Q 1281 3584 2069 3584 
Q 2775 3584 3186 3129 
Q 3597 2675 3597 1894 
z
M 3022 2063 
Q 3016 2534 2758 2815 
Q 2500 3097 2075 3097 
Q 1594 3097 1305 2825 
Q 1016 2553 972 2059 
L 3022 2063 
z
" transform="scale(0.015625)"/>
        <path id="DejaVuSans-69" d="M 603 3500 
L 1178 3500 
L 1178 0 
L 603 0 
L 603 3500 
z
M 603 4863 
L 1178 4863 
L 1178 4134 
L 603 4134 
L 603 4863 
z
" transform="scale(0.015625)"/>
        <path id="DejaVuSans-2d" d="M 313 2009 
L 1997 2009 
L 1997 1497 
L 313 1497 
L 313 2009 
z
" transform="scale(0.015625)"/>
        <path id="DejaVuSans-62" d="M 3116 1747 
Q 3116 2381 2855 2742 
Q 2594 3103 2138 3103 
Q 1681 3103 1420 2742 
Q 1159 2381 1159 1747 
Q 1159 1113 1420 752 
Q 1681 391 2138 391 
Q 2594 391 2855 752 
Q 3116 1113 3116 1747 
z
M 1159 2969 
Q 1341 3281 1617 3432 
Q 1894 3584 2278 3584 
Q 2916 3584 3314 3078 
Q 3713 2572 3713 1747 
Q 3713 922 3314 415 
Q 2916 -91 2278 -91 
Q 1894 -91 1617 61 
Q 1341 213 1159 525 
L 1159 0 
L 581 0 
L 581 4863 
L 1159 4863 
L 1159 2969 
z
" transform="scale(0.015625)"/>
        <path id="DejaVuSans-6e" d="M 3513 2113 
L 3513 0 
L 2938 0 
L 2938 2094 
Q 2938 2591 2744 2837 
Q 2550 3084 2163 3084 
Q 1697 3084 1428 2787 
Q 1159 2491 1159 1978 
L 1159 0 
L 581 0 
L 581 3500 
L 1159 3500 
L 1159 2956 
Q 1366 3272 1645 3428 
Q 1925 3584 2291 3584 
Q 2894 3584 3203 3211 
Q 3513 2838 3513 2113 
z
" transform="scale(0.015625)"/>
       </defs>
       <use xlink:href="#DejaVuSans-50"/>
       <use xlink:href="#DejaVuSans-65" transform="translate(56.677734 0)"/>
       <use xlink:href="#DejaVuSans-72" transform="translate(118.201172 0)"/>
       <use xlink:href="#DejaVuSans-69" transform="translate(159.314453 0)"/>
       <use xlink:href="#DejaVuSans-2d" transform="translate(187.097656 0)"/>
       <use xlink:href="#DejaVuSans-75" transform="translate(223.181641 0)"/>
       <use xlink:href="#DejaVuSans-72" transform="translate(286.560547 0)"/>
       <use xlink:href="#DejaVuSans-62" transform="translate(327.673828 0)"/>
       <use xlink:href="#DejaVuSans-61" transform="translate(391.150391 0)"/>
       <use xlink:href="#DejaVuSans-6e" transform="translate(452.429688 0)"/>
      </g>
     </g>
    </g>
    <g id="xtick_3">
     <g id="text_3">
      <!-- Urban -->
      <g style="fill: #262626" transform="translate(401.677187 318.896094) scale(0.11 -0.11)">
       <defs>
        <path id="DejaVuSans-55" d="M 556 4666 
L 1191 4666 
L 1191 1831 
Q 1191 1081 1462 751 
Q 1734 422 2344 422 
Q 2950 422 3222 751 
Q 3494 1081 3494 1831 
L 3494 4666 
L 4128 4666 
L 4128 1753 
Q 4128 841 3676 375 
Q 3225 -91 2344 -91 
Q 1459 -91 1007 375 
Q 556 841 556 1753 
L 556 4666 
z
" transform="scale(0.015625)"/>
       </defs>
       <use xlink:href="#DejaVuSans-55"/>
       <use xlink:href="#DejaVuSans-72" transform="translate(73.193359 0)"/>
       <use xlink:href="#DejaVuSans-62" transform="translate(114.306641 0)"/>
       <use xlink:href="#DejaVuSans-61" transform="translate(177.783203 0)"/>
       <use xlink:href="#DejaVuSans-6e" transform="translate(239.0625 0)"/>
      </g>
     </g>
    </g>
    <g id="text_4">
     <!-- Urbanization Tier -->
     <g style="fill: #262626" transform="translate(218.17 334.301875) scale(0.12 -0.12)">
      <defs>
       <path id="DejaVuSans-7a" d="M 353 3500 
L 3084 3500 
L 3084 2975 
L 922 459 
L 3084 459 
L 3084 0 
L 275 0 
L 275 525 
L 2438 3041 
L 353 3041 
L 353 3500 
z
" transform="scale(0.015625)"/>
       <path id="DejaVuSans-74" d="M 1172 4494 
L 1172 3500 
L 2356 3500 
L 2356 3053 
L 1172 3053 
L 1172 1153 
Q 1172 725 1289 603 
Q 1406 481 1766 481 
L 2356 481 
L 2356 0 
L 1766 0 
Q 1100 0 847 248 
Q 594 497 594 1153 
L 594 3053 
L 172 3053 
L 172 3500 
L 594 3500 
L 594 4494 
L 1172 4494 
z
" transform="scale(0.015625)"/>
       <path id="DejaVuSans-6f" d="M 1959 3097 
Q 1497 3097 1228 2736 
Q 959 2375 959 1747 
Q 959 1119 1226 758 
Q 1494 397 1959 397 
Q 2419 397 2687 759 
Q 2956 1122 2956 1747 
Q 2956 2369 2687 2733 
Q 2419 3097 1959 3097 
z
M 1959 3584 
Q 2709 3584 3137 3096 
Q 3566 2609 3566 1747 
Q 3566 888 3137 398 
Q 2709 -91 1959 -91 
Q 1206 -91 779 398 
Q 353 888 353 1747 
Q 353 2609 779 3096 
Q 1206 3584 1959 3584 
z
" transform="scale(0.015625)"/>
       <path id="DejaVuSans-20" transform="scale(0.015625)"/>
       <path id="DejaVuSans-54" d="M -19 4666 
L 3928 4666 
L 3928 4134 
L 2272 4134 
L 2272 0 
L 1638 0 
L 1638 4134 
L -19 4134 
L -19 4666 
z
" transform="scale(0.015625)"/>
      </defs>
      <use xlink:href="#DejaVuSans-55"/>
      <use xlink:href="#DejaVuSans-72" transform="translate(73.193359 0)"/>
      <use xlink:href="#DejaVuSans-62" transform="translate(114.306641 0)"/>
      <use xlink:href="#DejaVuSans-61" transform="translate(177.783203 0)"/>
      <use xlink:href="#DejaVuSans-6e" transform="translate(239.0625 0)"/>
      <use xlink:href="#DejaVuSans-69" transform="translate(302.441406 0)"/>
      <use xlink:href="#DejaVuSans-7a" transform="translate(330.224609 0)"/>
      <use xlink:href="#DejaVuSans-61" transform="translate(382.714844 0)"/>
      <use xlink:href="#DejaVuSans-74" transform="translate(443.994141 0)"/>
      <use xlink:href="#DejaVuSans-69" transform="translate(483.203125 0)"/>
      <use xlink:href="#DejaVuSans-6f" transform="translate(510.986328 0)"/>
      <use xlink:href="#DejaVuSans-6e" transform="translate(572.167969 0)"/>
      <use xlink:href="#DejaVuSans-20" transform="translate(635.546875 0)"/>
      <use xlink:href="#DejaVuSans-54" transform="translate(667.333984 0)"/>
      <use xlink:href="#DejaVuSans-69" transform="translate(725.292969 0)"/>
      <use xlink:href="#DejaVuSans-65" transform="translate(753.076172 0)"/>
      <use xlink:href="#DejaVuSans-72" transform="translate(814.599609 0)"/>
     </g>
    </g>
   </g>
   <g id="matplotlib.axis_2">
    <g id="ytick_1">
     <g id="line2d_1">
      <path d="M 46.31125 269.977217 
L 492.71125 269.977217 
" clip-path="url(#p0cc103c691)" style="fill: none; stroke: #cccccc; stroke-linecap: round"/>
     </g>
     <g id="text_5">
      <!-- 0 -->
      <g style="fill: #262626" transform="translate(29.8125 274.156358) scale(0.11 -0.11)">
       <defs>
        <path id="DejaVuSans-30" d="M 2034 4250 
Q 1547 4250 1301 3770 
Q 1056 3291 1056 2328 
Q 1056 1369 1301 889 
Q 1547 409 2034 409 
Q 2525 409 2770 889 
Q 3016 1369 3016 2328 
Q 3016 3291 2770 3770 
Q 2525 4250 2034 4250 
z
M 2034 4750 
Q 2819 4750 3233 4129 
Q 3647 3509 3647 2328 
Q 3647 1150 3233 529 
Q 2819 -91 2034 -91 
Q 1250 -91 836 529 
Q 422 1150 422 2328 
Q 422 3509 836 4129 
Q 1250 4750 2034 4750 
z
" transform="scale(0.015625)"/>
       </defs>
       <use xlink:href="#DejaVuSans-30"/>
      </g>
     </g>
    </g>
    <g id="ytick_2">
     <g id="line2d_2">
      <path d="M 46.31125 227.387354 
L 492.71125 227.387354 
" clip-path="url(#p0cc103c691)" style="fill: none; stroke: #cccccc; stroke-linecap: round"/>
     </g>
     <g id="text_6">
      <!-- 2 -->
      <g style="fill: #262626" transform="translate(29.8125 231.566495) scale(0.11 -0.11)">
       <defs>
        <path id="DejaVuSans-32" d="M 1228 531 
L 3431 531 
L 3431 0 
L 469 0 
L 469 531 
Q 828 903 1448 1529 
Q 2069 2156 2228 2338 
Q 2531 2678 2651 2914 
Q 2772 3150 2772 3378 
Q 2772 3750 2511 3984 
Q 2250 4219 1831 4219 
Q 1534 4219 1204 4116 
Q 875 4013 500 3803 
L 500 4441 
Q 881 4594 1212 4672 
Q 1544 4750 1819 4750 
Q 2544 4750 2975 4387 
Q 3406 4025 3406 3419 
Q 3406 3131 3298 2873 
Q 3191 2616 2906 2266 
Q 2828 2175 2409 1742 
Q 1991 1309 1228 531 
z
" transform="scale(0.015625)"/>
       </defs>
       <use xlink:href="#DejaVuSans-32"/>
      </g>
     </g>
    </g>
    <g id="ytick_3">
     <g id="line2d_3">
      <path d="M 46.31125 184.797491 
L 492.71125 184.797491 
" clip-path="url(#p0cc103c691)" style="fill: none; stroke: #cccccc; stroke-linecap: round"/>
     </g>
     <g id="text_7">
      <!-- 4 -->
      <g style="fill: #262626" transform="translate(29.8125 188.976631) scale(0.11 -0.11)">
       <defs>
        <path id="DejaVuSans-34" d="M 2419 4116 
L 825 1625 
L 2419 1625 
L 2419 4116 
z
M 2253 4666 
L 3047 4666 
L 3047 1625 
L 3713 1625 
L 3713 1100 
L 3047 1100 
L 3047 0 
L 2419 0 
L 2419 1100 
L 313 1100 
L 313 1709 
L 2253 4666 
z
" transform="scale(0.015625)"/>
       </defs>
       <use xlink:href="#DejaVuSans-34"/>
      </g>
     </g>
    </g>
    <g id="ytick_4">
     <g id="line2d_4">
      <path d="M 46.31125 142.207627 
L 492.71125 142.207627 
" clip-path="url(#p0cc103c691)" style="fill: none; stroke: #cccccc; stroke-linecap: round"/>
     </g>
     <g id="text_8">
      <!-- 6 -->
      <g style="fill: #262626" transform="translate(29.8125 146.386768) scale(0.11 -0.11)">
       <defs>
        <path id="DejaVuSans-36" d="M 2113 2584 
Q 1688 2584 1439 2293 
Q 1191 2003 1191 1497 
Q 1191 994 1439 701 
Q 1688 409 2113 409 
Q 2538 409 2786 701 
Q 3034 994 3034 1497 
Q 3034 2003 2786 2293 
Q 2538 2584 2113 2584 
z
M 3366 4563 
L 3366 3988 
Q 3128 4100 2886 4159 
Q 2644 4219 2406 4219 
Q 1781 4219 1451 3797 
Q 1122 3375 1075 2522 
Q 1259 2794 1537 2939 
Q 1816 3084 2150 3084 
Q 2853 3084 3261 2657 
Q 3669 2231 3669 1497 
Q 3669 778 3244 343 
Q 2819 -91 2113 -91 
Q 1303 -91 875 529 
Q 447 1150 447 2328 
Q 447 3434 972 4092 
Q 1497 4750 2381 4750 
Q 2619 4750 2861 4703 
Q 3103 4656 3366 4563 
z
" transform="scale(0.015625)"/>
       </defs>
       <use xlink:href="#DejaVuSans-36"/>
      </g>
     </g>
    </g>
    <g id="ytick_5">
     <g id="line2d_5">
      <path d="M 46.31125 99.617764 
L 492.71125 99.617764 
" clip-path="url(#p0cc103c691)" style="fill: none; stroke: #cccccc; stroke-linecap: round"/>
     </g>
     <g id="text_9">
      <!-- 8 -->
      <g style="fill: #262626" transform="translate(29.8125 103.796905) scale(0.11 -0.11)">
       <defs>
        <path id="DejaVuSans-38" d="M 2034 2216 
Q 1584 2216 1326 1975 
Q 1069 1734 1069 1313 
Q 1069 891 1326 650 
Q 1584 409 2034 409 
Q 2484 409 2743 651 
Q 3003 894 3003 1313 
Q 3003 1734 2745 1975 
Q 2488 2216 2034 2216 
z
M 1403 2484 
Q 997 2584 770 2862 
Q 544 3141 544 3541 
Q 544 4100 942 4425 
Q 1341 4750 2034 4750 
Q 2731 4750 3128 4425 
Q 3525 4100 3525 3541 
Q 3525 3141 3298 2862 
Q 3072 2584 2669 2484 
Q 3125 2378 3379 2068 
Q 3634 1759 3634 1313 
Q 3634 634 3220 271 
Q 2806 -91 2034 -91 
Q 1263 -91 848 271 
Q 434 634 434 1313 
Q 434 1759 690 2068 
Q 947 2378 1403 2484 
z
M 1172 3481 
Q 1172 3119 1398 2916 
Q 1625 2713 2034 2713 
Q 2441 2713 2670 2916 
Q 2900 3119 2900 3481 
Q 2900 3844 2670 4047 
Q 2441 4250 2034 4250 
Q 1625 4250 1398 4047 
Q 1172 3844 1172 3481 
z
" transform="scale(0.015625)"/>
       </defs>
       <use xlink:href="#DejaVuSans-38"/>
      </g>
     </g>
    </g>
    <g id="ytick_6">
     <g id="line2d_6">
      <path d="M 46.31125 57.027901 
L 492.71125 57.027901 
" clip-path="url(#p0cc103c691)" style="fill: none; stroke: #cccccc; stroke-linecap: round"/>
     </g>
     <g id="text_10">
      <!-- 10 -->
      <g style="fill: #262626" transform="translate(22.81375 61.207041) scale(0.11 -0.11)">
       <defs>
        <path id="DejaVuSans-31" d="M 794 531 
L 1825 531 
L 1825 4091 
L 703 3866 
L 703 4441 
L 1819 4666 
L 2450 4666 
L 2450 531 
L 3481 531 
L 3481 0 
L 794 0 
L 794 531 
z
" transform="scale(0.015625)"/>
       </defs>
       <use xlink:href="#DejaVuSans-31"/>
       <use xlink:href="#DejaVuSans-30" transform="translate(63.623047 0)"/>
      </g>
     </g>
    </g>
    <g id="text_11">
     <!-- Mortality Rate (%) -->
     <g style="fill: #262626" transform="translate(16.318125 216.970312) rotate(-90) scale(0.12 -0.12)">
      <defs>
       <path id="DejaVuSans-4d" d="M 628 4666 
L 1569 4666 
L 2759 1491 
L 3956 4666 
L 4897 4666 
L 4897 0 
L 4281 0 
L 4281 4097 
L 3078 897 
L 2444 897 
L 1241 4097 
L 1241 0 
L 628 0 
L 628 4666 
z
" transform="scale(0.015625)"/>
       <path id="DejaVuSans-79" d="M 2059 -325 
Q 1816 -950 1584 -1140 
Q 1353 -1331 966 -1331 
L 506 -1331 
L 506 -850 
L 844 -850 
Q 1081 -850 1212 -737 
Q 1344 -625 1503 -206 
L 1606 56 
L 191 3500 
L 800 3500 
L 1894 763 
L 2988 3500 
L 3597 3500 
L 2059 -325 
z
" transform="scale(0.015625)"/>
       <path id="DejaVuSans-28" d="M 1984 4856 
Q 1566 4138 1362 3434 
Q 1159 2731 1159 2009 
Q 1159 1288 1364 580 
Q 1569 -128 1984 -844 
L 1484 -844 
Q 1016 -109 783 600 
Q 550 1309 550 2009 
Q 550 2706 781 3412 
Q 1013 4119 1484 4856 
L 1984 4856 
z
" transform="scale(0.015625)"/>
       <path id="DejaVuSans-25" d="M 4653 2053 
Q 4381 2053 4226 1822 
Q 4072 1591 4072 1178 
Q 4072 772 4226 539 
Q 4381 306 4653 306 
Q 4919 306 5073 539 
Q 5228 772 5228 1178 
Q 5228 1588 5073 1820 
Q 4919 2053 4653 2053 
z
M 4653 2450 
Q 5147 2450 5437 2106 
Q 5728 1763 5728 1178 
Q 5728 594 5436 251 
Q 5144 -91 4653 -91 
Q 4153 -91 3862 251 
Q 3572 594 3572 1178 
Q 3572 1766 3864 2108 
Q 4156 2450 4653 2450 
z
M 1428 4353 
Q 1159 4353 1004 4120 
Q 850 3888 850 3481 
Q 850 3069 1003 2837 
Q 1156 2606 1428 2606 
Q 1700 2606 1854 2837 
Q 2009 3069 2009 3481 
Q 2009 3884 1853 4118 
Q 1697 4353 1428 4353 
z
M 4250 4750 
L 4750 4750 
L 1831 -91 
L 1331 -91 
L 4250 4750 
z
M 1428 4750 
Q 1922 4750 2215 4408 
Q 2509 4066 2509 3481 
Q 2509 2891 2217 2550 
Q 1925 2209 1428 2209 
Q 931 2209 642 2551 
Q 353 2894 353 3481 
Q 353 4063 643 4406 
Q 934 4750 1428 4750 
z
" transform="scale(0.015625)"/>
       <path id="DejaVuSans-29" d="M 513 4856 
L 1013 4856 
Q 1481 4119 1714 3412 
Q 1947 2706 1947 2009 
Q 1947 1309 1714 600 
Q 1481 -109 1013 -844 
L 513 -844 
Q 928 -128 1133 580 
Q 1338 1288 1338 2009 
Q 1338 2731 1133 3434 
Q 928 4138 513 4856 
z
" transform="scale(0.015625)"/>
      </defs>
      <use xlink:href="#DejaVuSans-4d"/>
      <use xlink:href="#DejaVuSans-6f" transform="translate(86.279297 0)"/>
      <use xlink:href="#DejaVuSans-72" transform="translate(147.460938 0)"/>
      <use xlink:href="#DejaVuSans-74" transform="translate(188.574219 0)"/>
      <use xlink:href="#DejaVuSans-61" transform="translate(227.783203 0)"/>
      <use xlink:href="#DejaVuSans-6c" transform="translate(289.0625 0)"/>
      <use xlink:href="#DejaVuSans-69" transform="translate(316.845703 0)"/>
      <use xlink:href="#DejaVuSans-74" transform="translate(344.628906 0)"/>
      <use xlink:href="#DejaVuSans-79" transform="translate(383.837891 0)"/>
      <use xlink:href="#DejaVuSans-20" transform="translate(443.017578 0)"/>
      <use xlink:href="#DejaVuSans-52" transform="translate(474.804688 0)"/>
      <use xlink:href="#DejaVuSans-61" transform="translate(542.037109 0)"/>
      <use xlink:href="#DejaVuSans-74" transform="translate(603.316406 0)"/>
      <use xlink:href="#DejaVuSans-65" transform="translate(642.525391 0)"/>
      <use xlink:href="#DejaVuSans-20" transform="translate(704.048828 0)"/>
      <use xlink:href="#DejaVuSans-28" transform="translate(735.835938 0)"/>
      <use xlink:href="#DejaVuSans-25" transform="translate(774.849609 0)"/>
      <use xlink:href="#DejaVuSans-29" transform="translate(869.869141 0)"/>
     </g>
    </g>
   </g>
   <g id="FillBetweenPolyCollection_1">
    <defs>
     <path id="m41b8b9e00f" d="M 121.975496 -55.559687 
L 119.447004 -55.559687 
L 118.492412 -58.105142 
L 117.017325 -60.650597 
L 114.870943 -63.196051 
L 111.92969 -65.741506 
L 108.133611 -68.28696 
L 103.518876 -70.832415 
L 98.234729 -73.377869 
L 92.535894 -75.923324 
L 86.748551 -78.468778 
L 81.217031 -81.014233 
L 76.245345 -83.559687 
L 72.049516 -86.105142 
L 68.732544 -88.650597 
L 66.285909 -91.196051 
L 64.613152 -93.741506 
L 63.565646 -96.28696 
L 62.979407 -98.832415 
L 62.704196 -101.377869 
L 62.620382 -103.923324 
L 62.643323 -106.468778 
L 62.71808 -109.014233 
L 62.808921 -111.559687 
L 62.888378 -114.105142 
L 62.929923 -116.650597 
L 62.906786 -119.196051 
L 62.797026 -121.741506 
L 62.592237 -124.28696 
L 62.305216 -126.832415 
L 61.971791 -129.377869 
L 61.644396 -131.923324 
L 61.37895 -134.468778 
L 61.220157 -137.014233 
L 61.19125 -139.559687 
L 61.29194 -142.105142 
L 61.504162 -144.650597 
L 61.801611 -147.196051 
L 62.157973 -149.741506 
L 62.550421 -152.28696 
L 62.958183 -154.832415 
L 63.358694 -157.377869 
L 63.724897 -159.923324 
L 64.026232 -162.468778 
L 64.233695 -165.014233 
L 64.327115 -167.559687 
L 64.301534 -170.105142 
L 64.169825 -172.650597 
L 63.960185 -175.196051 
L 63.709272 -177.741506 
L 63.453494 -180.28696 
L 63.221617 -182.832415 
L 63.031143 -185.377869 
L 62.889188 -187.923324 
L 62.796636 -190.468778 
L 62.752962 -193.014233 
L 62.758914 -195.559688 
L 62.815429 -198.105142 
L 62.919273 -200.650597 
L 63.058033 -203.196051 
L 63.208057 -205.741506 
L 63.337948 -208.28696 
L 63.417506 -210.832415 
L 63.428814 -213.377869 
L 63.374385 -215.923324 
L 63.278081 -218.468778 
L 63.177734 -221.014233 
L 63.112427 -223.559688 
L 63.110003 -226.105142 
L 63.180151 -228.650597 
L 63.315554 -231.196051 
L 63.499576 -233.741506 
L 63.716061 -236.28696 
L 63.956345 -238.832415 
L 64.220561 -241.377869 
L 64.513526 -243.923324 
L 64.838062 -246.468778 
L 65.189517 -249.014233 
L 65.554308 -251.559688 
L 65.913455 -254.105142 
L 66.250415 -256.650597 
L 66.561672 -259.196051 
L 66.868389 -261.741506 
L 67.227222 -264.28696 
L 67.737682 -266.832415 
L 68.542206 -269.377869 
L 69.814636 -271.923324 
L 71.73435 -274.468778 
L 74.447654 -277.014233 
L 78.0242 -279.559687 
L 82.421375 -282.105142 
L 87.470506 -284.650597 
L 92.893545 -287.196051 
L 98.348897 -289.741506 
L 103.494316 -292.28696 
L 108.048416 -294.832415 
L 111.833304 -297.377869 
L 114.788539 -299.923324 
L 116.957191 -302.468778 
L 118.453347 -305.014233 
L 119.423976 -307.559688 
L 121.998524 -307.559688 
L 121.998524 -307.559688 
L 122.969153 -305.014233 
L 124.465309 -302.468778 
L 126.633961 -299.923324 
L 129.589196 -297.377869 
L 133.374084 -294.832415 
L 137.928184 -292.28696 
L 143.073603 -289.741506 
L 148.528955 -287.196051 
L 153.951994 -284.650597 
L 159.001125 -282.105142 
L 163.3983 -279.559687 
L 166.974846 -277.014233 
L 169.68815 -274.468778 
L 171.607864 -271.923324 
L 172.880294 -269.377869 
L 173.684818 -266.832415 
L 174.195278 -264.28696 
L 174.554111 -261.741506 
L 174.860828 -259.196051 
L 175.172085 -256.650597 
L 175.509045 -254.105142 
L 175.868192 -251.559688 
L 176.232983 -249.014233 
L 176.584438 -246.468778 
L 176.908974 -243.923324 
L 177.201939 -241.377869 
L 177.466155 -238.832415 
L 177.706439 -236.28696 
L 177.922924 -233.741506 
L 178.106946 -231.196051 
L 178.242349 -228.650597 
L 178.312497 -226.105142 
L 178.310073 -223.559688 
L 178.244766 -221.014233 
L 178.144419 -218.468778 
L 178.048115 -215.923324 
L 177.993686 -213.377869 
L 178.004994 -210.832415 
L 178.084552 -208.28696 
L 178.214443 -205.741506 
L 178.364467 -203.196051 
L 178.503227 -200.650597 
L 178.607071 -198.105142 
L 178.663586 -195.559688 
L 178.669538 -193.014233 
L 178.625864 -190.468778 
L 178.533312 -187.923324 
L 178.391357 -185.377869 
L 178.200883 -182.832415 
L 177.969006 -180.28696 
L 177.713228 -177.741506 
L 177.462315 -175.196051 
L 177.252675 -172.650597 
L 177.120966 -170.105142 
L 177.095385 -167.559687 
L 177.188805 -165.014233 
L 177.396268 -162.468778 
L 177.697603 -159.923324 
L 178.063806 -157.377869 
L 178.464317 -154.832415 
L 178.872079 -152.28696 
L 179.264527 -149.741506 
L 179.620889 -147.196051 
L 179.918338 -144.650597 
L 180.13056 -142.105142 
L 180.23125 -139.559687 
L 180.202343 -137.014233 
L 180.04355 -134.468778 
L 179.778104 -131.923324 
L 179.450709 -129.377869 
L 179.117284 -126.832415 
L 178.830263 -124.28696 
L 178.625474 -121.741506 
L 178.515714 -119.196051 
L 178.492577 -116.650597 
L 178.534122 -114.105142 
L 178.613579 -111.559687 
L 178.70442 -109.014233 
L 178.779177 -106.468778 
L 178.802118 -103.923324 
L 178.718304 -101.377869 
L 178.443093 -98.832415 
L 177.856854 -96.28696 
L 176.809348 -93.741506 
L 175.136591 -91.196051 
L 172.689956 -88.650597 
L 169.372984 -86.105142 
L 165.177155 -83.559687 
L 160.205469 -81.014233 
L 154.673949 -78.468778 
L 148.886606 -75.923324 
L 143.187771 -73.377869 
L 137.903624 -70.832415 
L 133.288889 -68.28696 
L 129.49281 -65.741506 
L 126.551557 -63.196051 
L 124.405175 -60.650597 
L 122.930088 -58.105142 
L 121.975496 -55.559687 
z
" style="stroke: #4b4b4b; stroke-width: 1.25"/>
    </defs>
    <g clip-path="url(#p0cc103c691)">
     <use xlink:href="#m41b8b9e00f" x="0" y="343.9975" style="fill: #42b874; stroke: #4b4b4b; stroke-width: 1.25"/>
    </g>
   </g>
   <g id="FillBetweenPolyCollection_2">
    <defs>
     <path id="m91dc6c4a91" d="M 270.83513 -60.505644 
L 268.18737 -60.505644 
L 266.849322 -62.95118 
L 264.592465 -65.396716 
L 261.136812 -67.842253 
L 256.332179 -70.287789 
L 250.263781 -72.733325 
L 243.296591 -75.178861 
L 236.017817 -77.624398 
L 229.087432 -80.069934 
L 223.059833 -82.51547 
L 218.256884 -84.961006 
L 214.740613 -87.406543 
L 212.377084 -89.852079 
L 210.941007 -92.297615 
L 210.206107 -94.743151 
L 209.99125 -97.188687 
L 210.163095 -99.634224 
L 210.614627 -102.07976 
L 211.241593 -104.525296 
L 211.931513 -106.970832 
L 212.569464 -109.416369 
L 213.055692 -111.861905 
L 213.325019 -114.307441 
L 213.358138 -116.752977 
L 213.179581 -119.198514 
L 212.843806 -121.64405 
L 212.416049 -124.089586 
L 211.956224 -126.535122 
L 211.511571 -128.980659 
L 211.118189 -131.426195 
L 210.805939 -133.871731 
L 210.599106 -136.317267 
L 210.509192 -138.762803 
L 210.524272 -141.20834 
L 210.605107 -143.653876 
L 210.695612 -146.099412 
L 210.745144 -148.544948 
L 210.730551 -150.990485 
L 210.66513 -153.436021 
L 210.589855 -155.881557 
L 210.552712 -158.327093 
L 210.587406 -160.77263 
L 210.701256 -163.218166 
L 210.876259 -165.663702 
L 211.080527 -168.109238 
L 211.282496 -170.554774 
L 211.459906 -173.000311 
L 211.60033 -175.445847 
L 211.69678 -177.891383 
L 211.745209 -180.336919 
L 211.747513 -182.782456 
L 211.716905 -185.227992 
L 211.678879 -187.673528 
L 211.664009 -190.119064 
L 211.695781 -192.564601 
L 211.780932 -195.010137 
L 211.907847 -197.455673 
L 212.052585 -199.901209 
L 212.187545 -202.346745 
L 212.28785 -204.792282 
L 212.33415 -207.237818 
L 212.313802 -209.683354 
L 212.22255 -212.12889 
L 212.06652 -214.574427 
L 211.86248 -217.019963 
L 211.634863 -219.465499 
L 211.410059 -221.911035 
L 211.21 -224.356572 
L 211.047134 -226.802108 
L 210.922461 -229.247644 
L 210.827675 -231.69318 
L 210.751204 -234.138716 
L 210.685552 -236.584253 
L 210.631578 -239.029789 
L 210.596551 -241.475325 
L 210.587496 -243.920861 
L 210.605513 -246.366398 
L 210.646163 -248.811934 
L 210.705219 -251.25747 
L 210.78382 -253.703006 
L 210.887964 -256.148543 
L 211.023823 -258.594079 
L 211.196027 -261.039615 
L 211.415309 -263.485151 
L 211.716079 -265.930688 
L 212.179092 -268.376224 
L 212.951986 -270.82176 
L 214.258065 -273.267296 
L 216.379224 -275.712832 
L 219.598296 -278.158369 
L 224.100008 -280.603905 
L 229.859459 -283.049441 
L 236.57404 -285.494977 
L 243.691409 -287.940514 
L 250.542249 -290.38605 
L 256.526517 -292.831586 
L 261.26885 -295.277122 
L 264.677982 -297.722659 
L 266.901131 -300.168195 
L 268.216327 -302.613731 
L 270.806173 -302.613731 
L 270.806173 -302.613731 
L 272.121369 -300.168195 
L 274.344518 -297.722659 
L 277.75365 -295.277122 
L 282.495983 -292.831586 
L 288.480251 -290.38605 
L 295.331091 -287.940514 
L 302.44846 -285.494977 
L 309.163041 -283.049441 
L 314.922492 -280.603905 
L 319.424204 -278.158369 
L 322.643276 -275.712832 
L 324.764435 -273.267296 
L 326.070514 -270.82176 
L 326.843408 -268.376224 
L 327.306421 -265.930688 
L 327.607191 -263.485151 
L 327.826473 -261.039615 
L 327.998677 -258.594079 
L 328.134536 -256.148543 
L 328.23868 -253.703006 
L 328.317281 -251.25747 
L 328.376337 -248.811934 
L 328.416987 -246.366398 
L 328.435004 -243.920861 
L 328.425949 -241.475325 
L 328.390922 -239.029789 
L 328.336948 -236.584253 
L 328.271296 -234.138716 
L 328.194825 -231.69318 
L 328.100039 -229.247644 
L 327.975366 -226.802108 
L 327.8125 -224.356572 
L 327.612441 -221.911035 
L 327.387637 -219.465499 
L 327.16002 -217.019963 
L 326.95598 -214.574427 
L 326.79995 -212.12889 
L 326.708698 -209.683354 
L 326.68835 -207.237818 
L 326.73465 -204.792282 
L 326.834955 -202.346745 
L 326.969915 -199.901209 
L 327.114653 -197.455673 
L 327.241568 -195.010137 
L 327.326719 -192.564601 
L 327.358491 -190.119064 
L 327.343621 -187.673528 
L 327.305595 -185.227992 
L 327.274987 -182.782456 
L 327.277291 -180.336919 
L 327.32572 -177.891383 
L 327.42217 -175.445847 
L 327.562594 -173.000311 
L 327.740004 -170.554774 
L 327.941973 -168.109238 
L 328.146241 -165.663702 
L 328.321244 -163.218166 
L 328.435094 -160.77263 
L 328.469788 -158.327093 
L 328.432645 -155.881557 
L 328.35737 -153.436021 
L 328.291949 -150.990485 
L 328.277356 -148.544948 
L 328.326888 -146.099412 
L 328.417393 -143.653876 
L 328.498228 -141.20834 
L 328.513308 -138.762803 
L 328.423394 -136.317267 
L 328.216561 -133.871731 
L 327.904311 -131.426195 
L 327.510929 -128.980659 
L 327.066276 -126.535122 
L 326.606451 -124.089586 
L 326.178694 -121.64405 
L 325.842919 -119.198514 
L 325.664362 -116.752977 
L 325.697481 -114.307441 
L 325.966808 -111.861905 
L 326.453036 -109.416369 
L 327.090987 -106.970832 
L 327.780907 -104.525296 
L 328.407873 -102.07976 
L 328.859405 -99.634224 
L 329.03125 -97.188687 
L 328.816393 -94.743151 
L 328.081493 -92.297615 
L 326.645416 -89.852079 
L 324.281887 -87.406543 
L 320.765616 -84.961006 
L 315.962667 -82.51547 
L 309.935068 -80.069934 
L 303.004683 -77.624398 
L 295.725909 -75.178861 
L 288.758719 -72.733325 
L 282.690321 -70.287789 
L 277.885688 -67.842253 
L 274.430035 -65.396716 
L 272.173178 -62.95118 
L 270.83513 -60.505644 
z
" style="stroke: #4b4b4b; stroke-width: 1.25"/>
    </defs>
    <g clip-path="url(#p0cc103c691)">
     <use xlink:href="#m91dc6c4a91" x="0" y="343.9975" style="fill: #d7962e; stroke: #4b4b4b; stroke-width: 1.25"/>
    </g>
   </g>
   <g id="FillBetweenPolyCollection_3">
    <defs>
     <path id="m9a5afa8274" d="M 419.554281 -58.287553 
L 417.068219 -58.287553 
L 415.976314 -60.777899 
L 414.210883 -63.268245 
L 411.568125 -65.758592 
L 407.905403 -68.248938 
L 403.205632 -70.739284 
L 397.623025 -73.22963 
L 391.485425 -75.719976 
L 385.242448 -78.210322 
L 379.371509 -80.700668 
L 374.273274 -83.191015 
L 370.192917 -85.681361 
L 367.191033 -88.171707 
L 365.166049 -90.662053 
L 363.910896 -93.152399 
L 363.179232 -95.642745 
L 362.74105 -98.133092 
L 362.417933 -100.623438 
L 362.097732 -103.113784 
L 361.733122 -105.60413 
L 361.32912 -108.094476 
L 360.923809 -110.584822 
L 360.566334 -113.075168 
L 360.296865 -115.565515 
L 360.133239 -118.055861 
L 360.067375 -120.546207 
L 360.071323 -123.036553 
L 360.109496 -125.526899 
L 360.151779 -128.017245 
L 360.182587 -130.507591 
L 360.203338 -132.997938 
L 360.228852 -135.488284 
L 360.280399 -137.97863 
L 360.378366 -140.468976 
L 360.536092 -142.959322 
L 360.754736 -145.449668 
L 361.018672 -147.940014 
L 361.292361 -150.430361 
L 361.521565 -152.920707 
L 361.642006 -155.411053 
L 361.595919 -157.901399 
L 361.35238 -160.391745 
L 360.923522 -162.882091 
L 360.368695 -165.372438 
L 359.782831 -167.862784 
L 359.272067 -170.35313 
L 358.925232 -172.843476 
L 358.79125 -175.333822 
L 358.869254 -177.824168 
L 359.112485 -180.314514 
L 359.442436 -182.804861 
L 359.768179 -185.295207 
L 360.006981 -187.785553 
L 360.103472 -190.275899 
L 360.044122 -192.766245 
L 359.862306 -195.256591 
L 359.629754 -197.746937 
L 359.434665 -200.237284 
L 359.353557 -202.72763 
L 359.428274 -205.217976 
L 359.657555 -207.708322 
L 360.004692 -210.198668 
L 360.414388 -212.689014 
L 360.828678 -215.179361 
L 361.195459 -217.669707 
L 361.470273 -220.160053 
L 361.61686 -222.650399 
L 361.611313 -225.140745 
L 361.449771 -227.631091 
L 361.154692 -230.121437 
L 360.773811 -232.611784 
L 360.369507 -235.10213 
L 360.001965 -237.592476 
L 359.713257 -240.082822 
L 359.519181 -242.573168 
L 359.411641 -245.063514 
L 359.36929 -247.55386 
L 359.370744 -250.044207 
L 359.404531 -252.534553 
L 359.472672 -255.024899 
L 359.588859 -257.515245 
L 359.775575 -260.005591 
L 360.065361 -262.495937 
L 360.509238 -264.986283 
L 361.190652 -267.47663 
L 362.238039 -269.966976 
L 363.825581 -272.457322 
L 366.15228 -274.947668 
L 369.395831 -277.438014 
L 373.649319 -279.92836 
L 378.861271 -282.418707 
L 384.805801 -284.909053 
L 391.103118 -287.399399 
L 397.291496 -289.889745 
L 402.928712 -292.380091 
L 407.686709 -294.870437 
L 411.406591 -297.360783 
L 414.099947 -299.85113 
L 415.905697 -302.341476 
L 417.02662 -304.831822 
L 419.59588 -304.831822 
L 419.59588 -304.831822 
L 420.716803 -302.341476 
L 422.522553 -299.85113 
L 425.215909 -297.360783 
L 428.935791 -294.870437 
L 433.693788 -292.380091 
L 439.331004 -289.889745 
L 445.519382 -287.399399 
L 451.816699 -284.909053 
L 457.761229 -282.418707 
L 462.973181 -279.92836 
L 467.226669 -277.438014 
L 470.47022 -274.947668 
L 472.796919 -272.457322 
L 474.384461 -269.966976 
L 475.431848 -267.47663 
L 476.113262 -264.986283 
L 476.557139 -262.495937 
L 476.846925 -260.005591 
L 477.033641 -257.515245 
L 477.149828 -255.024899 
L 477.217969 -252.534553 
L 477.251756 -250.044207 
L 477.25321 -247.55386 
L 477.210859 -245.063514 
L 477.103319 -242.573168 
L 476.909243 -240.082822 
L 476.620535 -237.592476 
L 476.252993 -235.10213 
L 475.848689 -232.611784 
L 475.467808 -230.121437 
L 475.172729 -227.631091 
L 475.011187 -225.140745 
L 475.00564 -222.650399 
L 475.152227 -220.160053 
L 475.427041 -217.669707 
L 475.793822 -215.179361 
L 476.208112 -212.689014 
L 476.617808 -210.198668 
L 476.964945 -207.708322 
L 477.194226 -205.217976 
L 477.268943 -202.72763 
L 477.187835 -200.237284 
L 476.992746 -197.746937 
L 476.760194 -195.256591 
L 476.578378 -192.766245 
L 476.519028 -190.275899 
L 476.615519 -187.785553 
L 476.854321 -185.295207 
L 477.180064 -182.804861 
L 477.510015 -180.314514 
L 477.753246 -177.824168 
L 477.83125 -175.333822 
L 477.697268 -172.843476 
L 477.350433 -170.35313 
L 476.839669 -167.862784 
L 476.253805 -165.372438 
L 475.698978 -162.882091 
L 475.27012 -160.391745 
L 475.026581 -157.901399 
L 474.980494 -155.411053 
L 475.100935 -152.920707 
L 475.330139 -150.430361 
L 475.603828 -147.940014 
L 475.867764 -145.449668 
L 476.086408 -142.959322 
L 476.244134 -140.468976 
L 476.342101 -137.97863 
L 476.393648 -135.488284 
L 476.419162 -132.997938 
L 476.439913 -130.507591 
L 476.470721 -128.017245 
L 476.513004 -125.526899 
L 476.551177 -123.036553 
L 476.555125 -120.546207 
L 476.489261 -118.055861 
L 476.325635 -115.565515 
L 476.056166 -113.075168 
L 475.698691 -110.584822 
L 475.29338 -108.094476 
L 474.889378 -105.60413 
L 474.524768 -103.113784 
L 474.204567 -100.623438 
L 473.88145 -98.133092 
L 473.443268 -95.642745 
L 472.711604 -93.152399 
L 471.456451 -90.662053 
L 469.431467 -88.171707 
L 466.429583 -85.681361 
L 462.349226 -83.191015 
L 457.250991 -80.700668 
L 451.380052 -78.210322 
L 445.137075 -75.719976 
L 438.999475 -73.22963 
L 433.416868 -70.739284 
L 428.717097 -68.248938 
L 425.054375 -65.758592 
L 422.411617 -63.268245 
L 420.646186 -60.777899 
L 419.554281 -58.287553 
z
" style="stroke: #4b4b4b; stroke-width: 1.25"/>
    </defs>
    <g clip-path="url(#p0cc103c691)">
     <use xlink:href="#m9a5afa8274" x="0" y="343.9975" style="fill: #d25d51; stroke: #4b4b4b; stroke-width: 1.25"/>
    </g>
   </g>
   <g id="line2d_7">
    <path d="M 120.71125 267.847724 
L 120.71125 57.027901 
" clip-path="url(#p0cc103c691)" style="fill: none; stroke: #4b4b4b; stroke-width: 1.875; stroke-linecap: round"/>
   </g>
   <g id="line2d_8">
    <path d="M 120.71125 215.249243 
L 120.71125 111.542926 
" clip-path="url(#p0cc103c691)" style="fill: none; stroke: #4b4b4b; stroke-width: 5.625; stroke-linecap: round"/>
   </g>
   <g id="line2d_9">
    <path d="M 120.71125 163.715508 
" clip-path="url(#p0cc103c691)" style="fill: none; stroke: #4b4b4b; stroke-width: 1.5; stroke-linecap: round"/>
    <defs>
     <path id="m4c65e12ffd" d="M 2.34375 0 
L -2.34375 -0 
" style="stroke: #ffffff; stroke-width: 1.125"/>
    </defs>
    <g clip-path="url(#p0cc103c691)">
     <use xlink:href="#m4c65e12ffd" x="120.71125" y="163.715508" style="fill: #ffffff; stroke: #ffffff; stroke-width: 1.125"/>
    </g>
   </g>
   <g id="line2d_10">
    <path d="M 269.51125 267.847724 
L 269.51125 57.027901 
" clip-path="url(#p0cc103c691)" style="fill: none; stroke: #4b4b4b; stroke-width: 1.875; stroke-linecap: round"/>
   </g>
   <g id="line2d_11">
    <path d="M 269.51125 215.036294 
L 269.51125 109.626382 
" clip-path="url(#p0cc103c691)" style="fill: none; stroke: #4b4b4b; stroke-width: 5.625; stroke-linecap: round"/>
   </g>
   <g id="line2d_12">
    <path d="M 269.51125 162.863711 
" clip-path="url(#p0cc103c691)" style="fill: none; stroke: #4b4b4b; stroke-width: 1.5; stroke-linecap: round"/>
    <g clip-path="url(#p0cc103c691)">
     <use xlink:href="#m4c65e12ffd" x="269.51125" y="162.863711" style="fill: #ffffff; stroke: #ffffff; stroke-width: 1.125"/>
    </g>
   </g>
   <g id="line2d_13">
    <path d="M 418.31125 267.847724 
L 418.31125 57.027901 
" clip-path="url(#p0cc103c691)" style="fill: none; stroke: #4b4b4b; stroke-width: 1.875; stroke-linecap: round"/>
   </g>
   <g id="line2d_14">
    <path d="M 418.31125 214.397446 
L 418.31125 109.200483 
" clip-path="url(#p0cc103c691)" style="fill: none; stroke: #4b4b4b; stroke-width: 5.625; stroke-linecap: round"/>
   </g>
   <g id="line2d_15">
    <path d="M 418.31125 162.011914 
" clip-path="url(#p0cc103c691)" style="fill: none; stroke: #4b4b4b; stroke-width: 1.5; stroke-linecap: round"/>
    <g clip-path="url(#p0cc103c691)">
     <use xlink:href="#m4c65e12ffd" x="418.31125" y="162.011914" style="fill: #ffffff; stroke: #ffffff; stroke-width: 1.125"/>
    </g>
   </g>
   <g id="patch_3">
    <path d="M 46.31125 301.037813 
L 46.31125 23.837812 
" style="fill: none; stroke: #cccccc; stroke-width: 1.25; stroke-linejoin: miter; stroke-linecap: square"/>
   </g>
   <g id="patch_4">
    <path d="M 492.71125 301.037813 
L 492.71125 23.837812 
" style="fill: none; stroke: #cccccc; stroke-width: 1.25; stroke-linejoin: miter; stroke-linecap: square"/>
   </g>
   <g id="patch_5">
    <path d="M 46.31125 301.037812 
L 492.71125 301.037812 
" style="fill: none; stroke: #cccccc; stroke-width: 1.25; stroke-linejoin: miter; stroke-linecap: square"/>
   </g>
   <g id="patch_6">
    <path d="M 46.31125 23.837812 
L 492.71125 23.837812 
" style="fill: none; stroke: #cccccc; stroke-width: 1.25; stroke-linejoin: miter; stroke-linecap: square"/>
   </g>
   <g id="text_12">
    <!-- Q1: Mortality Distribution by Urbanization Tier -->
    <g style="fill: #262626" transform="translate(107.957812 17.837812) scale(0.14 -0.14)">
     <defs>
      <path id="DejaVuSans-51" d="M 2522 4238 
Q 1834 4238 1429 3725 
Q 1025 3213 1025 2328 
Q 1025 1447 1429 934 
Q 1834 422 2522 422 
Q 3209 422 3611 934 
Q 4013 1447 4013 2328 
Q 4013 3213 3611 3725 
Q 3209 4238 2522 4238 
z
M 3406 84 
L 4238 -825 
L 3475 -825 
L 2784 -78 
Q 2681 -84 2626 -87 
Q 2572 -91 2522 -91 
Q 1538 -91 948 567 
Q 359 1225 359 2328 
Q 359 3434 948 4092 
Q 1538 4750 2522 4750 
Q 3503 4750 4090 4092 
Q 4678 3434 4678 2328 
Q 4678 1516 4351 937 
Q 4025 359 3406 84 
z
" transform="scale(0.015625)"/>
      <path id="DejaVuSans-3a" d="M 750 794 
L 1409 794 
L 1409 0 
L 750 0 
L 750 794 
z
M 750 3309 
L 1409 3309 
L 1409 2516 
L 750 2516 
L 750 3309 
z
" transform="scale(0.015625)"/>
      <path id="DejaVuSans-44" d="M 1259 4147 
L 1259 519 
L 2022 519 
Q 2988 519 3436 956 
Q 3884 1394 3884 2338 
Q 3884 3275 3436 3711 
Q 2988 4147 2022 4147 
L 1259 4147 
z
M 628 4666 
L 1925 4666 
Q 3281 4666 3915 4102 
Q 4550 3538 4550 2338 
Q 4550 1131 3912 565 
Q 3275 0 1925 0 
L 628 0 
L 628 4666 
z
" transform="scale(0.015625)"/>
      <path id="DejaVuSans-73" d="M 2834 3397 
L 2834 2853 
Q 2591 2978 2328 3040 
Q 2066 3103 1784 3103 
Q 1356 3103 1142 2972 
Q 928 2841 928 2578 
Q 928 2378 1081 2264 
Q 1234 2150 1697 2047 
L 1894 2003 
Q 2506 1872 2764 1633 
Q 3022 1394 3022 966 
Q 3022 478 2636 193 
Q 2250 -91 1575 -91 
Q 1294 -91 989 -36 
Q 684 19 347 128 
L 347 722 
Q 666 556 975 473 
Q 1284 391 1588 391 
Q 1994 391 2212 530 
Q 2431 669 2431 922 
Q 2431 1156 2273 1281 
Q 2116 1406 1581 1522 
L 1381 1569 
Q 847 1681 609 1914 
Q 372 2147 372 2553 
Q 372 3047 722 3315 
Q 1072 3584 1716 3584 
Q 2034 3584 2315 3537 
Q 2597 3491 2834 3397 
z
" transform="scale(0.015625)"/>
     </defs>
     <use xlink:href="#DejaVuSans-51"/>
     <use xlink:href="#DejaVuSans-31" transform="translate(78.710938 0)"/>
     <use xlink:href="#DejaVuSans-3a" transform="translate(142.333984 0)"/>
     <use xlink:href="#DejaVuSans-20" transform="translate(176.025391 0)"/>
     <use xlink:href="#DejaVuSans-4d" transform="translate(207.8125 0)"/>
     <use xlink:href="#DejaVuSans-6f" transform="translate(294.091797 0)"/>
     <use xlink:href="#DejaVuSans-72" transform="translate(355.273438 0)"/>
     <use xlink:href="#DejaVuSans-74" transform="translate(396.386719 0)"/>
     <use xlink:href="#DejaVuSans-61" transform="translate(435.595703 0)"/>
     <use xlink:href="#DejaVuSans-6c" transform="translate(496.875 0)"/>
     <use xlink:href="#DejaVuSans-69" transform="translate(524.658203 0)"/>
     <use xlink:href="#DejaVuSans-74" transform="translate(552.441406 0)"/>
     <use xlink:href="#DejaVuSans-79" transform="translate(591.650391 0)"/>
     <use xlink:href="#DejaVuSans-20" transform="translate(650.830078 0)"/>
     <use xlink:href="#DejaVuSans-44" transform="translate(682.617188 0)"/>
     <use xlink:href="#DejaVuSans-69" transform="translate(759.619141 0)"/>
     <use xlink:href="#DejaVuSans-73" transform="translate(787.402344 0)"/>
     <use xlink:href="#DejaVuSans-74" transform="translate(839.501953 0)"/>
     <use xlink:href="#DejaVuSans-72" transform="translate(878.710938 0)"/>
     <use xlink:href="#DejaVuSans-69" transform="translate(919.824219 0)"/>
     <use xlink:href="#DejaVuSans-62" transform="translate(947.607422 0)"/>
     <use xlink:href="#DejaVuSans-75" transform="translate(1011.083984 0)"/>
     <use xlink:href="#DejaVuSans-74" transform="translate(1074.462891 0)"/>
     <use xlink:href="#DejaVuSans-69" transform="translate(1113.671875 0)"/>
     <use xlink:href="#DejaVuSans-6f" transform="translate(1141.455078 0)"/>
     <use xlink:href="#DejaVuSans-6e" transform="translate(1202.636719 0)"/>
     <use xlink:href="#DejaVuSans-20" transform="translate(1266.015625 0)"/>
     <use xlink:href="#DejaVuSans-62" transform="translate(1297.802734 0)"/>
     <use xlink:href="#DejaVuSans-79" transform="translate(1361.279297 0)"/>
     <use xlink:href="#DejaVuSans-20" transform="translate(1420.458984 0)"/>
     <use xlink:href="#DejaVuSans-55" transform="translate(1452.246094 0)"/>
     <use xlink:href="#DejaVuSans-72" transform="translate(1525.439453 0)"/>
     <use xlink:href="#DejaVuSans-62" transform="translate(1566.552734 0)"/>
     <use xlink:href="#DejaVuSans-61" transform="translate(1630.029297 0)"/>
     <use xlink:href="#DejaVuSans-6e" transform="translate(1691.308594 0)"/>
     <use xlink:href="#DejaVuSans-69" transform="translate(1754.6875 0)"/>
     <use xlink:href="#DejaVuSans-7a" transform="translate(1782.470703 0)"/>
     <use xlink:href="#DejaVuSans-61" transform="translate(1834.960938 0)"/>
     <use xlink:href="#DejaVuSans-74" transform="translate(1896.240234 0)"/>
     <use xlink:href="#DejaVuSans-69" transform="translate(1935.449219 0)"/>
     <use xlink:href="#DejaVuSans-6f" transform="translate(1963.232422 0)"/>
     <use xlink:href="#DejaVuSans-6e" transform="translate(2024.414062 0)"/>
     <use xlink:href="#DejaVuSans-20" transform="translate(2087.792969 0)"/>
     <use xlink:href="#DejaVuSans-54" transform="translate(2119.580078 0)"/>
     <use xlink:href="#DejaVuSans-69" transform="translate(2177.539062 0)"/>
     <use xlink:href="#DejaVuSans-65" transform="translate(2205.322266 0)"/>
     <use xlink:href="#DejaVuSans-72" transform="translate(2266.845703 0)"/>
    </g>
   </g>
  </g>
 </g>
 <defs>
  <clipPath id="p0cc103c691">
   <rect x="46.31125" y="23.837812" width="446.4" height="277.2"/>
  </clipPath>
 </defs>
</svg>
