<?xml version="1.0" encoding="utf-8" standalone="no"?>
<!DOCTYPE svg PUBLIC "-//W3C//DTD SVG 1.1//EN"
  "http://www.w3.org/Graphics/SVG/1.1/DTD/svg11.dtd">
<svg xmlns:xlink="http://www.w3.org/1999/xlink" width="499.91125pt" height="343.9975pt" viewBox="0 0 499.91125 343.9975" xmlns="http://www.w3.org/2000/svg" version="1.1">
 <metadata>
  <rdf:RDF xmlns:dc="http://purl.org/dc/elements/1.1/" xmlns:cc="http://creativecommons.org/ns#" xmlns:rdf="http://www.w3.org/1999/02/22-rdf-syntax-ns#">
   <cc:Work>
    <dc:type rdf:resource="http://purl.org/dc/dcmitype/StillImage"/>
    <dc:date>2026-02-27T09:45:07.702156</dc:date>
    <dc:format>image/svg+xml</dc:format>
    <dc:creator>
     <cc:Agent>
      <dc:title>Matplotlib v3.10.8, https://matplotlib.org/</dc:title>
     </cc:Agent>
    </dc:creator>
   </cc:Work>
  </rdf:RDF>
 </metadata>
 <defs>
  <style type="text/css">*{stroke-linejoin: round; stroke-linecap: butt}</style>
 </defs>
 <g id="figure_1">
  <g id="patch_1">
   <path d="M 0 343.9975 
L 499.91125 343.9975 
L 499.91125 0 
L 0 0 
z
" style="fill: #ffffff"/>
  </g>
  <g id="axes_1">
   <g id="patch_2">
    <path d="M 46.31125 301.037812 
L 492.71125 301.037812 
L 492.71125 23.837812 
L 46.31125 23.837812 
z
" style="fill: #ffffff"/>
   </g>
   <g id="matplotlib.axis_1">
    <g id="xtick_1">
     <g id="text_1">
      <!-- Rural -->
      <g style="fill: #262626" transform="translate(106.492031 318.896094) scale(0.11 -0.11)">
       <defs>
        <path id="DejaVuSans-52" d="M 2841 2188 
Q 3044 2119 3236 1894 
Q 3428 1669 3622 1275 
L 4263 0 
L 3584 0 
L 2988 1197 
Q 2756 1666 2539 1819 
Q 2322 1972 1947 1972 
L 1259 1972 
L 1259 0 
L 628 0 
L 628 4666 
L 2053 4666 
Q 2853 4666 3247 4331 
Q 3641 3997 3641 3322 
Q 3641 2881 3436 2590 
Q 3231 2300 2841 2188 
z
M 1259 4147 
L 1259 2491 
L 2053 2491 
Q 2509 2491 2742 2702 
Q 2975 2913 2975 3322 
Q 2975 3731 2742 3939 
Q 2509 4147 2053 4147 
L 1259 4147 
z
" transform="scale(0.015625)"/>
        <path id="DejaVuSans-75" d="M 544 1381 
L 544 3500 
L 1119 3500 
L 1119 1403 
Q 1119 906 1312 657 
Q 1506 409 1894 409 
Q 2359 409 2629 706 
Q 2900 1003 2900 1516 
L 2900 3500 
L 3475 3500 
L 3475 0 
L 2900 0 
L 2900 538 
Q 2691 219 2414 64 
Q 2138 -91 1772 -91 
Q 1169 -91 856 284 
Q 544 659 544 1381 
z
M 1991 3584 
L 1991 3584 
z
" transform="scale(0.015625)"/>
        <path id="DejaVuSans-72" d="M 2631 2963 
Q 2534 3019 2420 3045 
Q 2306 3072 2169 3072 
Q 1681 3072 1420 2755 
Q 1159 2438 1159 1844 
L 1159 0 
L 581 0 
L 581 3500 
L 1159 3500 
L 1159 2956 
Q 1341 3275 1631 3429 
Q 1922 3584 2338 3584 
Q 2397 3584 2469 3576 
Q 2541 3569 2628 3553 
L 2631 2963 
z
" transform="scale(0.015625)"/>
        <path id="DejaVuSans-61" d="M 2194 1759 
Q 1497 1759 1228 1600 
Q 959 1441 959 1056 
Q 959 750 1161 570 
Q 1363 391 1709 391 
Q 2188 391 2477 730 
Q 2766 1069 2766 1631 
L 2766 1759 
L 2194 1759 
z
M 3341 1997 
L 3341 0 
L 2766 0 
L 2766 531 
Q 2569 213 2275 61 
Q 1981 -91 1556 -91 
Q 1019 -91 701 211 
Q 384 513 384 1019 
Q 384 1609 779 1909 
Q 1175 2209 1959 2209 
L 2766 2209 
L 2766 2266 
Q 2766 2663 2505 2880 
Q 2244 3097 1772 3097 
Q 1472 3097 1187 3025 
Q 903 2953 641 2809 
L 641 3341 
Q 956 3463 1253 3523 
Q 1550 3584 1831 3584 
Q 2591 3584 2966 3190 
Q 3341 2797 3341 1997 
z
" transform="scale(0.015625)"/>
        <path id="DejaVuSans-6c" d="M 603 4863 
L 1178 4863 
L 1178 0 
L 603 0 
L 603 4863 
z
" transform="scale(0.015625)"/>
       </defs>
       <use xlink:href="#DejaVuSans-52"/>
       <use xlink:href="#DejaVuSans-75" transform="translate(64.982422 0)"/>
       <use xlink:href="#DejaVuSans-72" transform="translate(128.361328 0)"/>
       <use xlink:href="#DejaVuSans-61" transform="translate(169.474609 0)"/>
       <use xlink:href="#DejaVuSans-6c" transform="translate(230.753906 0)"/>
      </g>
     </g>
    </g>
    <g id="xtick_2">
     <g id="text_2">
      <!-- Peri-urban -->
      <g style="fill: #262626" transform="translate(241.142422 318.896094) scale(0.11 -0.11)">
       <defs>
        <path id="DejaVuSans-50" d="M 1259 4147 
L 1259 2394 
L 2053 2394 
Q 2494 2394 2734 2622 
Q 2975 2850 2975 3272 
Q 2975 3691 2734 3919 
Q 2494 4147 2053 4147 
L 1259 4147 
z
M 628 4666 
L 2053 4666 
Q 2838 4666 3239 4311 
Q 3641 3956 3641 3272 
Q 3641 2581 3239 2228 
Q 2838 1875 2053 1875 
L 1259 1875 
L 1259 0 
L 628 0 
L 628 4666 
z
" transform="scale(0.015625)"/>
        <path id="DejaVuSans-65" d="M 3597 1894 
L 3597 1613 
L 953 1613 
Q 991 1019 1311 708 
Q 1631 397 2203 397 
Q 2534 397 2845 478 
Q 3156 559 3463 722 
L 3463 178 
Q 3153 47 2828 -22 
Q 2503 -91 2169 -91 
Q 1331 -91 842 396 
Q 353 884 353 1716 
Q 353 2575 817 3079 
Q 1281 3584 2069 3584 
Q 2775 3584 3186 3129 
Q 3597 2675 3597 1894 
z
M 3022 2063 
Q 3016 2534 2758 2815 
Q 2500 3097 2075 3097 
Q 1594 3097 1305 2825 
Q 1016 2553 972 2059 
L 3022 2063 
z
" transform="scale(0.015625)"/>
        <path id="DejaVuSans-69" d="M 603 3500 
L 1178 3500 
L 1178 0 
L 603 0 
L 603 3500 
z
M 603 4863 
L 1178 4863 
L 1178 4134 
L 603 4134 
L 603 4863 
z
" transform="scale(0.015625)"/>
        <path id="DejaVuSans-2d" d="M 313 2009 
L 1997 2009 
L 1997 1497 
L 313 1497 
L 313 2009 
z
" transform="scale(0.015625)"/>
        <path id="DejaVuSans-62" d="M 3116 1747 
Q 3116 2381 2855 2742 
Q 2594 3103 2138 3103 
Q 1681 3103 1420 2742 
Q 1159 2381 1159 1747 
Q 1159 1113 1420 752 
Q 1681 391 2138 391 
Q 2594 391 2855 752 
Q 3116 1113 3116 1747 
z
M 1159 2969 
Q 1341 3281 1617 3432 
Q 1894 3584 2278 3584 
Q 2916 3584 3314 3078 
Q 3713 2572 3713 1747 
Q 3713 922 3314 415 
Q 2916 -91 2278 -91 
Q 1894 -91 1617 61 
Q 1341 213 1159 525 
L 1159 0 
L 581 0 
L 581 4863 
L 1159 4863 
L 1159 2969 
z
" transform="scale(0.015625)"/>
        <path id="DejaVuSans-6e" d="M 3513 2113 
L 3513 0 
L 2938 0 
L 2938 2094 
Q 2938 2591 2744 2837 
Q 2550 3084 2163 3084 
Q 1697 3084 1428 2787 
Q 1159 2491 1159 1978 
L 1159 0 
L 581 0 
L 581 3500 
L 1159 3500 
L 1159 2956 
Q 1366 3272 1645 3428 
Q 1925 3584 2291 3584 
Q 2894 3584 3203 3211 
Q 3513 2838 3513 2113 
z
" transform="scale(0.015625)"/>
       </defs>
       <use xlink:href="#DejaVuSans-50"/>
       <use xlink:href="#DejaVuSans-65" transform="translate(56.677734 0)"/>
       <use xlink:href="#DejaVuSans-72" transform="translate(118.201172 0)"/>
       <use xlink:href="#DejaVuSans-69" transform="translate(159.314453 0)"/>
       <use xlink:href="#DejaVuSans-2d" transform="translate(187.097656 0)"/>
       <use xlink:href="#DejaVuSans-75" transform="translate(223.181641 0)"/>
       <use xlink:href="#DejaVuSans-72" transform="translate(286.560547 0)"/>
       <use xlink:href="#DejaVuSans-62" transform="translate(327.673828 0)"/>
       <use xlink:href="#DejaVuSans-61" transform="translate(391.150391 0)"/>
       <use xlink:href="#DejaVuSans-6e" transform="translate(452.429688 0)"/>
      </g>
     </g>
    </g>
    <g id="xtick_3">
     <g id="text_3">
      <!-- Urban -->
      <g style="fill: #262626" transform="translate(401.677187 318.896094) scale(0.11 -0.11)">
       <defs>
        <path id="DejaVuSans-55" d="M 556 4666 
L 1191 4666 
L 1191 1831 
Q 1191 1081 1462 751 
Q 1734 422 2344 422 
Q 2950 422 3222 751 
Q 3494 1081 3494 1831 
L 3494 4666 
L 4128 4666 
L 4128 1753 
Q 4128 841 3676 375 
Q 3225 -91 2344 -91 
Q 1459 -91 1007 375 
Q 556 841 556 1753 
L 556 4666 
z
" transform="scale(0.015625)"/>
       </defs>
       <use xlink:href="#DejaVuSans-55"/>
       <use xlink:href="#DejaVuSans-72" transform="translate(73.193359 0)"/>
       <use xlink:href="#DejaVuSans-62" transform="translate(114.306641 0)"/>
       <use xlink:href="#DejaVuSans-61" transform="translate(177.783203 0)"/>
       <use xlink:href="#DejaVuSans-6e" transform="translate(239.0625 0)"/>
      </g>
     </g>
    </g>
    <g id="text_4">
     <!-- Urbanization Tier -->
     <g style="fill: #262626" transform="translate(218.17 334.301875) scale(0.12 -0.12)">
      <defs>
       <path id="DejaVuSans-7a" d="M 353 3500 
L 3084 3500 
L 3084 2975 
L 922 459 
L 3084 459 
L 3084 0 
L 275 0 
L 275 525 
L 2438 3041 
L 353 3041 
L 353 3500 
z
" transform="scale(0.015625)"/>
       <path id="DejaVuSans-74" d="M 1172 4494 
L 1172 3500 
L 2356 3500 
L 2356 3053 
L 1172 3053 
L 1172 1153 
Q 1172 725 1289 603 
Q 1406 481 1766 481 
L 2356 481 
L 2356 0 
L 1766 0 
Q 1100 0 847 248 
Q 594 497 594 1153 
L 594 3053 
L 172 3053 
L 172 3500 
L 594 3500 
L 594 4494 
L 1172 4494 
z
" transform="scale(0.015625)"/>
       <path id="DejaVuSans-6f" d="M 1959 3097 
Q 1497 3097 1228 2736 
Q 959 2375 959 1747 
Q 959 1119 1226 758 
Q 1494 397 1959 397 
Q 2419 397 2687 759 
Q 2956 1122 2956 1747 
Q 2956 2369 2687 2733 
Q 2419 3097 1959 3097 
z
M 1959 3584 
Q 2709 3584 3137 3096 
Q 3566 2609 3566 1747 
Q 3566 888 3137 398 
Q 2709 -91 1959 -91 
Q 1206 -91 779 398 
Q 353 888 353 1747 
Q 353 2609 779 3096 
Q 1206 3584 1959 3584 
z
" transform="scale(0.015625)"/>
       <path id="DejaVuSans-20" transform="scale(0.015625)"/>
       <path id="DejaVuSans-54" d="M -19 4666 
L 3928 4666 
L 3928 4134 
L 2272 4134 
L 2272 0 
L 1638 0 
L 1638 4134 
L -19 4134 
L -19 4666 
z
" transform="scale(0.015625)"/>
      </defs>
      <use xlink:href="#DejaVuSans-55"/>
      <use xlink:href="#DejaVuSans-72" transform="translate(73.193359 0)"/>
      <use xlink:href="#DejaVuSans-62" transform="translate(114.306641 0)"/>
      <use xlink:href="#DejaVuSans-61" transform="translate(177.783203 0)"/>
      <use xlink:href="#DejaVuSans-6e" transform="translate(239.0625 0)"/>
      <use xlink:href="#DejaVuSans-69" transform="translate(302.441406 0)"/>
      <use xlink:href="#DejaVuSans-7a" transform="translate(330.224609 0)"/>
      <use xlink:href="#DejaVuSans-61" transform="translate(382.714844 0)"/>
      <use xlink:href="#DejaVuSans-74" transform="translate(443.994141 0)"/>
      <use xlink:href="#DejaVuSans-69" transform="translate(483.203125 0)"/>
      <use xlink:href="#DejaVuSans-6f" transform="translate(510.986328 0)"/>
      <use xlink:href="#DejaVuSans-6e" transform="translate(572.167969 0)"/>
      <use xlink:href="#DejaVuSans-20" transform="translate(635.546875 0)"/>
      <use xlink:href="#DejaVuSans-54" transform="translate(667.333984 0)"/>
      <use xlink:href="#DejaVuSans-69" transform="translate(725.292969 0)"/>
      <use xlink:href="#DejaVuSans-65" transform="translate(753.076172 0)"/>
      <use xlink:href="#DejaVuSans-72" transform="translate(814.599609 0)"/>
     </g>
    </g>
   </g>
   <g id="matplotlib.axis_2">
    <g id="ytick_1">
     <g id="line2d_1">
      <path d="M 46.31125 269.972186 
L 492.71125 269.972186 
" clip-path="url(#pb9fdfa6db1)" style="fill: none; stroke: #cccccc; stroke-linecap: round"/>
     </g>
     <g id="text_5">
      <!-- 0 -->
      <g style="fill: #262626" transform="translate(29.8125 274.151326) scale(0.11 -0.11)">
       <defs>
        <path id="DejaVuSans-30" d="M 2034 4250 
Q 1547 4250 1301 3770 
Q 1056 3291 1056 2328 
Q 1056 1369 1301 889 
Q 1547 409 2034 409 
Q 2525 409 2770 889 
Q 3016 1369 3016 2328 
Q 3016 3291 2770 3770 
Q 2525 4250 2034 4250 
z
M 2034 4750 
Q 2819 4750 3233 4129 
Q 3647 3509 3647 2328 
Q 3647 1150 3233 529 
Q 2819 -91 2034 -91 
Q 1250 -91 836 529 
Q 422 1150 422 2328 
Q 422 3509 836 4129 
Q 1250 4750 2034 4750 
z
" transform="scale(0.015625)"/>
       </defs>
       <use xlink:href="#DejaVuSans-30"/>
      </g>
     </g>
    </g>
    <g id="ytick_2">
     <g id="line2d_2">
      <path d="M 46.31125 227.384315 
L 492.71125 227.384315 
" clip-path="url(#pb9fdfa6db1)" style="fill: none; stroke: #cccccc; stroke-linecap: round"/>
     </g>
     <g id="text_6">
      <!-- 2 -->
      <g style="fill: #262626" transform="translate(29.8125 231.563456) scale(0.11 -0.11)">
       <defs>
        <path id="DejaVuSans-32" d="M 1228 531 
L 3431 531 
L 3431 0 
L 469 0 
L 469 531 
Q 828 903 1448 1529 
Q 2069 2156 2228 2338 
Q 2531 2678 2651 2914 
Q 2772 3150 2772 3378 
Q 2772 3750 2511 3984 
Q 2250 4219 1831 4219 
Q 1534 4219 1204 4116 
Q 875 4013 500 3803 
L 500 4441 
Q 881 4594 1212 4672 
Q 1544 4750 1819 4750 
Q 2544 4750 2975 4387 
Q 3406 4025 3406 3419 
Q 3406 3131 3298 2873 
Q 3191 2616 2906 2266 
Q 2828 2175 2409 1742 
Q 1991 1309 1228 531 
z
" transform="scale(0.015625)"/>
       </defs>
       <use xlink:href="#DejaVuSans-32"/>
      </g>
     </g>
    </g>
    <g id="ytick_3">
     <g id="line2d_3">
      <path d="M 46.31125 184.796445 
L 492.71125 184.796445 
" clip-path="url(#pb9fdfa6db1)" style="fill: none; stroke: #cccccc; stroke-linecap: round"/>
     </g>
     <g id="text_7">
      <!-- 4 -->
      <g style="fill: #262626" transform="translate(29.8125 188.975585) scale(0.11 -0.11)">
       <defs>
        <path id="DejaVuSans-34" d="M 2419 4116 
L 825 1625 
L 2419 1625 
L 2419 4116 
z
M 2253 4666 
L 3047 4666 
L 3047 1625 
L 3713 1625 
L 3713 1100 
L 3047 1100 
L 3047 0 
L 2419 0 
L 2419 1100 
L 313 1100 
L 313 1709 
L 2253 4666 
z
" transform="scale(0.015625)"/>
       </defs>
       <use xlink:href="#DejaVuSans-34"/>
      </g>
     </g>
    </g>
    <g id="ytick_4">
     <g id="line2d_4">
      <path d="M 46.31125 142.208574 
L 492.71125 142.208574 
" clip-path="url(#pb9fdfa6db1)" style="fill: none; stroke: #cccccc; stroke-linecap: round"/>
     </g>
     <g id="text_8">
      <!-- 6 -->
      <g style="fill: #262626" transform="translate(29.8125 146.387715) scale(0.11 -0.11)">
       <defs>
        <path id="DejaVuSans-36" d="M 2113 2584 
Q 1688 2584 1439 2293 
Q 1191 2003 1191 1497 
Q 1191 994 1439 701 
Q 1688 409 2113 409 
Q 2538 409 2786 701 
Q 3034 994 3034 1497 
Q 3034 2003 2786 2293 
Q 2538 2584 2113 2584 
z
M 3366 4563 
L 3366 3988 
Q 3128 4100 2886 4159 
Q 2644 4219 2406 4219 
Q 1781 4219 1451 3797 
Q 1122 3375 1075 2522 
Q 1259 2794 1537 2939 
Q 1816 3084 2150 3084 
Q 2853 3084 3261 2657 
Q 3669 2231 3669 1497 
Q 3669 778 3244 343 
Q 2819 -91 2113 -91 
Q 1303 -91 875 529 
Q 447 1150 447 2328 
Q 447 3434 972 4092 
Q 1497 4750 2381 4750 
Q 2619 4750 2861 4703 
Q 3103 4656 3366 4563 
z
" transform="scale(0.015625)"/>
       </defs>
       <use xlink:href="#DejaVuSans-36"/>
      </g>
     </g>
    </g>
    <g id="ytick_5">
     <g id="line2d_5">
      <path d="M 46.31125 99.620703 
L 492.71125 99.620703 
" clip-path="url(#pb9fdfa6db1)" style="fill: none; stroke: #cccccc; stroke-linecap: round"/>
     </g>
     <g id="text_9">
      <!-- 8 -->
      <g style="fill: #262626" transform="translate(29.8125 103.799844) scale(0.11 -0.11)">
       <defs>
        <path id="DejaVuSans-38" d="M 2034 2216 
Q 1584 2216 1326 1975 
Q 1069 1734 1069 1313 
Q 1069 891 1326 650 
Q 1584 409 2034 409 
Q 2484 409 2743 651 
Q 3003 894 3003 1313 
Q 3003 1734 2745 1975 
Q 2488 2216 2034 2216 
z
M 1403 2484 
Q 997 2584 770 2862 
Q 544 3141 544 3541 
Q 544 4100 942 4425 
Q 1341 4750 2034 4750 
Q 2731 4750 3128 4425 
Q 3525 4100 3525 3541 
Q 3525 3141 3298 2862 
Q 3072 2584 2669 2484 
Q 3125 2378 3379 2068 
Q 3634 1759 3634 1313 
Q 3634 634 3220 271 
Q 2806 -91 2034 -91 
Q 1263 -91 848 271 
Q 434 634 434 1313 
Q 434 1759 690 2068 
Q 947 2378 1403 2484 
z
M 1172 3481 
Q 1172 3119 1398 2916 
Q 1625 2713 2034 2713 
Q 2441 2713 2670 2916 
Q 2900 3119 2900 3481 
Q 2900 3844 2670 4047 
Q 2441 4250 2034 4250 
Q 1625 4250 1398 4047 
Q 1172 3844 1172 3481 
z
" transform="scale(0.015625)"/>
       </defs>
       <use xlink:href="#DejaVuSans-38"/>
      </g>
     </g>
    </g>
    <g id="ytick_6">
     <g id="line2d_6">
      <path d="M 46.31125 57.032833 
L 492.71125 57.032833 
" clip-path="url(#pb9fdfa6db1)" style="fill: none; stroke: #cccccc; stroke-linecap: round"/>
     </g>
     <g id="text_10">
      <!-- 10 -->
      <g style="fill: #262626" transform="translate(22.81375 61.211974) scale(0.11 -0.11)">
       <defs>
        <path id="DejaVuSans-31" d="M 794 531 
L 1825 531 
L 1825 4091 
L 703 3866 
L 703 4441 
L 1819 4666 
L 2450 4666 
L 2450 531 
L 3481 531 
L 3481 0 
L 794 0 
L 794 531 
z
" transform="scale(0.015625)"/>
       </defs>
       <use xlink:href="#DejaVuSans-31"/>
       <use xlink:href="#DejaVuSans-30" transform="translate(63.623047 0)"/>
      </g>
     </g>
    </g>
    <g id="text_11">
     <!-- Mortality Rate (%) -->
     <g style="fill: #262626" transform="translate(16.318125 216.970312) rotate(-90) scale(0.12 -0.12)">
      <defs>
       <path id="DejaVuSans-4d" d="M 628 4666 
L 1569 4666 
L 2759 1491 
L 3956 4666 
L 4897 4666 
L 4897 0 
L 4281 0 
L 4281 4097 
L 3078 897 
L 2444 897 
L 1241 4097 
L 1241 0 
L 628 0 
L 628 4666 
z
" transform="scale(0.015625)"/>
       <path id="DejaVuSans-79" d="M 2059 -325 
Q 1816 -950 1584 -1140 
Q 1353 -1331 966 -1331 
L 506 -1331 
L 506 -850 
L 844 -850 
Q 1081 -850 1212 -737 
Q 1344 -625 1503 -206 
L 1606 56 
L 191 3500 
L 800 3500 
L 1894 763 
L 2988 3500 
L 3597 3500 
L 2059 -325 
z
" transform="scale(0.015625)"/>
       <path id="DejaVuSans-28" d="M 1984 4856 
Q 1566 4138 1362 3434 
Q 1159 2731 1159 2009 
Q 1159 1288 1364 580 
Q 1569 -128 1984 -844 
L 1484 -844 
Q 1016 -109 783 600 
Q 550 1309 550 2009 
Q 550 2706 781 3412 
Q 1013 4119 1484 4856 
L 1984 4856 
z
" transform="scale(0.015625)"/>
       <path id="DejaVuSans-25" d="M 4653 2053 
Q 4381 2053 4226 1822 
Q 4072 1591 4072 1178 
Q 4072 772 4226 539 
Q 4381 306 4653 306 
Q 4919 306 5073 539 
Q 5228 772 5228 1178 
Q 5228 1588 5073 1820 
Q 4919 2053 4653 2053 
z
M 4653 2450 
Q 5147 2450 5437 2106 
Q 5728 1763 5728 1178 
Q 5728 594 5436 251 
Q 5144 -91 4653 -91 
Q 4153 -91 3862 251 
Q 3572 594 3572 1178 
Q 3572 1766 3864 2108 
Q 4156 2450 4653 2450 
z
M 1428 4353 
Q 1159 4353 1004 4120 
Q 850 3888 850 3481 
Q 850 3069 1003 2837 
Q 1156 2606 1428 2606 
Q 1700 2606 1854 2837 
Q 2009 3069 2009 3481 
Q 2009 3884 1853 4118 
Q 1697 4353 1428 4353 
z
M 4250 4750 
L 4750 4750 
L 1831 -91 
L 1331 -91 
L 4250 4750 
z
M 1428 4750 
Q 1922 4750 2215 4408 
Q 2509 4066 2509 3481 
Q 2509 2891 2217 2550 
Q 1925 2209 1428 2209 
Q 931 2209 642 2551 
Q 353 2894 353 3481 
Q 353 4063 643 4406 
Q 934 4750 1428 4750 
z
" transform="scale(0.015625)"/>
       <path id="DejaVuSans-29" d="M 513 4856 
L 1013 4856 
Q 1481 4119 1714 3412 
Q 1947 2706 1947 2009 
Q 1947 1309 1714 600 
Q 1481 -109 1013 -844 
L 513 -844 
Q 928 -128 1133 580 
Q 1338 1288 1338 2009 
Q 1338 2731 1133 3434 
Q 928 4138 513 4856 
z
" transform="scale(0.015625)"/>
      </defs>
      <use xlink:href="#DejaVuSans-4d"/>
      <use xlink:href="#DejaVuSans-6f" transform="translate(86.279297 0)"/>
      <use xlink:href="#DejaVuSans-72" transform="translate(147.460938 0)"/>
      <use xlink:href="#DejaVuSans-74" transform="translate(188.574219 0)"/>
      <use xlink:href="#DejaVuSans-61" transform="translate(227.783203 0)"/>
      <use xlink:href="#DejaVuSans-6c" transform="translate(289.0625 0)"/>
      <use xlink:href="#DejaVuSans-69" transform="translate(316.845703 0)"/>
      <use xlink:href="#DejaVuSans-74" transform="translate(344.628906 0)"/>
      <use xlink:href="#DejaVuSans-79" transform="translate(383.837891 0)"/>
      <use xlink:href="#DejaVuSans-20" transform="translate(443.017578 0)"/>
      <use xlink:href="#DejaVuSans-52" transform="translate(474.804688 0)"/>
      <use xlink:href="#DejaVuSans-61" transform="translate(542.037109 0)"/>
      <use xlink:href="#DejaVuSans-74" transform="translate(603.316406 0)"/>
      <use xlink:href="#DejaVuSans-65" transform="translate(642.525391 0)"/>
      <use xlink:href="#DejaVuSans-20" transform="translate(704.048828 0)"/>
      <use xlink:href="#DejaVuSans-28" transform="translate(735.835938 0)"/>
      <use xlink:href="#DejaVuSans-25" transform="translate(774.849609 0)"/>
      <use xlink:href="#DejaVuSans-29" transform="translate(869.869141 0)"/>
     </g>
    </g>
   </g>
   <g id="FillBetweenPolyCollection_1">
    <defs>
     <path id="m883d131d10" d="M 122.019688 -55.559688 
L 119.402812 -55.559688 
L 118.4151 -58.105142 
L 116.890327 -60.650597 
L 114.675174 -63.196051 
L 111.646717 -65.741506 
L 107.750497 -68.28696 
L 103.033771 -70.832415 
L 97.661518 -73.377869 
L 91.905943 -75.923324 
L 86.108279 -78.468778 
L 80.62149 -81.014233 
L 75.749738 -83.559688 
L 71.701499 -86.105142 
L 68.567715 -88.650597 
L 66.326946 -91.196051 
L 64.870872 -93.741506 
L 64.039121 -96.28696 
L 63.653196 -98.832415 
L 63.543387 -101.377869 
L 63.56704 -103.923324 
L 63.619075 -106.468778 
L 63.635989 -109.014233 
L 63.59377 -111.559688 
L 63.499911 -114.105142 
L 63.380728 -116.650597 
L 63.266965 -119.196051 
L 63.181741 -121.741506 
L 63.1342 -124.28696 
L 63.119764 -126.832415 
L 63.124976 -129.377869 
L 63.133374 -131.923324 
L 63.129418 -134.468778 
L 63.099738 -137.014233 
L 63.03323 -139.559687 
L 62.922204 -142.105142 
L 62.765575 -144.650597 
L 62.572895 -147.196051 
L 62.366436 -149.741506 
L 62.178693 -152.28696 
L 62.044576 -154.832415 
L 61.990275 -157.377869 
L 62.022882 -159.923324 
L 62.125123 -162.468778 
L 62.257925 -165.014233 
L 62.370518 -167.559688 
L 62.414852 -170.105142 
L 62.359532 -172.650597 
L 62.198942 -175.196051 
L 61.955258 -177.741506 
L 61.67365 -180.28696 
L 61.412906 -182.832415 
L 61.234329 -185.377869 
L 61.19125 -187.923324 
L 61.320435 -190.468778 
L 61.635797 -193.014233 
L 62.124546 -195.559688 
L 62.74621 -198.105142 
L 63.435394 -200.650597 
L 64.109184 -203.196051 
L 64.679373 -205.741506 
L 65.068221 -208.28696 
L 65.224793 -210.832415 
L 65.137813 -213.377869 
L 64.841052 -215.923324 
L 64.408786 -218.468778 
L 63.941453 -221.014233 
L 63.544556 -223.559688 
L 63.306132 -226.105142 
L 63.278825 -228.650597 
L 63.471415 -231.196051 
L 63.851713 -233.741506 
L 64.35913 -236.28696 
L 64.922218 -238.832415 
L 65.475318 -241.377869 
L 65.96953 -243.923324 
L 66.376004 -246.468778 
L 66.682774 -249.014233 
L 66.88873 -251.559688 
L 66.99896 -254.105142 
L 67.024711 -256.650597 
L 66.989055 -259.196051 
L 66.937018 -261.741506 
L 66.946817 -264.28696 
L 67.137571 -266.832415 
L 67.668469 -269.377869 
L 68.725351 -271.923324 
L 70.493292 -274.468778 
L 73.118044 -277.014233 
L 76.664299 -279.559687 
L 81.082669 -282.105142 
L 86.197741 -284.650597 
L 91.724965 -287.196051 
L 97.315347 -289.741506 
L 102.617072 -292.28696 
L 107.336837 -294.832415 
L 111.283812 -297.377869 
L 114.385901 -299.923324 
L 116.677958 -302.468778 
L 118.270421 -305.014233 
L 119.310936 -307.559688 
L 122.111564 -307.559688 
L 122.111564 -307.559688 
L 123.152079 -305.014233 
L 124.744542 -302.468778 
L 127.036599 -299.923324 
L 130.138688 -297.377869 
L 134.085663 -294.832415 
L 138.805428 -292.28696 
L 144.107153 -289.741506 
L 149.697535 -287.196051 
L 155.224759 -284.650597 
L 160.339831 -282.105142 
L 164.758201 -279.559687 
L 168.304456 -277.014233 
L 170.929208 -274.468778 
L 172.697149 -271.923324 
L 173.754031 -269.377869 
L 174.284929 -266.832415 
L 174.475683 -264.28696 
L 174.485482 -261.741506 
L 174.433445 -259.196051 
L 174.397789 -256.650597 
L 174.42354 -254.105142 
L 174.53377 -251.559688 
L 174.739726 -249.014233 
L 175.046496 -246.468778 
L 175.45297 -243.923324 
L 175.947182 -241.377869 
L 176.500282 -238.832415 
L 177.06337 -236.28696 
L 177.570787 -233.741506 
L 177.951085 -231.196051 
L 178.143675 -228.650597 
L 178.116368 -226.105142 
L 177.877944 -223.559688 
L 177.481047 -221.014233 
L 177.013714 -218.468778 
L 176.581448 -215.923324 
L 176.284687 -213.377869 
L 176.197707 -210.832415 
L 176.354279 -208.28696 
L 176.743127 -205.741506 
L 177.313316 -203.196051 
L 177.987106 -200.650597 
L 178.67629 -198.105142 
L 179.297954 -195.559688 
L 179.786703 -193.014233 
L 180.102065 -190.468778 
L 180.23125 -187.923324 
L 180.188171 -185.377869 
L 180.009594 -182.832415 
L 179.74885 -180.28696 
L 179.467242 -177.741506 
L 179.223558 -175.196051 
L 179.062968 -172.650597 
L 179.007648 -170.105142 
L 179.051982 -167.559688 
L 179.164575 -165.014233 
L 179.297377 -162.468778 
L 179.399618 -159.923324 
L 179.432225 -157.377869 
L 179.377924 -154.832415 
L 179.243807 -152.28696 
L 179.056064 -149.741506 
L 178.849605 -147.196051 
L 178.656925 -144.650597 
L 178.500296 -142.105142 
L 178.38927 -139.559687 
L 178.322762 -137.014233 
L 178.293082 -134.468778 
L 178.289126 -131.923324 
L 178.297524 -129.377869 
L 178.302736 -126.832415 
L 178.2883 -124.28696 
L 178.240759 -121.741506 
L 178.155535 -119.196051 
L 178.041772 -116.650597 
L 177.922589 -114.105142 
L 177.82873 -111.559688 
L 177.786511 -109.014233 
L 177.803425 -106.468778 
L 177.85546 -103.923324 
L 177.879113 -101.377869 
L 177.769304 -98.832415 
L 177.383379 -96.28696 
L 176.551628 -93.741506 
L 175.095554 -91.196051 
L 172.854785 -88.650597 
L 169.721001 -86.105142 
L 165.672762 -83.559688 
L 160.80101 -81.014233 
L 155.314221 -78.468778 
L 149.516557 -75.923324 
L 143.760982 -73.377869 
L 138.388729 -70.832415 
L 133.672003 -68.28696 
L 129.775783 -65.741506 
L 126.747326 -63.196051 
L 124.532173 -60.650597 
L 123.0074 -58.105142 
L 122.019688 -55.559688 
z
" style="stroke: #4b4b4b; stroke-width: 1.25"/>
    </defs>
    <g clip-path="url(#pb9fdfa6db1)">
     <use xlink:href="#m883d131d10" x="0" y="343.9975" style="fill: #42b874; stroke: #4b4b4b; stroke-width: 1.25"/>
    </g>
   </g>
   <g id="FillBetweenPolyCollection_2">
    <defs>
     <path id="mcf305e374d" d="M 270.897703 -60.484019 
L 268.124797 -60.484019 
L 266.733513 -62.929992 
L 264.395692 -65.375965 
L 260.829976 -67.821938 
L 255.894335 -70.267911 
L 249.69623 -72.713884 
L 242.638695 -75.159858 
L 235.358504 -77.605831 
L 228.564362 -80.051804 
L 222.84005 -82.497777 
L 218.499801 -84.94375 
L 215.553562 -87.389723 
L 213.779082 -89.835696 
L 212.847217 -92.281669 
L 212.435837 -94.727642 
L 212.293818 -97.173615 
L 212.254381 -99.619589 
L 212.220402 -102.065562 
L 212.145014 -104.511535 
L 212.017663 -106.957508 
L 211.853595 -109.403481 
L 211.681668 -111.849454 
L 211.52996 -114.295427 
L 211.414236 -116.7414 
L 211.335043 -119.187373 
L 211.284393 -121.633346 
L 211.256481 -124.07932 
L 211.254157 -126.525293 
L 211.286551 -128.971266 
L 211.360309 -131.417239 
L 211.471702 -133.863212 
L 211.605404 -136.309185 
L 211.74009 -138.755158 
L 211.856384 -141.201131 
L 211.942747 -143.647104 
L 211.9979 -146.093078 
L 212.030317 -148.539051 
L 212.054771 -150.985024 
L 212.085581 -153.430997 
L 212.128348 -155.87697 
L 212.175067 -158.322943 
L 212.207072 -160.768916 
L 212.205205 -163.214889 
L 212.160986 -165.660862 
L 212.08182 -168.106835 
L 211.988165 -170.552809 
L 211.906138 -172.998782 
L 211.860282 -175.444755 
L 211.868367 -177.890728 
L 211.937417 -180.336701 
L 212.060757 -182.782674 
L 212.217754 -185.228647 
L 212.377761 -187.67462 
L 212.506961 -190.120593 
L 212.574605 -192.566566 
L 212.556467 -195.01254 
L 212.43677 -197.458513 
L 212.21141 -199.904486 
L 211.892649 -202.350459 
L 211.511332 -204.796432 
L 211.111881 -207.242405 
L 210.740077 -209.688378 
L 210.430056 -212.134351 
L 210.198884 -214.580324 
L 210.05161 -217.026297 
L 209.99125 -219.472271 
L 210.024279 -221.918244 
L 210.156593 -224.364217 
L 210.383567 -226.81019 
L 210.682955 -229.256163 
L 211.016961 -231.702136 
L 211.342529 -234.148109 
L 211.623455 -236.594082 
L 211.837988 -239.040055 
L 211.979729 -241.486029 
L 212.05355 -243.932002 
L 212.069201 -246.377975 
L 212.034474 -248.823948 
L 211.949679 -251.269921 
L 211.806458 -253.715894 
L 211.593997 -256.161867 
L 211.312573 -258.60784 
L 210.989676 -261.053813 
L 210.692365 -263.499786 
L 210.532923 -265.94576 
L 210.670054 -268.391733 
L 211.308364 -270.837706 
L 212.692301 -273.283679 
L 215.081988 -275.729652 
L 218.697849 -278.175625 
L 223.635742 -280.621598 
L 229.780434 -283.067571 
L 236.764868 -285.513544 
L 244.015132 -287.959517 
L 250.881799 -290.405491 
L 256.808946 -292.851464 
L 261.467499 -295.297437 
L 264.799024 -297.74341 
L 266.965627 -300.189383 
L 268.246422 -302.635356 
L 270.776078 -302.635356 
L 270.776078 -302.635356 
L 272.056873 -300.189383 
L 274.223476 -297.74341 
L 277.555001 -295.297437 
L 282.213554 -292.851464 
L 288.140701 -290.405491 
L 295.007368 -287.959517 
L 302.257632 -285.513544 
L 309.242066 -283.067571 
L 315.386758 -280.621598 
L 320.324651 -278.175625 
L 323.940512 -275.729652 
L 326.330199 -273.283679 
L 327.714136 -270.837706 
L 328.352446 -268.391733 
L 328.489577 -265.94576 
L 328.330135 -263.499786 
L 328.032824 -261.053813 
L 327.709927 -258.60784 
L 327.428503 -256.161867 
L 327.216042 -253.715894 
L 327.072821 -251.269921 
L 326.988026 -248.823948 
L 326.953299 -246.377975 
L 326.96895 -243.932002 
L 327.042771 -241.486029 
L 327.184512 -239.040055 
L 327.399045 -236.594082 
L 327.679971 -234.148109 
L 328.005539 -231.702136 
L 328.339545 -229.256163 
L 328.638933 -226.81019 
L 328.865907 -224.364217 
L 328.998221 -221.918244 
L 329.03125 -219.472271 
L 328.97089 -217.026297 
L 328.823616 -214.580324 
L 328.592444 -212.134351 
L 328.282423 -209.688378 
L 327.910619 -207.242405 
L 327.511168 -204.796432 
L 327.129851 -202.350459 
L 326.81109 -199.904486 
L 326.58573 -197.458513 
L 326.466033 -195.01254 
L 326.447895 -192.566566 
L 326.515539 -190.120593 
L 326.644739 -187.67462 
L 326.804746 -185.228647 
L 326.961743 -182.782674 
L 327.085083 -180.336701 
L 327.154133 -177.890728 
L 327.162218 -175.444755 
L 327.116362 -172.998782 
L 327.034335 -170.552809 
L 326.94068 -168.106835 
L 326.861514 -165.660862 
L 326.817295 -163.214889 
L 326.815428 -160.768916 
L 326.847433 -158.322943 
L 326.894152 -155.87697 
L 326.936919 -153.430997 
L 326.967729 -150.985024 
L 326.992183 -148.539051 
L 327.0246 -146.093078 
L 327.079753 -143.647104 
L 327.166116 -141.201131 
L 327.28241 -138.755158 
L 327.417096 -136.309185 
L 327.550798 -133.863212 
L 327.662191 -131.417239 
L 327.735949 -128.971266 
L 327.768343 -126.525293 
L 327.766019 -124.07932 
L 327.738107 -121.633346 
L 327.687457 -119.187373 
L 327.608264 -116.7414 
L 327.49254 -114.295427 
L 327.340832 -111.849454 
L 327.168905 -109.403481 
L 327.004837 -106.957508 
L 326.877486 -104.511535 
L 326.802098 -102.065562 
L 326.768119 -99.619589 
L 326.728682 -97.173615 
L 326.586663 -94.727642 
L 326.175283 -92.281669 
L 325.243418 -89.835696 
L 323.468938 -87.389723 
L 320.522699 -84.94375 
L 316.18245 -82.497777 
L 310.458138 -80.051804 
L 303.663996 -77.605831 
L 296.383805 -75.159858 
L 289.32627 -72.713884 
L 283.128165 -70.267911 
L 278.192524 -67.821938 
L 274.626808 -65.375965 
L 272.288987 -62.929992 
L 270.897703 -60.484019 
z
" style="stroke: #4b4b4b; stroke-width: 1.25"/>
    </defs>
    <g clip-path="url(#pb9fdfa6db1)">
     <use xlink:href="#mcf305e374d" x="0" y="343.9975" style="fill: #d7962e; stroke: #4b4b4b; stroke-width: 1.25"/>
    </g>
   </g>
   <g id="FillBetweenPolyCollection_3">
    <defs>
     <path id="m7e90e07550" d="M 419.536722 -58.237396 
L 417.085778 -58.237396 
L 416.012692 -60.728755 
L 414.27769 -63.220115 
L 411.677713 -65.711474 
L 408.066368 -68.202833 
L 403.416948 -70.694193 
L 397.869231 -73.185552 
L 391.735952 -75.676912 
L 385.457138 -78.168271 
L 379.511611 -80.659631 
L 374.314248 -83.15099 
L 370.133895 -85.642349 
L 367.056983 -88.133709 
L 365.001898 -90.625068 
L 363.770496 -93.116428 
L 363.11423 -95.607787 
L 362.794346 -98.099147 
L 362.623708 -100.590506 
L 362.4862 -103.081865 
L 362.335503 -105.573225 
L 362.178454 -108.064584 
L 362.050082 -110.555944 
L 361.988244 -113.047303 
L 362.014945 -115.538663 
L 362.128974 -118.030022 
L 362.310683 -120.521381 
L 362.535304 -123.012741 
L 362.787643 -125.5041 
L 363.069968 -127.99546 
L 363.398004 -130.486819 
L 363.786345 -132.978179 
L 364.230994 -135.469538 
L 364.699111 -137.960897 
L 365.132501 -140.452257 
L 365.464115 -142.943616 
L 365.640113 -145.434976 
L 365.637608 -147.926335 
L 365.470784 -150.417695 
L 365.183703 -152.909054 
L 364.833802 -155.400413 
L 364.473313 -157.891773 
L 364.135762 -160.383132 
L 363.831779 -162.874492 
L 363.554264 -165.365851 
L 363.289332 -167.857211 
L 363.027748 -170.34857 
L 362.77212 -172.839929 
L 362.537411 -175.331289 
L 362.345221 -177.822648 
L 362.21448 -180.314008 
L 362.152235 -182.805367 
L 362.147831 -185.296727 
L 362.17275 -187.788086 
L 362.186756 -190.279446 
L 362.149266 -192.770805 
L 362.032815 -195.262164 
L 361.833769 -197.753524 
L 361.575188 -200.244883 
L 361.298969 -202.736243 
L 361.049038 -205.227602 
L 360.852322 -207.718962 
L 360.706499 -210.210321 
L 360.581006 -212.70168 
L 360.431375 -215.19304 
L 360.220266 -217.684399 
L 359.935513 -220.175759 
L 359.597676 -222.667118 
L 359.255128 -225.158478 
L 358.970073 -227.649837 
L 358.801545 -230.141196 
L 358.79125 -232.632556 
L 358.956061 -235.123915 
L 359.2883 -237.615275 
L 359.762113 -240.106634 
L 360.342099 -242.597994 
L 360.990026 -245.089353 
L 361.667547 -247.580712 
L 362.336271 -250.072072 
L 362.958893 -252.563431 
L 363.504391 -255.054791 
L 363.957139 -257.54615 
L 364.326706 -260.03751 
L 364.654798 -262.528869 
L 365.018258 -265.020228 
L 365.52966 -267.511588 
L 366.336655 -270.002947 
L 367.617303 -272.494307 
L 369.564247 -274.985666 
L 372.350921 -277.477026 
L 376.080672 -279.968385 
L 380.732474 -282.459744 
L 386.126764 -284.951104 
L 391.933622 -287.442463 
L 397.730212 -289.933823 
L 403.092033 -292.425182 
L 407.685617 -294.916542 
L 411.329432 -297.407901 
L 414.00515 -299.89926 
L 415.823805 -302.39062 
L 416.967878 -304.881979 
L 419.654622 -304.881979 
L 419.654622 -304.881979 
L 420.798695 -302.39062 
L 422.61735 -299.89926 
L 425.293068 -297.407901 
L 428.936883 -294.916542 
L 433.530467 -292.425182 
L 438.892288 -289.933823 
L 444.688878 -287.442463 
L 450.495736 -284.951104 
L 455.890026 -282.459744 
L 460.541828 -279.968385 
L 464.271579 -277.477026 
L 467.058253 -274.985666 
L 469.005197 -272.494307 
L 470.285845 -270.002947 
L 471.09284 -267.511588 
L 471.604242 -265.020228 
L 471.967702 -262.528869 
L 472.295794 -260.03751 
L 472.665361 -257.54615 
L 473.118109 -255.054791 
L 473.663607 -252.563431 
L 474.286229 -250.072072 
L 474.954953 -247.580712 
L 475.632474 -245.089353 
L 476.280401 -242.597994 
L 476.860387 -240.106634 
L 477.3342 -237.615275 
L 477.666439 -235.123915 
L 477.83125 -232.632556 
L 477.820955 -230.141196 
L 477.652427 -227.649837 
L 477.367372 -225.158478 
L 477.024824 -222.667118 
L 476.686987 -220.175759 
L 476.402234 -217.684399 
L 476.191125 -215.19304 
L 476.041494 -212.70168 
L 475.916001 -210.210321 
L 475.770178 -207.718962 
L 475.573462 -205.227602 
L 475.323531 -202.736243 
L 475.047312 -200.244883 
L 474.788731 -197.753524 
L 474.589685 -195.262164 
L 474.473234 -192.770805 
L 474.435744 -190.279446 
L 474.44975 -187.788086 
L 474.474669 -185.296727 
L 474.470265 -182.805367 
L 474.40802 -180.314008 
L 474.277279 -177.822648 
L 474.085089 -175.331289 
L 473.85038 -172.839929 
L 473.594752 -170.34857 
L 473.333168 -167.857211 
L 473.068236 -165.365851 
L 472.790721 -162.874492 
L 472.486738 -160.383132 
L 472.149187 -157.891773 
L 471.788698 -155.400413 
L 471.438797 -152.909054 
L 471.151716 -150.417695 
L 470.984892 -147.926335 
L 470.982387 -145.434976 
L 471.158385 -142.943616 
L 471.489999 -140.452257 
L 471.923389 -137.960897 
L 472.391506 -135.469538 
L 472.836155 -132.978179 
L 473.224496 -130.486819 
L 473.552532 -127.99546 
L 473.834857 -125.5041 
L 474.087196 -123.012741 
L 474.311817 -120.521381 
L 474.493526 -118.030022 
L 474.607555 -115.538663 
L 474.634256 -113.047303 
L 474.572418 -110.555944 
L 474.444046 -108.064584 
L 474.286997 -105.573225 
L 474.1363 -103.081865 
L 473.998792 -100.590506 
L 473.828154 -98.099147 
L 473.50827 -95.607787 
L 472.852004 -93.116428 
L 471.620602 -90.625068 
L 469.565517 -88.133709 
L 466.488605 -85.642349 
L 462.308252 -83.15099 
L 457.110889 -80.659631 
L 451.165362 -78.168271 
L 444.886548 -75.676912 
L 438.753269 -73.185552 
L 433.205552 -70.694193 
L 428.556132 -68.202833 
L 424.944787 -65.711474 
L 422.34481 -63.220115 
L 420.609808 -60.728755 
L 419.536722 -58.237396 
z
" style="stroke: #4b4b4b; stroke-width: 1.25"/>
    </defs>
    <g clip-path="url(#pb9fdfa6db1)">
     <use xlink:href="#m7e90e07550" x="0" y="343.9975" style="fill: #d25d51; stroke: #4b4b4b; stroke-width: 1.25"/>
    </g>
   </g>
   <g id="line2d_7">
    <path d="M 120.71125 267.842792 
L 120.71125 57.032833 
" clip-path="url(#pb9fdfa6db1)" style="fill: none; stroke: #4b4b4b; stroke-width: 1.875; stroke-linecap: round"/>
   </g>
   <g id="line2d_8">
    <path d="M 120.71125 215.77912 
L 120.71125 111.332368 
" clip-path="url(#pb9fdfa6db1)" style="fill: none; stroke: #4b4b4b; stroke-width: 5.625; stroke-linecap: round"/>
   </g>
   <g id="line2d_9">
    <path d="M 120.71125 163.502509 
" clip-path="url(#pb9fdfa6db1)" style="fill: none; stroke: #4b4b4b; stroke-width: 1.5; stroke-linecap: round"/>
    <defs>
     <path id="me7ca945bfc" d="M 2.34375 0 
L -2.34375 -0 
" style="stroke: #ffffff; stroke-width: 1.125"/>
    </defs>
    <g clip-path="url(#pb9fdfa6db1)">
     <use xlink:href="#me7ca945bfc" x="120.71125" y="163.502509" style="fill: #ffffff; stroke: #ffffff; stroke-width: 1.125"/>
    </g>
   </g>
   <g id="line2d_10">
    <path d="M 269.51125 267.842792 
L 269.51125 57.032833 
" clip-path="url(#pb9fdfa6db1)" style="fill: none; stroke: #4b4b4b; stroke-width: 1.875; stroke-linecap: round"/>
   </g>
   <g id="line2d_11">
    <path d="M 269.51125 215.246772 
L 269.51125 109.841792 
" clip-path="url(#pb9fdfa6db1)" style="fill: none; stroke: #4b4b4b; stroke-width: 5.625; stroke-linecap: round"/>
   </g>
   <g id="line2d_12">
    <path d="M 269.51125 162.224873 
" clip-path="url(#pb9fdfa6db1)" style="fill: none; stroke: #4b4b4b; stroke-width: 1.5; stroke-linecap: round"/>
    <g clip-path="url(#pb9fdfa6db1)">
     <use xlink:href="#me7ca945bfc" x="269.51125" y="162.224873" style="fill: #ffffff; stroke: #ffffff; stroke-width: 1.125"/>
    </g>
   </g>
   <g id="line2d_13">
    <path d="M 418.31125 267.842792 
L 418.31125 57.032833 
" clip-path="url(#pb9fdfa6db1)" style="fill: none; stroke: #4b4b4b; stroke-width: 1.875; stroke-linecap: round"/>
   </g>
   <g id="line2d_14">
    <path d="M 418.31125 215.033833 
L 418.31125 110.054732 
" clip-path="url(#pb9fdfa6db1)" style="fill: none; stroke: #4b4b4b; stroke-width: 5.625; stroke-linecap: round"/>
   </g>
   <g id="line2d_15">
    <path d="M 418.31125 161.373116 
" clip-path="url(#pb9fdfa6db1)" style="fill: none; stroke: #4b4b4b; stroke-width: 1.5; stroke-linecap: round"/>
    <g clip-path="url(#pb9fdfa6db1)">
     <use xlink:href="#me7ca945bfc" x="418.31125" y="161.373116" style="fill: #ffffff; stroke: #ffffff; stroke-width: 1.125"/>
    </g>
   </g>
   <g id="patch_3">
    <path d="M 46.31125 301.037813 
L 46.31125 23.837812 
" style="fill: none; stroke: #cccccc; stroke-width: 1.25; stroke-linejoin: miter; stroke-linecap: square"/>
   </g>
   <g id="patch_4">
    <path d="M 492.71125 301.037813 
L 492.71125 23.837812 
" style="fill: none; stroke: #cccccc; stroke-width: 1.25; stroke-linejoin: miter; stroke-linecap: square"/>
   </g>
   <g id="patch_5">
    <path d="M 46.31125 301.037812 
L 492.71125 301.037812 
" style="fill: none; stroke: #cccccc; stroke-width: 1.25; stroke-linejoin: miter; stroke-linecap: square"/>
   </g>
   <g id="patch_6">
    <path d="M 46.31125 23.837812 
L 492.71125 23.837812 
" style="fill: none; stroke: #cccccc; stroke-width: 1.25; stroke-linejoin: miter; stroke-linecap: square"/>
   </g>
   <g id="text_12">
    <!-- Q1: Mortality Distribution by Urbanization Tier -->
    <g style="fill: #262626" transform="translate(107.957812 17.837812) scale(0.14 -0.14)">
     <defs>
      <path id="DejaVuSans-51" d="M 2522 4238 
Q 1834 4238 1429 3725 
Q 1025 3213 1025 2328 
Q 1025 1447 1429 934 
Q 1834 422 2522 422 
Q 3209 422 3611 934 
Q 4013 1447 4013 2328 
Q 4013 3213 3611 3725 
Q 3209 4238 2522 4238 
z
M 3406 84 
L 4238 -825 
L 3475 -825 
L 2784 -78 
Q 2681 -84 2626 -87 
Q 2572 -91 2522 -91 
Q 1538 -91 948 567 
Q 359 1225 359 2328 
Q 359 3434 948 4092 
Q 1538 4750 2522 4750 
Q 3503 4750 4090 4092 
Q 4678 3434 4678 2328 
Q 4678 1516 4351 937 
Q 4025 359 3406 84 
z
" transform="scale(0.015625)"/>
      <path id="DejaVuSans-3a" d="M 750 794 
L 1409 794 
L 1409 0 
L 750 0 
L 750 794 
z
M 750 3309 
L 1409 3309 
L 1409 2516 
L 750 2516 
L 750 3309 
z
" transform="scale(0.015625)"/>
      <path id="DejaVuSans-44" d="M 1259 4147 
L 1259 519 
L 2022 519 
Q 2988 519 3436 956 
Q 3884 1394 3884 2338 
Q 3884 3275 3436 3711 
Q 2988 4147 2022 4147 
L 1259 4147 
z
M 628 4666 
L 1925 4666 
Q 3281 4666 3915 4102 
Q 4550 3538 4550 2338 
Q 4550 1131 3912 565 
Q 3275 0 1925 0 
L 628 0 
L 628 4666 
z
" transform="scale(0.015625)"/>
      <path id="DejaVuSans-73" d="M 2834 3397 
L 2834 2853 
Q 2591 2978 2328 3040 
Q 2066 3103 1784 3103 
Q 1356 3103 1142 2972 
Q 928 2841 928 2578 
Q 928 2378 1081 2264 
Q 1234 2150 1697 2047 
L 1894 2003 
Q 2506 1872 2764 1633 
Q 3022 1394 3022 966 
Q 3022 478 2636 193 
Q 2250 -91 1575 -91 
Q 1294 -91 989 -36 
Q 684 19 347 128 
L 347 722 
Q 666 556 975 473 
Q 1284 391 1588 391 
Q 1994 391 2212 530 
Q 2431 669 2431 922 
Q 2431 1156 2273 1281 
Q 2116 1406 1581 1522 
L 1381 1569 
Q 847 1681 609 1914 
Q 372 2147 372 2553 
Q 372 3047 722 3315 
Q 1072 3584 1716 3584 
Q 2034 3584 2315 3537 
Q 2597 3491 2834 3397 
z
" transform="scale(0.015625)"/>
     </defs>
     <use xlink:href="#DejaVuSans-51"/>
     <use xlink:href="#DejaVuSans-31" transform="translate(78.710938 0)"/>
     <use xlink:href="#DejaVuSans-3a" transform="translate(142.333984 0)"/>
     <use xlink:href="#DejaVuSans-20" transform="translate(176.025391 0)"/>
     <use xlink:href="#DejaVuSans-4d" transform="translate(207.8125 0)"/>
     <use xlink:href="#DejaVuSans-6f" transform="translate(294.091797 0)"/>
     <use xlink:href="#DejaVuSans-72" transform="translate(355.273438 0)"/>
     <use xlink:href="#DejaVuSans-74" transform="translate(396.386719 0)"/>
     <use xlink:href="#DejaVuSans-61" transform="translate(435.595703 0)"/>
     <use xlink:href="#DejaVuSans-6c" transform="translate(496.875 0)"/>
     <use xlink:href="#DejaVuSans-69" transform="translate(524.658203 0)"/>
     <use xlink:href="#DejaVuSans-74" transform="translate(552.441406 0)"/>
     <use xlink:href="#DejaVuSans-79" transform="translate(591.650391 0)"/>
     <use xlink:href="#DejaVuSans-20" transform="translate(650.830078 0)"/>
     <use xlink:href="#DejaVuSans-44" transform="translate(682.617188 0)"/>
     <use xlink:href="#DejaVuSans-69" transform="translate(759.619141 0)"/>
     <use xlink:href="#DejaVuSans-73" transform="translate(787.402344 0)"/>
     <use xlink:href="#DejaVuSans-74" transform="translate(839.501953 0)"/>
     <use xlink:href="#DejaVuSans-72" transform="translate(878.710938 0)"/>
     <use xlink:href="#DejaVuSans-69" transform="translate(919.824219 0)"/>
     <use xlink:href="#DejaVuSans-62" transform="translate(947.607422 0)"/>
     <use xlink:href="#DejaVuSans-75" transform="translate(1011.083984 0)"/>
     <use xlink:href="#DejaVuSans-74" transform="translate(1074.462891 0)"/>
     <use xlink:href="#DejaVuSans-69" transform="translate(1113.671875 0)"/>
     <use xlink:href="#DejaVuSans-6f" transform="translate(1141.455078 0)"/>
     <use xlink:href="#DejaVuSans-6e" transform="translate(1202.636719 0)"/>
     <use xlink:href="#DejaVuSans-20" transform="translate(1266.015625 0)"/>
     <use xlink:href="#DejaVuSans-62" transform="translate(1297.802734 0)"/>
     <use xlink:href="#DejaVuSans-79" transform="translate(1361.279297 0)"/>
     <use xlink:href="#DejaVuSans-20" transform="translate(1420.458984 0)"/>
     <use xlink:href="#DejaVuSans-55" transform="translate(1452.246094 0)"/>
     <use xlink:href="#DejaVuSans-72" transform="translate(1525.439453 0)"/>
     <use xlink:href="#DejaVuSans-62" transform="translate(1566.552734 0)"/>
     <use xlink:href="#DejaVuSans-61" transform="translate(1630.029297 0)"/>
     <use xlink:href="#DejaVuSans-6e" transform="translate(1691.308594 0)"/>
     <use xlink:href="#DejaVuSans-69" transform="translate(1754.6875 0)"/>
     <use xlink:href="#DejaVuSans-7a" transform="translate(1782.470703 0)"/>
     <use xlink:href="#DejaVuSans-61" transform="translate(1834.960938 0)"/>
     <use xlink:href="#DejaVuSans-74" transform="translate(1896.240234 0)"/>
     <use xlink:href="#DejaVuSans-69" transform="translate(1935.449219 0)"/>
     <use xlink:href="#DejaVuSans-6f" transform="translate(1963.232422 0)"/>
     <use xlink:href="#DejaVuSans-6e" transform="translate(2024.414062 0)"/>
     <use xlink:href="#DejaVuSans-20" transform="translate(2087.792969 0)"/>
     <use xlink:href="#DejaVuSans-54" transform="translate(2119.580078 0)"/>
     <use xlink:href="#DejaVuSans-69" transform="translate(2177.539062 0)"/>
     <use xlink:href="#DejaVuSans-65" transform="translate(2205.322266 0)"/>
     <use xlink:href="#DejaVuSans-72" transform="translate(2266.845703 0)"/>
    </g>
   </g>
  </g>
 </g>
 <defs>
  <clipPath id="pb9fdfa6db1">
   <rect x="46.31125" y="23.837812" width="446.4" height="277.2"/>
  </clipPath>
 </defs>
</svg>
