<?xml version="1.0" encoding="utf-8" standalone="no"?>
<!DOCTYPE svg PUBLIC "-//W3C//DTD SVG 1.1//EN"
  "http://www.w3.org/Graphics/SVG/1.1/DTD/svg11.dtd">
<svg xmlns:xlink="http://www.w3.org/1999/xlink" width="1142.508438pt" height="565.499687pt" viewBox="0 0 1142.508438 565.499687" xmlns="http://www.w3.org/2000/svg" version="1.1">
 <metadata>
  <rdf:RDF xmlns:dc="http://purl.org/dc/elements/1.1/" xmlns:cc="http://creativecommons.org/ns#" xmlns:rdf="http://www.w3.org/1999/02/22-rdf-syntax-ns#">
   <cc:Work>
    <dc:type rdf:resource="http://purl.org/dc/dcmitype/StillImage"/>
    <dc:date>2026-02-24T15:56:05.472163</dc:date>
    <dc:format>image/svg+xml</dc:format>
    <dc:creator>
     <cc:Agent>
      <dc:title>Matplotlib v3.10.8, https://matplotlib.org/</dc:title>
     </cc:Agent>
    </dc:creator>
   </cc:Work>
  </rdf:RDF>
 </metadata>
 <defs>
  <style type="text/css">*{stroke-linejoin: round; stroke-linecap: butt}</style>
 </defs>
 <g id="figure_1">
  <g id="patch_1">
   <path d="M 0 565.499687 
L 1142.508438 565.499687 
L 1142.508438 0 
L 0 0 
z
" style="fill: #ffffff"/>
  </g>
  <g id="axes_1">
   <g id="patch_2">
    <path d="M 86.498438 522.54 
L 604.963437 522.54 
L 604.963437 49.92 
L 86.498438 49.92 
z
" style="fill: #ffffff"/>
   </g>
   <g id="matplotlib.axis_1">
    <g id="xtick_1">
     <g id="line2d_1">
      <path d="M 180.459967 522.54 
L 180.459967 49.92 
" clip-path="url(#p30d0c37cab)" style="fill: none; stroke: #cccccc; stroke-linecap: round"/>
     </g>
     <g id="text_1">
      <!-- 5.02 -->
      <g style="fill: #262626" transform="translate(168.213874 540.398281) scale(0.11 -0.11)">
       <defs>
        <path id="DejaVuSans-35" d="M 691 4666 
L 3169 4666 
L 3169 4134 
L 1269 4134 
L 1269 2991 
Q 1406 3038 1543 3061 
Q 1681 3084 1819 3084 
Q 2600 3084 3056 2656 
Q 3513 2228 3513 1497 
Q 3513 744 3044 326 
Q 2575 -91 1722 -91 
Q 1428 -91 1123 -41 
Q 819 9 494 109 
L 494 744 
Q 775 591 1075 516 
Q 1375 441 1709 441 
Q 2250 441 2565 725 
Q 2881 1009 2881 1497 
Q 2881 1984 2565 2268 
Q 2250 2553 1709 2553 
Q 1456 2553 1204 2497 
Q 953 2441 691 2322 
L 691 4666 
z
" transform="scale(0.015625)"/>
        <path id="DejaVuSans-2e" d="M 684 794 
L 1344 794 
L 1344 0 
L 684 0 
L 684 794 
z
" transform="scale(0.015625)"/>
        <path id="DejaVuSans-30" d="M 2034 4250 
Q 1547 4250 1301 3770 
Q 1056 3291 1056 2328 
Q 1056 1369 1301 889 
Q 1547 409 2034 409 
Q 2525 409 2770 889 
Q 3016 1369 3016 2328 
Q 3016 3291 2770 3770 
Q 2525 4250 2034 4250 
z
M 2034 4750 
Q 2819 4750 3233 4129 
Q 3647 3509 3647 2328 
Q 3647 1150 3233 529 
Q 2819 -91 2034 -91 
Q 1250 -91 836 529 
Q 422 1150 422 2328 
Q 422 3509 836 4129 
Q 1250 4750 2034 4750 
z
" transform="scale(0.015625)"/>
        <path id="DejaVuSans-32" d="M 1228 531 
L 3431 531 
L 3431 0 
L 469 0 
L 469 531 
Q 828 903 1448 1529 
Q 2069 2156 2228 2338 
Q 2531 2678 2651 2914 
Q 2772 3150 2772 3378 
Q 2772 3750 2511 3984 
Q 2250 4219 1831 4219 
Q 1534 4219 1204 4116 
Q 875 4013 500 3803 
L 500 4441 
Q 881 4594 1212 4672 
Q 1544 4750 1819 4750 
Q 2544 4750 2975 4387 
Q 3406 4025 3406 3419 
Q 3406 3131 3298 2873 
Q 3191 2616 2906 2266 
Q 2828 2175 2409 1742 
Q 1991 1309 1228 531 
z
" transform="scale(0.015625)"/>
       </defs>
       <use xlink:href="#DejaVuSans-35"/>
       <use xlink:href="#DejaVuSans-2e" transform="translate(63.623047 0)"/>
       <use xlink:href="#DejaVuSans-30" transform="translate(95.410156 0)"/>
       <use xlink:href="#DejaVuSans-32" transform="translate(159.033203 0)"/>
      </g>
     </g>
    </g>
    <g id="xtick_2">
     <g id="line2d_2">
      <path d="M 280.732011 522.54 
L 280.732011 49.92 
" clip-path="url(#p30d0c37cab)" style="fill: none; stroke: #cccccc; stroke-linecap: round"/>
     </g>
     <g id="text_2">
      <!-- 5.04 -->
      <g style="fill: #262626" transform="translate(268.485917 540.398281) scale(0.11 -0.11)">
       <defs>
        <path id="DejaVuSans-34" d="M 2419 4116 
L 825 1625 
L 2419 1625 
L 2419 4116 
z
M 2253 4666 
L 3047 4666 
L 3047 1625 
L 3713 1625 
L 3713 1100 
L 3047 1100 
L 3047 0 
L 2419 0 
L 2419 1100 
L 313 1100 
L 313 1709 
L 2253 4666 
z
" transform="scale(0.015625)"/>
       </defs>
       <use xlink:href="#DejaVuSans-35"/>
       <use xlink:href="#DejaVuSans-2e" transform="translate(63.623047 0)"/>
       <use xlink:href="#DejaVuSans-30" transform="translate(95.410156 0)"/>
       <use xlink:href="#DejaVuSans-34" transform="translate(159.033203 0)"/>
      </g>
     </g>
    </g>
    <g id="xtick_3">
     <g id="line2d_3">
      <path d="M 381.004054 522.54 
L 381.004054 49.92 
" clip-path="url(#p30d0c37cab)" style="fill: none; stroke: #cccccc; stroke-linecap: round"/>
     </g>
     <g id="text_3">
      <!-- 5.06 -->
      <g style="fill: #262626" transform="translate(368.75796 540.398281) scale(0.11 -0.11)">
       <defs>
        <path id="DejaVuSans-36" d="M 2113 2584 
Q 1688 2584 1439 2293 
Q 1191 2003 1191 1497 
Q 1191 994 1439 701 
Q 1688 409 2113 409 
Q 2538 409 2786 701 
Q 3034 994 3034 1497 
Q 3034 2003 2786 2293 
Q 2538 2584 2113 2584 
z
M 3366 4563 
L 3366 3988 
Q 3128 4100 2886 4159 
Q 2644 4219 2406 4219 
Q 1781 4219 1451 3797 
Q 1122 3375 1075 2522 
Q 1259 2794 1537 2939 
Q 1816 3084 2150 3084 
Q 2853 3084 3261 2657 
Q 3669 2231 3669 1497 
Q 3669 778 3244 343 
Q 2819 -91 2113 -91 
Q 1303 -91 875 529 
Q 447 1150 447 2328 
Q 447 3434 972 4092 
Q 1497 4750 2381 4750 
Q 2619 4750 2861 4703 
Q 3103 4656 3366 4563 
z
" transform="scale(0.015625)"/>
       </defs>
       <use xlink:href="#DejaVuSans-35"/>
       <use xlink:href="#DejaVuSans-2e" transform="translate(63.623047 0)"/>
       <use xlink:href="#DejaVuSans-30" transform="translate(95.410156 0)"/>
       <use xlink:href="#DejaVuSans-36" transform="translate(159.033203 0)"/>
      </g>
     </g>
    </g>
    <g id="xtick_4">
     <g id="line2d_4">
      <path d="M 481.276098 522.54 
L 481.276098 49.92 
" clip-path="url(#p30d0c37cab)" style="fill: none; stroke: #cccccc; stroke-linecap: round"/>
     </g>
     <g id="text_4">
      <!-- 5.08 -->
      <g style="fill: #262626" transform="translate(469.030004 540.398281) scale(0.11 -0.11)">
       <defs>
        <path id="DejaVuSans-38" d="M 2034 2216 
Q 1584 2216 1326 1975 
Q 1069 1734 1069 1313 
Q 1069 891 1326 650 
Q 1584 409 2034 409 
Q 2484 409 2743 651 
Q 3003 894 3003 1313 
Q 3003 1734 2745 1975 
Q 2488 2216 2034 2216 
z
M 1403 2484 
Q 997 2584 770 2862 
Q 544 3141 544 3541 
Q 544 4100 942 4425 
Q 1341 4750 2034 4750 
Q 2731 4750 3128 4425 
Q 3525 4100 3525 3541 
Q 3525 3141 3298 2862 
Q 3072 2584 2669 2484 
Q 3125 2378 3379 2068 
Q 3634 1759 3634 1313 
Q 3634 634 3220 271 
Q 2806 -91 2034 -91 
Q 1263 -91 848 271 
Q 434 634 434 1313 
Q 434 1759 690 2068 
Q 947 2378 1403 2484 
z
M 1172 3481 
Q 1172 3119 1398 2916 
Q 1625 2713 2034 2713 
Q 2441 2713 2670 2916 
Q 2900 3119 2900 3481 
Q 2900 3844 2670 4047 
Q 2441 4250 2034 4250 
Q 1625 4250 1398 4047 
Q 1172 3844 1172 3481 
z
" transform="scale(0.015625)"/>
       </defs>
       <use xlink:href="#DejaVuSans-35"/>
       <use xlink:href="#DejaVuSans-2e" transform="translate(63.623047 0)"/>
       <use xlink:href="#DejaVuSans-30" transform="translate(95.410156 0)"/>
       <use xlink:href="#DejaVuSans-38" transform="translate(159.033203 0)"/>
      </g>
     </g>
    </g>
    <g id="xtick_5">
     <g id="line2d_5">
      <path d="M 581.548141 522.54 
L 581.548141 49.92 
" clip-path="url(#p30d0c37cab)" style="fill: none; stroke: #cccccc; stroke-linecap: round"/>
     </g>
     <g id="text_5">
      <!-- 5.10 -->
      <g style="fill: #262626" transform="translate(569.302047 540.398281) scale(0.11 -0.11)">
       <defs>
        <path id="DejaVuSans-31" d="M 794 531 
L 1825 531 
L 1825 4091 
L 703 3866 
L 703 4441 
L 1819 4666 
L 2450 4666 
L 2450 531 
L 3481 531 
L 3481 0 
L 794 0 
L 794 531 
z
" transform="scale(0.015625)"/>
       </defs>
       <use xlink:href="#DejaVuSans-35"/>
       <use xlink:href="#DejaVuSans-2e" transform="translate(63.623047 0)"/>
       <use xlink:href="#DejaVuSans-31" transform="translate(95.410156 0)"/>
       <use xlink:href="#DejaVuSans-30" transform="translate(159.033203 0)"/>
      </g>
     </g>
    </g>
    <g id="text_6">
     <!-- Mortality Rate (%) -->
     <g style="fill: #262626" transform="translate(291.198437 555.804062) scale(0.12 -0.12)">
      <defs>
       <path id="DejaVuSans-4d" d="M 628 4666 
L 1569 4666 
L 2759 1491 
L 3956 4666 
L 4897 4666 
L 4897 0 
L 4281 0 
L 4281 4097 
L 3078 897 
L 2444 897 
L 1241 4097 
L 1241 0 
L 628 0 
L 628 4666 
z
" transform="scale(0.015625)"/>
       <path id="DejaVuSans-6f" d="M 1959 3097 
Q 1497 3097 1228 2736 
Q 959 2375 959 1747 
Q 959 1119 1226 758 
Q 1494 397 1959 397 
Q 2419 397 2687 759 
Q 2956 1122 2956 1747 
Q 2956 2369 2687 2733 
Q 2419 3097 1959 3097 
z
M 1959 3584 
Q 2709 3584 3137 3096 
Q 3566 2609 3566 1747 
Q 3566 888 3137 398 
Q 2709 -91 1959 -91 
Q 1206 -91 779 398 
Q 353 888 353 1747 
Q 353 2609 779 3096 
Q 1206 3584 1959 3584 
z
" transform="scale(0.015625)"/>
       <path id="DejaVuSans-72" d="M 2631 2963 
Q 2534 3019 2420 3045 
Q 2306 3072 2169 3072 
Q 1681 3072 1420 2755 
Q 1159 2438 1159 1844 
L 1159 0 
L 581 0 
L 581 3500 
L 1159 3500 
L 1159 2956 
Q 1341 3275 1631 3429 
Q 1922 3584 2338 3584 
Q 2397 3584 2469 3576 
Q 2541 3569 2628 3553 
L 2631 2963 
z
" transform="scale(0.015625)"/>
       <path id="DejaVuSans-74" d="M 1172 4494 
L 1172 3500 
L 2356 3500 
L 2356 3053 
L 1172 3053 
L 1172 1153 
Q 1172 725 1289 603 
Q 1406 481 1766 481 
L 2356 481 
L 2356 0 
L 1766 0 
Q 1100 0 847 248 
Q 594 497 594 1153 
L 594 3053 
L 172 3053 
L 172 3500 
L 594 3500 
L 594 4494 
L 1172 4494 
z
" transform="scale(0.015625)"/>
       <path id="DejaVuSans-61" d="M 2194 1759 
Q 1497 1759 1228 1600 
Q 959 1441 959 1056 
Q 959 750 1161 570 
Q 1363 391 1709 391 
Q 2188 391 2477 730 
Q 2766 1069 2766 1631 
L 2766 1759 
L 2194 1759 
z
M 3341 1997 
L 3341 0 
L 2766 0 
L 2766 531 
Q 2569 213 2275 61 
Q 1981 -91 1556 -91 
Q 1019 -91 701 211 
Q 384 513 384 1019 
Q 384 1609 779 1909 
Q 1175 2209 1959 2209 
L 2766 2209 
L 2766 2266 
Q 2766 2663 2505 2880 
Q 2244 3097 1772 3097 
Q 1472 3097 1187 3025 
Q 903 2953 641 2809 
L 641 3341 
Q 956 3463 1253 3523 
Q 1550 3584 1831 3584 
Q 2591 3584 2966 3190 
Q 3341 2797 3341 1997 
z
" transform="scale(0.015625)"/>
       <path id="DejaVuSans-6c" d="M 603 4863 
L 1178 4863 
L 1178 0 
L 603 0 
L 603 4863 
z
" transform="scale(0.015625)"/>
       <path id="DejaVuSans-69" d="M 603 3500 
L 1178 3500 
L 1178 0 
L 603 0 
L 603 3500 
z
M 603 4863 
L 1178 4863 
L 1178 4134 
L 603 4134 
L 603 4863 
z
" transform="scale(0.015625)"/>
       <path id="DejaVuSans-79" d="M 2059 -325 
Q 1816 -950 1584 -1140 
Q 1353 -1331 966 -1331 
L 506 -1331 
L 506 -850 
L 844 -850 
Q 1081 -850 1212 -737 
Q 1344 -625 1503 -206 
L 1606 56 
L 191 3500 
L 800 3500 
L 1894 763 
L 2988 3500 
L 3597 3500 
L 2059 -325 
z
" transform="scale(0.015625)"/>
       <path id="DejaVuSans-20" transform="scale(0.015625)"/>
       <path id="DejaVuSans-52" d="M 2841 2188 
Q 3044 2119 3236 1894 
Q 3428 1669 3622 1275 
L 4263 0 
L 3584 0 
L 2988 1197 
Q 2756 1666 2539 1819 
Q 2322 1972 1947 1972 
L 1259 1972 
L 1259 0 
L 628 0 
L 628 4666 
L 2053 4666 
Q 2853 4666 3247 4331 
Q 3641 3997 3641 3322 
Q 3641 2881 3436 2590 
Q 3231 2300 2841 2188 
z
M 1259 4147 
L 1259 2491 
L 2053 2491 
Q 2509 2491 2742 2702 
Q 2975 2913 2975 3322 
Q 2975 3731 2742 3939 
Q 2509 4147 2053 4147 
L 1259 4147 
z
" transform="scale(0.015625)"/>
       <path id="DejaVuSans-65" d="M 3597 1894 
L 3597 1613 
L 953 1613 
Q 991 1019 1311 708 
Q 1631 397 2203 397 
Q 2534 397 2845 478 
Q 3156 559 3463 722 
L 3463 178 
Q 3153 47 2828 -22 
Q 2503 -91 2169 -91 
Q 1331 -91 842 396 
Q 353 884 353 1716 
Q 353 2575 817 3079 
Q 1281 3584 2069 3584 
Q 2775 3584 3186 3129 
Q 3597 2675 3597 1894 
z
M 3022 2063 
Q 3016 2534 2758 2815 
Q 2500 3097 2075 3097 
Q 1594 3097 1305 2825 
Q 1016 2553 972 2059 
L 3022 2063 
z
" transform="scale(0.015625)"/>
       <path id="DejaVuSans-28" d="M 1984 4856 
Q 1566 4138 1362 3434 
Q 1159 2731 1159 2009 
Q 1159 1288 1364 580 
Q 1569 -128 1984 -844 
L 1484 -844 
Q 1016 -109 783 600 
Q 550 1309 550 2009 
Q 550 2706 781 3412 
Q 1013 4119 1484 4856 
L 1984 4856 
z
" transform="scale(0.015625)"/>
       <path id="DejaVuSans-25" d="M 4653 2053 
Q 4381 2053 4226 1822 
Q 4072 1591 4072 1178 
Q 4072 772 4226 539 
Q 4381 306 4653 306 
Q 4919 306 5073 539 
Q 5228 772 5228 1178 
Q 5228 1588 5073 1820 
Q 4919 2053 4653 2053 
z
M 4653 2450 
Q 5147 2450 5437 2106 
Q 5728 1763 5728 1178 
Q 5728 594 5436 251 
Q 5144 -91 4653 -91 
Q 4153 -91 3862 251 
Q 3572 594 3572 1178 
Q 3572 1766 3864 2108 
Q 4156 2450 4653 2450 
z
M 1428 4353 
Q 1159 4353 1004 4120 
Q 850 3888 850 3481 
Q 850 3069 1003 2837 
Q 1156 2606 1428 2606 
Q 1700 2606 1854 2837 
Q 2009 3069 2009 3481 
Q 2009 3884 1853 4118 
Q 1697 4353 1428 4353 
z
M 4250 4750 
L 4750 4750 
L 1831 -91 
L 1331 -91 
L 4250 4750 
z
M 1428 4750 
Q 1922 4750 2215 4408 
Q 2509 4066 2509 3481 
Q 2509 2891 2217 2550 
Q 1925 2209 1428 2209 
Q 931 2209 642 2551 
Q 353 2894 353 3481 
Q 353 4063 643 4406 
Q 934 4750 1428 4750 
z
" transform="scale(0.015625)"/>
       <path id="DejaVuSans-29" d="M 513 4856 
L 1013 4856 
Q 1481 4119 1714 3412 
Q 1947 2706 1947 2009 
Q 1947 1309 1714 600 
Q 1481 -109 1013 -844 
L 513 -844 
Q 928 -128 1133 580 
Q 1338 1288 1338 2009 
Q 1338 2731 1133 3434 
Q 928 4138 513 4856 
z
" transform="scale(0.015625)"/>
      </defs>
      <use xlink:href="#DejaVuSans-4d"/>
      <use xlink:href="#DejaVuSans-6f" transform="translate(86.279297 0)"/>
      <use xlink:href="#DejaVuSans-72" transform="translate(147.460938 0)"/>
      <use xlink:href="#DejaVuSans-74" transform="translate(188.574219 0)"/>
      <use xlink:href="#DejaVuSans-61" transform="translate(227.783203 0)"/>
      <use xlink:href="#DejaVuSans-6c" transform="translate(289.0625 0)"/>
      <use xlink:href="#DejaVuSans-69" transform="translate(316.845703 0)"/>
      <use xlink:href="#DejaVuSans-74" transform="translate(344.628906 0)"/>
      <use xlink:href="#DejaVuSans-79" transform="translate(383.837891 0)"/>
      <use xlink:href="#DejaVuSans-20" transform="translate(443.017578 0)"/>
      <use xlink:href="#DejaVuSans-52" transform="translate(474.804688 0)"/>
      <use xlink:href="#DejaVuSans-61" transform="translate(542.037109 0)"/>
      <use xlink:href="#DejaVuSans-74" transform="translate(603.316406 0)"/>
      <use xlink:href="#DejaVuSans-65" transform="translate(642.525391 0)"/>
      <use xlink:href="#DejaVuSans-20" transform="translate(704.048828 0)"/>
      <use xlink:href="#DejaVuSans-28" transform="translate(735.835938 0)"/>
      <use xlink:href="#DejaVuSans-25" transform="translate(774.849609 0)"/>
      <use xlink:href="#DejaVuSans-29" transform="translate(869.869141 0)"/>
     </g>
    </g>
   </g>
   <g id="matplotlib.axis_2">
    <g id="ytick_1">
     <g id="line2d_6">
      <path d="M 86.498438 501.057273 
L 604.963437 501.057273 
" clip-path="url(#p30d0c37cab)" style="fill: none; stroke: #cccccc; stroke-linecap: round"/>
     </g>
     <g id="text_7">
      <!-- Russia -->
      <g style="fill: #262626" transform="translate(41.621406 505.236413) scale(0.11 -0.11)">
       <defs>
        <path id="DejaVuSans-75" d="M 544 1381 
L 544 3500 
L 1119 3500 
L 1119 1403 
Q 1119 906 1312 657 
Q 1506 409 1894 409 
Q 2359 409 2629 706 
Q 2900 1003 2900 1516 
L 2900 3500 
L 3475 3500 
L 3475 0 
L 2900 0 
L 2900 538 
Q 2691 219 2414 64 
Q 2138 -91 1772 -91 
Q 1169 -91 856 284 
Q 544 659 544 1381 
z
M 1991 3584 
L 1991 3584 
z
" transform="scale(0.015625)"/>
        <path id="DejaVuSans-73" d="M 2834 3397 
L 2834 2853 
Q 2591 2978 2328 3040 
Q 2066 3103 1784 3103 
Q 1356 3103 1142 2972 
Q 928 2841 928 2578 
Q 928 2378 1081 2264 
Q 1234 2150 1697 2047 
L 1894 2003 
Q 2506 1872 2764 1633 
Q 3022 1394 3022 966 
Q 3022 478 2636 193 
Q 2250 -91 1575 -91 
Q 1294 -91 989 -36 
Q 684 19 347 128 
L 347 722 
Q 666 556 975 473 
Q 1284 391 1588 391 
Q 1994 391 2212 530 
Q 2431 669 2431 922 
Q 2431 1156 2273 1281 
Q 2116 1406 1581 1522 
L 1381 1569 
Q 847 1681 609 1914 
Q 372 2147 372 2553 
Q 372 3047 722 3315 
Q 1072 3584 1716 3584 
Q 2034 3584 2315 3537 
Q 2597 3491 2834 3397 
z
" transform="scale(0.015625)"/>
       </defs>
       <use xlink:href="#DejaVuSans-52"/>
       <use xlink:href="#DejaVuSans-75" transform="translate(64.982422 0)"/>
       <use xlink:href="#DejaVuSans-73" transform="translate(128.361328 0)"/>
       <use xlink:href="#DejaVuSans-73" transform="translate(180.460938 0)"/>
       <use xlink:href="#DejaVuSans-69" transform="translate(232.560547 0)"/>
       <use xlink:href="#DejaVuSans-61" transform="translate(260.34375 0)"/>
      </g>
     </g>
    </g>
    <g id="ytick_2">
     <g id="line2d_7">
      <path d="M 86.498438 478.443876 
L 604.963437 478.443876 
" clip-path="url(#p30d0c37cab)" style="fill: none; stroke: #cccccc; stroke-linecap: round"/>
     </g>
     <g id="text_8">
      <!-- South Africa -->
      <g style="fill: #262626" transform="translate(10.168281 482.623016) scale(0.11 -0.11)">
       <defs>
        <path id="DejaVuSans-53" d="M 3425 4513 
L 3425 3897 
Q 3066 4069 2747 4153 
Q 2428 4238 2131 4238 
Q 1616 4238 1336 4038 
Q 1056 3838 1056 3469 
Q 1056 3159 1242 3001 
Q 1428 2844 1947 2747 
L 2328 2669 
Q 3034 2534 3370 2195 
Q 3706 1856 3706 1288 
Q 3706 609 3251 259 
Q 2797 -91 1919 -91 
Q 1588 -91 1214 -16 
Q 841 59 441 206 
L 441 856 
Q 825 641 1194 531 
Q 1563 422 1919 422 
Q 2459 422 2753 634 
Q 3047 847 3047 1241 
Q 3047 1584 2836 1778 
Q 2625 1972 2144 2069 
L 1759 2144 
Q 1053 2284 737 2584 
Q 422 2884 422 3419 
Q 422 4038 858 4394 
Q 1294 4750 2059 4750 
Q 2388 4750 2728 4690 
Q 3069 4631 3425 4513 
z
" transform="scale(0.015625)"/>
        <path id="DejaVuSans-68" d="M 3513 2113 
L 3513 0 
L 2938 0 
L 2938 2094 
Q 2938 2591 2744 2837 
Q 2550 3084 2163 3084 
Q 1697 3084 1428 2787 
Q 1159 2491 1159 1978 
L 1159 0 
L 581 0 
L 581 4863 
L 1159 4863 
L 1159 2956 
Q 1366 3272 1645 3428 
Q 1925 3584 2291 3584 
Q 2894 3584 3203 3211 
Q 3513 2838 3513 2113 
z
" transform="scale(0.015625)"/>
        <path id="DejaVuSans-41" d="M 2188 4044 
L 1331 1722 
L 3047 1722 
L 2188 4044 
z
M 1831 4666 
L 2547 4666 
L 4325 0 
L 3669 0 
L 3244 1197 
L 1141 1197 
L 716 0 
L 50 0 
L 1831 4666 
z
" transform="scale(0.015625)"/>
        <path id="DejaVuSans-66" d="M 2375 4863 
L 2375 4384 
L 1825 4384 
Q 1516 4384 1395 4259 
Q 1275 4134 1275 3809 
L 1275 3500 
L 2222 3500 
L 2222 3053 
L 1275 3053 
L 1275 0 
L 697 0 
L 697 3053 
L 147 3053 
L 147 3500 
L 697 3500 
L 697 3744 
Q 697 4328 969 4595 
Q 1241 4863 1831 4863 
L 2375 4863 
z
" transform="scale(0.015625)"/>
        <path id="DejaVuSans-63" d="M 3122 3366 
L 3122 2828 
Q 2878 2963 2633 3030 
Q 2388 3097 2138 3097 
Q 1578 3097 1268 2742 
Q 959 2388 959 1747 
Q 959 1106 1268 751 
Q 1578 397 2138 397 
Q 2388 397 2633 464 
Q 2878 531 3122 666 
L 3122 134 
Q 2881 22 2623 -34 
Q 2366 -91 2075 -91 
Q 1284 -91 818 406 
Q 353 903 353 1747 
Q 353 2603 823 3093 
Q 1294 3584 2113 3584 
Q 2378 3584 2631 3529 
Q 2884 3475 3122 3366 
z
" transform="scale(0.015625)"/>
       </defs>
       <use xlink:href="#DejaVuSans-53"/>
       <use xlink:href="#DejaVuSans-6f" transform="translate(63.476562 0)"/>
       <use xlink:href="#DejaVuSans-75" transform="translate(124.658203 0)"/>
       <use xlink:href="#DejaVuSans-74" transform="translate(188.037109 0)"/>
       <use xlink:href="#DejaVuSans-68" transform="translate(227.246094 0)"/>
       <use xlink:href="#DejaVuSans-20" transform="translate(290.625 0)"/>
       <use xlink:href="#DejaVuSans-41" transform="translate(322.412109 0)"/>
       <use xlink:href="#DejaVuSans-66" transform="translate(387.195312 0)"/>
       <use xlink:href="#DejaVuSans-72" transform="translate(422.400391 0)"/>
       <use xlink:href="#DejaVuSans-69" transform="translate(463.513672 0)"/>
       <use xlink:href="#DejaVuSans-63" transform="translate(491.296875 0)"/>
       <use xlink:href="#DejaVuSans-61" transform="translate(546.277344 0)"/>
      </g>
     </g>
    </g>
    <g id="ytick_3">
     <g id="line2d_8">
      <path d="M 86.498438 455.830478 
L 604.963437 455.830478 
" clip-path="url(#p30d0c37cab)" style="fill: none; stroke: #cccccc; stroke-linecap: round"/>
     </g>
     <g id="text_9">
      <!-- Saudi Arabia -->
      <g style="fill: #262626" transform="translate(7.2 460.009619) scale(0.11 -0.11)">
       <defs>
        <path id="DejaVuSans-64" d="M 2906 2969 
L 2906 4863 
L 3481 4863 
L 3481 0 
L 2906 0 
L 2906 525 
Q 2725 213 2448 61 
Q 2172 -91 1784 -91 
Q 1150 -91 751 415 
Q 353 922 353 1747 
Q 353 2572 751 3078 
Q 1150 3584 1784 3584 
Q 2172 3584 2448 3432 
Q 2725 3281 2906 2969 
z
M 947 1747 
Q 947 1113 1208 752 
Q 1469 391 1925 391 
Q 2381 391 2643 752 
Q 2906 1113 2906 1747 
Q 2906 2381 2643 2742 
Q 2381 3103 1925 3103 
Q 1469 3103 1208 2742 
Q 947 2381 947 1747 
z
" transform="scale(0.015625)"/>
        <path id="DejaVuSans-62" d="M 3116 1747 
Q 3116 2381 2855 2742 
Q 2594 3103 2138 3103 
Q 1681 3103 1420 2742 
Q 1159 2381 1159 1747 
Q 1159 1113 1420 752 
Q 1681 391 2138 391 
Q 2594 391 2855 752 
Q 3116 1113 3116 1747 
z
M 1159 2969 
Q 1341 3281 1617 3432 
Q 1894 3584 2278 3584 
Q 2916 3584 3314 3078 
Q 3713 2572 3713 1747 
Q 3713 922 3314 415 
Q 2916 -91 2278 -91 
Q 1894 -91 1617 61 
Q 1341 213 1159 525 
L 1159 0 
L 581 0 
L 581 4863 
L 1159 4863 
L 1159 2969 
z
" transform="scale(0.015625)"/>
       </defs>
       <use xlink:href="#DejaVuSans-53"/>
       <use xlink:href="#DejaVuSans-61" transform="translate(63.476562 0)"/>
       <use xlink:href="#DejaVuSans-75" transform="translate(124.755859 0)"/>
       <use xlink:href="#DejaVuSans-64" transform="translate(188.134766 0)"/>
       <use xlink:href="#DejaVuSans-69" transform="translate(251.611328 0)"/>
       <use xlink:href="#DejaVuSans-20" transform="translate(279.394531 0)"/>
       <use xlink:href="#DejaVuSans-41" transform="translate(311.181641 0)"/>
       <use xlink:href="#DejaVuSans-72" transform="translate(379.589844 0)"/>
       <use xlink:href="#DejaVuSans-61" transform="translate(420.703125 0)"/>
       <use xlink:href="#DejaVuSans-62" transform="translate(481.982422 0)"/>
       <use xlink:href="#DejaVuSans-69" transform="translate(545.458984 0)"/>
       <use xlink:href="#DejaVuSans-61" transform="translate(573.242188 0)"/>
      </g>
     </g>
    </g>
    <g id="ytick_4">
     <g id="line2d_9">
      <path d="M 86.498438 433.217081 
L 604.963437 433.217081 
" clip-path="url(#p30d0c37cab)" style="fill: none; stroke: #cccccc; stroke-linecap: round"/>
     </g>
     <g id="text_10">
      <!-- Italy -->
      <g style="fill: #262626" transform="translate(53.133594 437.396222) scale(0.11 -0.11)">
       <defs>
        <path id="DejaVuSans-49" d="M 628 4666 
L 1259 4666 
L 1259 0 
L 628 0 
L 628 4666 
z
" transform="scale(0.015625)"/>
       </defs>
       <use xlink:href="#DejaVuSans-49"/>
       <use xlink:href="#DejaVuSans-74" transform="translate(29.492188 0)"/>
       <use xlink:href="#DejaVuSans-61" transform="translate(68.701172 0)"/>
       <use xlink:href="#DejaVuSans-6c" transform="translate(129.980469 0)"/>
       <use xlink:href="#DejaVuSans-79" transform="translate(157.763672 0)"/>
      </g>
     </g>
    </g>
    <g id="ytick_5">
     <g id="line2d_10">
      <path d="M 86.498438 410.603684 
L 604.963437 410.603684 
" clip-path="url(#p30d0c37cab)" style="fill: none; stroke: #cccccc; stroke-linecap: round"/>
     </g>
     <g id="text_11">
      <!-- USA -->
      <g style="fill: #262626" transform="translate(54.233594 414.782825) scale(0.11 -0.11)">
       <defs>
        <path id="DejaVuSans-55" d="M 556 4666 
L 1191 4666 
L 1191 1831 
Q 1191 1081 1462 751 
Q 1734 422 2344 422 
Q 2950 422 3222 751 
Q 3494 1081 3494 1831 
L 3494 4666 
L 4128 4666 
L 4128 1753 
Q 4128 841 3676 375 
Q 3225 -91 2344 -91 
Q 1459 -91 1007 375 
Q 556 841 556 1753 
L 556 4666 
z
" transform="scale(0.015625)"/>
       </defs>
       <use xlink:href="#DejaVuSans-55"/>
       <use xlink:href="#DejaVuSans-53" transform="translate(73.193359 0)"/>
       <use xlink:href="#DejaVuSans-41" transform="translate(138.544922 0)"/>
      </g>
     </g>
    </g>
    <g id="ytick_6">
     <g id="line2d_11">
      <path d="M 86.498438 387.990287 
L 604.963437 387.990287 
" clip-path="url(#p30d0c37cab)" style="fill: none; stroke: #cccccc; stroke-linecap: round"/>
     </g>
     <g id="text_12">
      <!-- Canada -->
      <g style="fill: #262626" transform="translate(35.14 392.169428) scale(0.11 -0.11)">
       <defs>
        <path id="DejaVuSans-43" d="M 4122 4306 
L 4122 3641 
Q 3803 3938 3442 4084 
Q 3081 4231 2675 4231 
Q 1875 4231 1450 3742 
Q 1025 3253 1025 2328 
Q 1025 1406 1450 917 
Q 1875 428 2675 428 
Q 3081 428 3442 575 
Q 3803 722 4122 1019 
L 4122 359 
Q 3791 134 3420 21 
Q 3050 -91 2638 -91 
Q 1578 -91 968 557 
Q 359 1206 359 2328 
Q 359 3453 968 4101 
Q 1578 4750 2638 4750 
Q 3056 4750 3426 4639 
Q 3797 4528 4122 4306 
z
" transform="scale(0.015625)"/>
        <path id="DejaVuSans-6e" d="M 3513 2113 
L 3513 0 
L 2938 0 
L 2938 2094 
Q 2938 2591 2744 2837 
Q 2550 3084 2163 3084 
Q 1697 3084 1428 2787 
Q 1159 2491 1159 1978 
L 1159 0 
L 581 0 
L 581 3500 
L 1159 3500 
L 1159 2956 
Q 1366 3272 1645 3428 
Q 1925 3584 2291 3584 
Q 2894 3584 3203 3211 
Q 3513 2838 3513 2113 
z
" transform="scale(0.015625)"/>
       </defs>
       <use xlink:href="#DejaVuSans-43"/>
       <use xlink:href="#DejaVuSans-61" transform="translate(69.824219 0)"/>
       <use xlink:href="#DejaVuSans-6e" transform="translate(131.103516 0)"/>
       <use xlink:href="#DejaVuSans-61" transform="translate(194.482422 0)"/>
       <use xlink:href="#DejaVuSans-64" transform="translate(255.761719 0)"/>
       <use xlink:href="#DejaVuSans-61" transform="translate(319.238281 0)"/>
      </g>
     </g>
    </g>
    <g id="ytick_7">
     <g id="line2d_12">
      <path d="M 86.498438 365.37689 
L 604.963437 365.37689 
" clip-path="url(#p30d0c37cab)" style="fill: none; stroke: #cccccc; stroke-linecap: round"/>
     </g>
     <g id="text_13">
      <!-- South Korea -->
      <g style="fill: #262626" transform="translate(10.355625 369.556031) scale(0.11 -0.11)">
       <defs>
        <path id="DejaVuSans-4b" d="M 628 4666 
L 1259 4666 
L 1259 2694 
L 3353 4666 
L 4166 4666 
L 1850 2491 
L 4331 0 
L 3500 0 
L 1259 2247 
L 1259 0 
L 628 0 
L 628 4666 
z
" transform="scale(0.015625)"/>
       </defs>
       <use xlink:href="#DejaVuSans-53"/>
       <use xlink:href="#DejaVuSans-6f" transform="translate(63.476562 0)"/>
       <use xlink:href="#DejaVuSans-75" transform="translate(124.658203 0)"/>
       <use xlink:href="#DejaVuSans-74" transform="translate(188.037109 0)"/>
       <use xlink:href="#DejaVuSans-68" transform="translate(227.246094 0)"/>
       <use xlink:href="#DejaVuSans-20" transform="translate(290.625 0)"/>
       <use xlink:href="#DejaVuSans-4b" transform="translate(322.412109 0)"/>
       <use xlink:href="#DejaVuSans-6f" transform="translate(382.988281 0)"/>
       <use xlink:href="#DejaVuSans-72" transform="translate(444.169922 0)"/>
       <use xlink:href="#DejaVuSans-65" transform="translate(483.033203 0)"/>
       <use xlink:href="#DejaVuSans-61" transform="translate(544.556641 0)"/>
      </g>
     </g>
    </g>
    <g id="ytick_8">
     <g id="line2d_13">
      <path d="M 86.498438 342.763493 
L 604.963437 342.763493 
" clip-path="url(#p30d0c37cab)" style="fill: none; stroke: #cccccc; stroke-linecap: round"/>
     </g>
     <g id="text_14">
      <!-- Argentina -->
      <g style="fill: #262626" transform="translate(23.340781 346.942633) scale(0.11 -0.11)">
       <defs>
        <path id="DejaVuSans-67" d="M 2906 1791 
Q 2906 2416 2648 2759 
Q 2391 3103 1925 3103 
Q 1463 3103 1205 2759 
Q 947 2416 947 1791 
Q 947 1169 1205 825 
Q 1463 481 1925 481 
Q 2391 481 2648 825 
Q 2906 1169 2906 1791 
z
M 3481 434 
Q 3481 -459 3084 -895 
Q 2688 -1331 1869 -1331 
Q 1566 -1331 1297 -1286 
Q 1028 -1241 775 -1147 
L 775 -588 
Q 1028 -725 1275 -790 
Q 1522 -856 1778 -856 
Q 2344 -856 2625 -561 
Q 2906 -266 2906 331 
L 2906 616 
Q 2728 306 2450 153 
Q 2172 0 1784 0 
Q 1141 0 747 490 
Q 353 981 353 1791 
Q 353 2603 747 3093 
Q 1141 3584 1784 3584 
Q 2172 3584 2450 3431 
Q 2728 3278 2906 2969 
L 2906 3500 
L 3481 3500 
L 3481 434 
z
" transform="scale(0.015625)"/>
       </defs>
       <use xlink:href="#DejaVuSans-41"/>
       <use xlink:href="#DejaVuSans-72" transform="translate(68.408203 0)"/>
       <use xlink:href="#DejaVuSans-67" transform="translate(107.771484 0)"/>
       <use xlink:href="#DejaVuSans-65" transform="translate(171.248047 0)"/>
       <use xlink:href="#DejaVuSans-6e" transform="translate(232.771484 0)"/>
       <use xlink:href="#DejaVuSans-74" transform="translate(296.150391 0)"/>
       <use xlink:href="#DejaVuSans-69" transform="translate(335.359375 0)"/>
       <use xlink:href="#DejaVuSans-6e" transform="translate(363.142578 0)"/>
       <use xlink:href="#DejaVuSans-61" transform="translate(426.521484 0)"/>
      </g>
     </g>
    </g>
    <g id="ytick_9">
     <g id="line2d_14">
      <path d="M 86.498438 320.150096 
L 604.963437 320.150096 
" clip-path="url(#p30d0c37cab)" style="fill: none; stroke: #cccccc; stroke-linecap: round"/>
     </g>
     <g id="text_15">
      <!-- India -->
      <g style="fill: #262626" transform="translate(50.002031 324.329236) scale(0.11 -0.11)">
       <use xlink:href="#DejaVuSans-49"/>
       <use xlink:href="#DejaVuSans-6e" transform="translate(29.492188 0)"/>
       <use xlink:href="#DejaVuSans-64" transform="translate(92.871094 0)"/>
       <use xlink:href="#DejaVuSans-69" transform="translate(156.347656 0)"/>
       <use xlink:href="#DejaVuSans-61" transform="translate(184.130859 0)"/>
      </g>
     </g>
    </g>
    <g id="ytick_10">
     <g id="line2d_15">
      <path d="M 86.498438 297.536699 
L 604.963437 297.536699 
" clip-path="url(#p30d0c37cab)" style="fill: none; stroke: #cccccc; stroke-linecap: round"/>
     </g>
     <g id="text_16">
      <!-- Indonesia -->
      <g style="fill: #262626" transform="translate(23.801406 301.715839) scale(0.11 -0.11)">
       <use xlink:href="#DejaVuSans-49"/>
       <use xlink:href="#DejaVuSans-6e" transform="translate(29.492188 0)"/>
       <use xlink:href="#DejaVuSans-64" transform="translate(92.871094 0)"/>
       <use xlink:href="#DejaVuSans-6f" transform="translate(156.347656 0)"/>
       <use xlink:href="#DejaVuSans-6e" transform="translate(217.529297 0)"/>
       <use xlink:href="#DejaVuSans-65" transform="translate(280.908203 0)"/>
       <use xlink:href="#DejaVuSans-73" transform="translate(342.431641 0)"/>
       <use xlink:href="#DejaVuSans-69" transform="translate(394.53125 0)"/>
       <use xlink:href="#DejaVuSans-61" transform="translate(422.314453 0)"/>
      </g>
     </g>
    </g>
    <g id="ytick_11">
     <g id="line2d_16">
      <path d="M 86.498438 274.923301 
L 604.963437 274.923301 
" clip-path="url(#p30d0c37cab)" style="fill: none; stroke: #cccccc; stroke-linecap: round"/>
     </g>
     <g id="text_17">
      <!-- Nigeria -->
      <g style="fill: #262626" transform="translate(37.6425 279.102442) scale(0.11 -0.11)">
       <defs>
        <path id="DejaVuSans-4e" d="M 628 4666 
L 1478 4666 
L 3547 763 
L 3547 4666 
L 4159 4666 
L 4159 0 
L 3309 0 
L 1241 3903 
L 1241 0 
L 628 0 
L 628 4666 
z
" transform="scale(0.015625)"/>
       </defs>
       <use xlink:href="#DejaVuSans-4e"/>
       <use xlink:href="#DejaVuSans-69" transform="translate(74.804688 0)"/>
       <use xlink:href="#DejaVuSans-67" transform="translate(102.587891 0)"/>
       <use xlink:href="#DejaVuSans-65" transform="translate(166.064453 0)"/>
       <use xlink:href="#DejaVuSans-72" transform="translate(227.587891 0)"/>
       <use xlink:href="#DejaVuSans-69" transform="translate(268.701172 0)"/>
       <use xlink:href="#DejaVuSans-61" transform="translate(296.484375 0)"/>
      </g>
     </g>
    </g>
    <g id="ytick_12">
     <g id="line2d_17">
      <path d="M 86.498438 252.309904 
L 604.963437 252.309904 
" clip-path="url(#p30d0c37cab)" style="fill: none; stroke: #cccccc; stroke-linecap: round"/>
     </g>
     <g id="text_18">
      <!-- China -->
      <g style="fill: #262626" transform="translate(45.577969 256.489045) scale(0.11 -0.11)">
       <use xlink:href="#DejaVuSans-43"/>
       <use xlink:href="#DejaVuSans-68" transform="translate(69.824219 0)"/>
       <use xlink:href="#DejaVuSans-69" transform="translate(133.203125 0)"/>
       <use xlink:href="#DejaVuSans-6e" transform="translate(160.986328 0)"/>
       <use xlink:href="#DejaVuSans-61" transform="translate(224.365234 0)"/>
      </g>
     </g>
    </g>
    <g id="ytick_13">
     <g id="line2d_18">
      <path d="M 86.498438 229.696507 
L 604.963437 229.696507 
" clip-path="url(#p30d0c37cab)" style="fill: none; stroke: #cccccc; stroke-linecap: round"/>
     </g>
     <g id="text_19">
      <!-- Australia -->
      <g style="fill: #262626" transform="translate(28.344063 233.875648) scale(0.11 -0.11)">
       <use xlink:href="#DejaVuSans-41"/>
       <use xlink:href="#DejaVuSans-75" transform="translate(68.408203 0)"/>
       <use xlink:href="#DejaVuSans-73" transform="translate(131.787109 0)"/>
       <use xlink:href="#DejaVuSans-74" transform="translate(183.886719 0)"/>
       <use xlink:href="#DejaVuSans-72" transform="translate(223.095703 0)"/>
       <use xlink:href="#DejaVuSans-61" transform="translate(264.208984 0)"/>
       <use xlink:href="#DejaVuSans-6c" transform="translate(325.488281 0)"/>
       <use xlink:href="#DejaVuSans-69" transform="translate(353.271484 0)"/>
       <use xlink:href="#DejaVuSans-61" transform="translate(381.054688 0)"/>
      </g>
     </g>
    </g>
    <g id="ytick_14">
     <g id="line2d_19">
      <path d="M 86.498438 207.08311 
L 604.963437 207.08311 
" clip-path="url(#p30d0c37cab)" style="fill: none; stroke: #cccccc; stroke-linecap: round"/>
     </g>
     <g id="text_20">
      <!-- Japan -->
      <g style="fill: #262626" transform="translate(46.317031 211.262251) scale(0.11 -0.11)">
       <defs>
        <path id="DejaVuSans-4a" d="M 628 4666 
L 1259 4666 
L 1259 325 
Q 1259 -519 939 -900 
Q 619 -1281 -91 -1281 
L -331 -1281 
L -331 -750 
L -134 -750 
Q 284 -750 456 -515 
Q 628 -281 628 325 
L 628 4666 
z
" transform="scale(0.015625)"/>
        <path id="DejaVuSans-70" d="M 1159 525 
L 1159 -1331 
L 581 -1331 
L 581 3500 
L 1159 3500 
L 1159 2969 
Q 1341 3281 1617 3432 
Q 1894 3584 2278 3584 
Q 2916 3584 3314 3078 
Q 3713 2572 3713 1747 
Q 3713 922 3314 415 
Q 2916 -91 2278 -91 
Q 1894 -91 1617 61 
Q 1341 213 1159 525 
z
M 3116 1747 
Q 3116 2381 2855 2742 
Q 2594 3103 2138 3103 
Q 1681 3103 1420 2742 
Q 1159 2381 1159 1747 
Q 1159 1113 1420 752 
Q 1681 391 2138 391 
Q 2594 391 2855 752 
Q 3116 1113 3116 1747 
z
" transform="scale(0.015625)"/>
       </defs>
       <use xlink:href="#DejaVuSans-4a"/>
       <use xlink:href="#DejaVuSans-61" transform="translate(29.492188 0)"/>
       <use xlink:href="#DejaVuSans-70" transform="translate(90.771484 0)"/>
       <use xlink:href="#DejaVuSans-61" transform="translate(154.248047 0)"/>
       <use xlink:href="#DejaVuSans-6e" transform="translate(215.527344 0)"/>
      </g>
     </g>
    </g>
    <g id="ytick_15">
     <g id="line2d_20">
      <path d="M 86.498438 184.469713 
L 604.963437 184.469713 
" clip-path="url(#p30d0c37cab)" style="fill: none; stroke: #cccccc; stroke-linecap: round"/>
     </g>
     <g id="text_21">
      <!-- Mexico -->
      <g style="fill: #262626" transform="translate(38.586094 188.648854) scale(0.11 -0.11)">
       <defs>
        <path id="DejaVuSans-78" d="M 3513 3500 
L 2247 1797 
L 3578 0 
L 2900 0 
L 1881 1375 
L 863 0 
L 184 0 
L 1544 1831 
L 300 3500 
L 978 3500 
L 1906 2253 
L 2834 3500 
L 3513 3500 
z
" transform="scale(0.015625)"/>
       </defs>
       <use xlink:href="#DejaVuSans-4d"/>
       <use xlink:href="#DejaVuSans-65" transform="translate(86.279297 0)"/>
       <use xlink:href="#DejaVuSans-78" transform="translate(146.052734 0)"/>
       <use xlink:href="#DejaVuSans-69" transform="translate(205.232422 0)"/>
       <use xlink:href="#DejaVuSans-63" transform="translate(233.015625 0)"/>
       <use xlink:href="#DejaVuSans-6f" transform="translate(287.996094 0)"/>
      </g>
     </g>
    </g>
    <g id="ytick_16">
     <g id="line2d_21">
      <path d="M 86.498438 161.856316 
L 604.963437 161.856316 
" clip-path="url(#p30d0c37cab)" style="fill: none; stroke: #cccccc; stroke-linecap: round"/>
     </g>
     <g id="text_22">
      <!-- Germany -->
      <g style="fill: #262626" transform="translate(26.439688 166.035456) scale(0.11 -0.11)">
       <defs>
        <path id="DejaVuSans-47" d="M 3809 666 
L 3809 1919 
L 2778 1919 
L 2778 2438 
L 4434 2438 
L 4434 434 
Q 4069 175 3628 42 
Q 3188 -91 2688 -91 
Q 1594 -91 976 548 
Q 359 1188 359 2328 
Q 359 3472 976 4111 
Q 1594 4750 2688 4750 
Q 3144 4750 3555 4637 
Q 3966 4525 4313 4306 
L 4313 3634 
Q 3963 3931 3569 4081 
Q 3175 4231 2741 4231 
Q 1884 4231 1454 3753 
Q 1025 3275 1025 2328 
Q 1025 1384 1454 906 
Q 1884 428 2741 428 
Q 3075 428 3337 486 
Q 3600 544 3809 666 
z
" transform="scale(0.015625)"/>
        <path id="DejaVuSans-6d" d="M 3328 2828 
Q 3544 3216 3844 3400 
Q 4144 3584 4550 3584 
Q 5097 3584 5394 3201 
Q 5691 2819 5691 2113 
L 5691 0 
L 5113 0 
L 5113 2094 
Q 5113 2597 4934 2840 
Q 4756 3084 4391 3084 
Q 3944 3084 3684 2787 
Q 3425 2491 3425 1978 
L 3425 0 
L 2847 0 
L 2847 2094 
Q 2847 2600 2669 2842 
Q 2491 3084 2119 3084 
Q 1678 3084 1418 2786 
Q 1159 2488 1159 1978 
L 1159 0 
L 581 0 
L 581 3500 
L 1159 3500 
L 1159 2956 
Q 1356 3278 1631 3431 
Q 1906 3584 2284 3584 
Q 2666 3584 2933 3390 
Q 3200 3197 3328 2828 
z
" transform="scale(0.015625)"/>
       </defs>
       <use xlink:href="#DejaVuSans-47"/>
       <use xlink:href="#DejaVuSans-65" transform="translate(77.490234 0)"/>
       <use xlink:href="#DejaVuSans-72" transform="translate(139.013672 0)"/>
       <use xlink:href="#DejaVuSans-6d" transform="translate(178.376953 0)"/>
       <use xlink:href="#DejaVuSans-61" transform="translate(275.789062 0)"/>
       <use xlink:href="#DejaVuSans-6e" transform="translate(337.068359 0)"/>
       <use xlink:href="#DejaVuSans-79" transform="translate(400.447266 0)"/>
      </g>
     </g>
    </g>
    <g id="ytick_17">
     <g id="line2d_22">
      <path d="M 86.498438 139.242919 
L 604.963437 139.242919 
" clip-path="url(#p30d0c37cab)" style="fill: none; stroke: #cccccc; stroke-linecap: round"/>
     </g>
     <g id="text_23">
      <!-- Brazil -->
      <g style="fill: #262626" transform="translate(46.303281 143.422059) scale(0.11 -0.11)">
       <defs>
        <path id="DejaVuSans-42" d="M 1259 2228 
L 1259 519 
L 2272 519 
Q 2781 519 3026 730 
Q 3272 941 3272 1375 
Q 3272 1813 3026 2020 
Q 2781 2228 2272 2228 
L 1259 2228 
z
M 1259 4147 
L 1259 2741 
L 2194 2741 
Q 2656 2741 2882 2914 
Q 3109 3088 3109 3444 
Q 3109 3797 2882 3972 
Q 2656 4147 2194 4147 
L 1259 4147 
z
M 628 4666 
L 2241 4666 
Q 2963 4666 3353 4366 
Q 3744 4066 3744 3513 
Q 3744 3084 3544 2831 
Q 3344 2578 2956 2516 
Q 3422 2416 3680 2098 
Q 3938 1781 3938 1306 
Q 3938 681 3513 340 
Q 3088 0 2303 0 
L 628 0 
L 628 4666 
z
" transform="scale(0.015625)"/>
        <path id="DejaVuSans-7a" d="M 353 3500 
L 3084 3500 
L 3084 2975 
L 922 459 
L 3084 459 
L 3084 0 
L 275 0 
L 275 525 
L 2438 3041 
L 353 3041 
L 353 3500 
z
" transform="scale(0.015625)"/>
       </defs>
       <use xlink:href="#DejaVuSans-42"/>
       <use xlink:href="#DejaVuSans-72" transform="translate(68.603516 0)"/>
       <use xlink:href="#DejaVuSans-61" transform="translate(109.716797 0)"/>
       <use xlink:href="#DejaVuSans-7a" transform="translate(170.996094 0)"/>
       <use xlink:href="#DejaVuSans-69" transform="translate(223.486328 0)"/>
       <use xlink:href="#DejaVuSans-6c" transform="translate(251.269531 0)"/>
      </g>
     </g>
    </g>
    <g id="ytick_18">
     <g id="line2d_23">
      <path d="M 86.498438 116.629522 
L 604.963437 116.629522 
" clip-path="url(#p30d0c37cab)" style="fill: none; stroke: #cccccc; stroke-linecap: round"/>
     </g>
     <g id="text_24">
      <!-- UK -->
      <g style="fill: #262626" transform="translate(61.734219 120.808662) scale(0.11 -0.11)">
       <use xlink:href="#DejaVuSans-55"/>
       <use xlink:href="#DejaVuSans-4b" transform="translate(73.193359 0)"/>
      </g>
     </g>
    </g>
    <g id="ytick_19">
     <g id="line2d_24">
      <path d="M 86.498438 94.016124 
L 604.963437 94.016124 
" clip-path="url(#p30d0c37cab)" style="fill: none; stroke: #cccccc; stroke-linecap: round"/>
     </g>
     <g id="text_25">
      <!-- France -->
      <g style="fill: #262626" transform="translate(40.418281 98.195265) scale(0.11 -0.11)">
       <defs>
        <path id="DejaVuSans-46" d="M 628 4666 
L 3309 4666 
L 3309 4134 
L 1259 4134 
L 1259 2759 
L 3109 2759 
L 3109 2228 
L 1259 2228 
L 1259 0 
L 628 0 
L 628 4666 
z
" transform="scale(0.015625)"/>
       </defs>
       <use xlink:href="#DejaVuSans-46"/>
       <use xlink:href="#DejaVuSans-72" transform="translate(50.269531 0)"/>
       <use xlink:href="#DejaVuSans-61" transform="translate(91.382812 0)"/>
       <use xlink:href="#DejaVuSans-6e" transform="translate(152.662109 0)"/>
       <use xlink:href="#DejaVuSans-63" transform="translate(216.041016 0)"/>
       <use xlink:href="#DejaVuSans-65" transform="translate(271.021484 0)"/>
      </g>
     </g>
    </g>
    <g id="ytick_20">
     <g id="line2d_25">
      <path d="M 86.498438 71.402727 
L 604.963437 71.402727 
" clip-path="url(#p30d0c37cab)" style="fill: none; stroke: #cccccc; stroke-linecap: round"/>
     </g>
     <g id="text_26">
      <!-- Turkey -->
      <g style="fill: #262626" transform="translate(41.200313 75.581868) scale(0.11 -0.11)">
       <defs>
        <path id="DejaVuSans-54" d="M -19 4666 
L 3928 4666 
L 3928 4134 
L 2272 4134 
L 2272 0 
L 1638 0 
L 1638 4134 
L -19 4134 
L -19 4666 
z
" transform="scale(0.015625)"/>
        <path id="DejaVuSans-6b" d="M 581 4863 
L 1159 4863 
L 1159 1991 
L 2875 3500 
L 3609 3500 
L 1753 1863 
L 3688 0 
L 2938 0 
L 1159 1709 
L 1159 0 
L 581 0 
L 581 4863 
z
" transform="scale(0.015625)"/>
       </defs>
       <use xlink:href="#DejaVuSans-54"/>
       <use xlink:href="#DejaVuSans-75" transform="translate(45.958984 0)"/>
       <use xlink:href="#DejaVuSans-72" transform="translate(109.337891 0)"/>
       <use xlink:href="#DejaVuSans-6b" transform="translate(150.451172 0)"/>
       <use xlink:href="#DejaVuSans-65" transform="translate(204.736328 0)"/>
       <use xlink:href="#DejaVuSans-79" transform="translate(266.259766 0)"/>
      </g>
     </g>
    </g>
   </g>
   <g id="LineCollection_1">
    <path d="M 110.065028 501.057273 
L 360.04055 501.057273 
" clip-path="url(#p30d0c37cab)" style="fill: none; stroke: #2c3e50; stroke-width: 1.5"/>
    <path d="M 123.365654 478.443876 
L 374.807708 478.443876 
" clip-path="url(#p30d0c37cab)" style="fill: none; stroke: #2c3e50; stroke-width: 1.5"/>
    <path d="M 123.953128 455.830478 
L 375.406375 455.830478 
" clip-path="url(#p30d0c37cab)" style="fill: none; stroke: #2c3e50; stroke-width: 1.5"/>
    <path d="M 124.75111 433.217081 
L 376.292965 433.217081 
" clip-path="url(#p30d0c37cab)" style="fill: none; stroke: #2c3e50; stroke-width: 1.5"/>
    <path d="M 131.622222 410.603684 
L 383.429342 410.603684 
" clip-path="url(#p30d0c37cab)" style="fill: none; stroke: #2c3e50; stroke-width: 1.5"/>
    <path d="M 151.866684 387.990287 
L 402.690304 387.990287 
" clip-path="url(#p30d0c37cab)" style="fill: none; stroke: #2c3e50; stroke-width: 1.5"/>
    <path d="M 160.940749 365.37689 
L 411.801155 365.37689 
" clip-path="url(#p30d0c37cab)" style="fill: none; stroke: #2c3e50; stroke-width: 1.5"/>
    <path d="M 169.649017 342.763493 
L 421.897826 342.763493 
" clip-path="url(#p30d0c37cab)" style="fill: none; stroke: #2c3e50; stroke-width: 1.5"/>
    <path d="M 197.752532 320.150096 
L 448.805698 320.150096 
" clip-path="url(#p30d0c37cab)" style="fill: none; stroke: #2c3e50; stroke-width: 1.5"/>
    <path d="M 204.974555 297.536699 
L 457.331833 297.536699 
" clip-path="url(#p30d0c37cab)" style="fill: none; stroke: #2c3e50; stroke-width: 1.5"/>
    <path d="M 210.140079 274.923301 
L 461.559876 274.923301 
" clip-path="url(#p30d0c37cab)" style="fill: none; stroke: #2c3e50; stroke-width: 1.5"/>
    <path d="M 217.431714 252.309904 
L 467.897302 252.309904 
" clip-path="url(#p30d0c37cab)" style="fill: none; stroke: #2c3e50; stroke-width: 1.5"/>
    <path d="M 220.647253 229.696507 
L 472.170275 229.696507 
" clip-path="url(#p30d0c37cab)" style="fill: none; stroke: #2c3e50; stroke-width: 1.5"/>
    <path d="M 233.832493 207.08311 
L 485.361927 207.08311 
" clip-path="url(#p30d0c37cab)" style="fill: none; stroke: #2c3e50; stroke-width: 1.5"/>
    <path d="M 255.956798 184.469713 
L 507.032407 184.469713 
" clip-path="url(#p30d0c37cab)" style="fill: none; stroke: #2c3e50; stroke-width: 1.5"/>
    <path d="M 267.586041 161.856316 
L 518.125167 161.856316 
" clip-path="url(#p30d0c37cab)" style="fill: none; stroke: #2c3e50; stroke-width: 1.5"/>
    <path d="M 268.99737 139.242919 
L 521.427238 139.242919 
" clip-path="url(#p30d0c37cab)" style="fill: none; stroke: #2c3e50; stroke-width: 1.5"/>
    <path d="M 279.397346 116.629522 
L 530.441277 116.629522 
" clip-path="url(#p30d0c37cab)" style="fill: none; stroke: #2c3e50; stroke-width: 1.5"/>
    <path d="M 315.101416 94.016124 
L 566.290315 94.016124 
" clip-path="url(#p30d0c37cab)" style="fill: none; stroke: #2c3e50; stroke-width: 1.5"/>
    <path d="M 329.730284 71.402727 
L 581.396847 71.402727 
" clip-path="url(#p30d0c37cab)" style="fill: none; stroke: #2c3e50; stroke-width: 1.5"/>
   </g>
   <g id="line2d_26">
    <defs>
     <path id="m021c32cbf8" d="M 0 4 
L 0 -4 
" style="stroke: #2c3e50"/>
    </defs>
    <g clip-path="url(#p30d0c37cab)">
     <use xlink:href="#m021c32cbf8" x="110.065028" y="501.057273" style="fill: #2c3e50; stroke: #2c3e50"/>
     <use xlink:href="#m021c32cbf8" x="123.365654" y="478.443876" style="fill: #2c3e50; stroke: #2c3e50"/>
     <use xlink:href="#m021c32cbf8" x="123.953128" y="455.830478" style="fill: #2c3e50; stroke: #2c3e50"/>
     <use xlink:href="#m021c32cbf8" x="124.75111" y="433.217081" style="fill: #2c3e50; stroke: #2c3e50"/>
     <use xlink:href="#m021c32cbf8" x="131.622222" y="410.603684" style="fill: #2c3e50; stroke: #2c3e50"/>
     <use xlink:href="#m021c32cbf8" x="151.866684" y="387.990287" style="fill: #2c3e50; stroke: #2c3e50"/>
     <use xlink:href="#m021c32cbf8" x="160.940749" y="365.37689" style="fill: #2c3e50; stroke: #2c3e50"/>
     <use xlink:href="#m021c32cbf8" x="169.649017" y="342.763493" style="fill: #2c3e50; stroke: #2c3e50"/>
     <use xlink:href="#m021c32cbf8" x="197.752532" y="320.150096" style="fill: #2c3e50; stroke: #2c3e50"/>
     <use xlink:href="#m021c32cbf8" x="204.974555" y="297.536699" style="fill: #2c3e50; stroke: #2c3e50"/>
     <use xlink:href="#m021c32cbf8" x="210.140079" y="274.923301" style="fill: #2c3e50; stroke: #2c3e50"/>
     <use xlink:href="#m021c32cbf8" x="217.431714" y="252.309904" style="fill: #2c3e50; stroke: #2c3e50"/>
     <use xlink:href="#m021c32cbf8" x="220.647253" y="229.696507" style="fill: #2c3e50; stroke: #2c3e50"/>
     <use xlink:href="#m021c32cbf8" x="233.832493" y="207.08311" style="fill: #2c3e50; stroke: #2c3e50"/>
     <use xlink:href="#m021c32cbf8" x="255.956798" y="184.469713" style="fill: #2c3e50; stroke: #2c3e50"/>
     <use xlink:href="#m021c32cbf8" x="267.586041" y="161.856316" style="fill: #2c3e50; stroke: #2c3e50"/>
     <use xlink:href="#m021c32cbf8" x="268.99737" y="139.242919" style="fill: #2c3e50; stroke: #2c3e50"/>
     <use xlink:href="#m021c32cbf8" x="279.397346" y="116.629522" style="fill: #2c3e50; stroke: #2c3e50"/>
     <use xlink:href="#m021c32cbf8" x="315.101416" y="94.016124" style="fill: #2c3e50; stroke: #2c3e50"/>
     <use xlink:href="#m021c32cbf8" x="329.730284" y="71.402727" style="fill: #2c3e50; stroke: #2c3e50"/>
    </g>
   </g>
   <g id="line2d_27">
    <g clip-path="url(#p30d0c37cab)">
     <use xlink:href="#m021c32cbf8" x="360.04055" y="501.057273" style="fill: #2c3e50; stroke: #2c3e50"/>
     <use xlink:href="#m021c32cbf8" x="374.807708" y="478.443876" style="fill: #2c3e50; stroke: #2c3e50"/>
     <use xlink:href="#m021c32cbf8" x="375.406375" y="455.830478" style="fill: #2c3e50; stroke: #2c3e50"/>
     <use xlink:href="#m021c32cbf8" x="376.292965" y="433.217081" style="fill: #2c3e50; stroke: #2c3e50"/>
     <use xlink:href="#m021c32cbf8" x="383.429342" y="410.603684" style="fill: #2c3e50; stroke: #2c3e50"/>
     <use xlink:href="#m021c32cbf8" x="402.690304" y="387.990287" style="fill: #2c3e50; stroke: #2c3e50"/>
     <use xlink:href="#m021c32cbf8" x="411.801155" y="365.37689" style="fill: #2c3e50; stroke: #2c3e50"/>
     <use xlink:href="#m021c32cbf8" x="421.897826" y="342.763493" style="fill: #2c3e50; stroke: #2c3e50"/>
     <use xlink:href="#m021c32cbf8" x="448.805698" y="320.150096" style="fill: #2c3e50; stroke: #2c3e50"/>
     <use xlink:href="#m021c32cbf8" x="457.331833" y="297.536699" style="fill: #2c3e50; stroke: #2c3e50"/>
     <use xlink:href="#m021c32cbf8" x="461.559876" y="274.923301" style="fill: #2c3e50; stroke: #2c3e50"/>
     <use xlink:href="#m021c32cbf8" x="467.897302" y="252.309904" style="fill: #2c3e50; stroke: #2c3e50"/>
     <use xlink:href="#m021c32cbf8" x="472.170275" y="229.696507" style="fill: #2c3e50; stroke: #2c3e50"/>
     <use xlink:href="#m021c32cbf8" x="485.361927" y="207.08311" style="fill: #2c3e50; stroke: #2c3e50"/>
     <use xlink:href="#m021c32cbf8" x="507.032407" y="184.469713" style="fill: #2c3e50; stroke: #2c3e50"/>
     <use xlink:href="#m021c32cbf8" x="518.125167" y="161.856316" style="fill: #2c3e50; stroke: #2c3e50"/>
     <use xlink:href="#m021c32cbf8" x="521.427238" y="139.242919" style="fill: #2c3e50; stroke: #2c3e50"/>
     <use xlink:href="#m021c32cbf8" x="530.441277" y="116.629522" style="fill: #2c3e50; stroke: #2c3e50"/>
     <use xlink:href="#m021c32cbf8" x="566.290315" y="94.016124" style="fill: #2c3e50; stroke: #2c3e50"/>
     <use xlink:href="#m021c32cbf8" x="581.396847" y="71.402727" style="fill: #2c3e50; stroke: #2c3e50"/>
    </g>
   </g>
   <g id="line2d_28">
    <path d="M 330.549196 522.54 
L 330.549196 49.92 
" clip-path="url(#p30d0c37cab)" style="fill: none; stroke-dasharray: 5.55,2.4; stroke-dashoffset: 0; stroke: #ff0000; stroke-opacity: 0.5; stroke-width: 1.5"/>
   </g>
   <g id="line2d_29">
    <defs>
     <path id="md8c5056062" d="M 0 3 
C 0.795609 3 1.55874 2.683901 2.12132 2.12132 
C 2.683901 1.55874 3 0.795609 3 0 
C 3 -0.795609 2.683901 -1.55874 2.12132 -2.12132 
C 1.55874 -2.683901 0.795609 -3 0 -3 
C -0.795609 -3 -1.55874 -2.683901 -2.12132 -2.12132 
C -2.683901 -1.55874 -3 -0.795609 -3 0 
C -3 0.795609 -2.683901 1.55874 -2.12132 2.12132 
C -1.55874 2.683901 -0.795609 3 0 3 
z
" style="stroke: #2c3e50"/>
    </defs>
    <g clip-path="url(#p30d0c37cab)">
     <use xlink:href="#md8c5056062" x="235.052789" y="501.057273" style="fill: #2c3e50; stroke: #2c3e50"/>
     <use xlink:href="#md8c5056062" x="249.086681" y="478.443876" style="fill: #2c3e50; stroke: #2c3e50"/>
     <use xlink:href="#md8c5056062" x="249.679751" y="455.830478" style="fill: #2c3e50; stroke: #2c3e50"/>
     <use xlink:href="#md8c5056062" x="250.522037" y="433.217081" style="fill: #2c3e50; stroke: #2c3e50"/>
     <use xlink:href="#md8c5056062" x="257.525782" y="410.603684" style="fill: #2c3e50; stroke: #2c3e50"/>
     <use xlink:href="#md8c5056062" x="277.278494" y="387.990287" style="fill: #2c3e50; stroke: #2c3e50"/>
     <use xlink:href="#md8c5056062" x="286.370952" y="365.37689" style="fill: #2c3e50; stroke: #2c3e50"/>
     <use xlink:href="#md8c5056062" x="295.773421" y="342.763493" style="fill: #2c3e50; stroke: #2c3e50"/>
     <use xlink:href="#md8c5056062" x="323.279115" y="320.150096" style="fill: #2c3e50; stroke: #2c3e50"/>
     <use xlink:href="#md8c5056062" x="331.153194" y="297.536699" style="fill: #2c3e50; stroke: #2c3e50"/>
     <use xlink:href="#md8c5056062" x="335.849978" y="274.923301" style="fill: #2c3e50; stroke: #2c3e50"/>
     <use xlink:href="#md8c5056062" x="342.664508" y="252.309904" style="fill: #2c3e50; stroke: #2c3e50"/>
     <use xlink:href="#md8c5056062" x="346.408764" y="229.696507" style="fill: #2c3e50; stroke: #2c3e50"/>
     <use xlink:href="#md8c5056062" x="359.59721" y="207.08311" style="fill: #2c3e50; stroke: #2c3e50"/>
     <use xlink:href="#md8c5056062" x="381.494602" y="184.469713" style="fill: #2c3e50; stroke: #2c3e50"/>
     <use xlink:href="#md8c5056062" x="392.855604" y="161.856316" style="fill: #2c3e50; stroke: #2c3e50"/>
     <use xlink:href="#md8c5056062" x="395.212304" y="139.242919" style="fill: #2c3e50; stroke: #2c3e50"/>
     <use xlink:href="#md8c5056062" x="404.919312" y="116.629522" style="fill: #2c3e50; stroke: #2c3e50"/>
     <use xlink:href="#md8c5056062" x="440.695865" y="94.016124" style="fill: #2c3e50; stroke: #2c3e50"/>
     <use xlink:href="#md8c5056062" x="455.563565" y="71.402727" style="fill: #2c3e50; stroke: #2c3e50"/>
    </g>
   </g>
   <g id="patch_3">
    <path d="M 86.498438 522.54 
L 86.498438 49.92 
" style="fill: none; stroke: #cccccc; stroke-width: 1.25; stroke-linejoin: miter; stroke-linecap: square"/>
   </g>
   <g id="patch_4">
    <path d="M 604.963437 522.54 
L 604.963437 49.92 
" style="fill: none; stroke: #cccccc; stroke-width: 1.25; stroke-linejoin: miter; stroke-linecap: square"/>
   </g>
   <g id="patch_5">
    <path d="M 86.498437 522.54 
L 604.963437 522.54 
" style="fill: none; stroke: #cccccc; stroke-width: 1.25; stroke-linejoin: miter; stroke-linecap: square"/>
   </g>
   <g id="patch_6">
    <path d="M 86.498437 49.92 
L 604.963437 49.92 
" style="fill: none; stroke: #cccccc; stroke-width: 1.25; stroke-linejoin: miter; stroke-linecap: square"/>
   </g>
   <g id="text_27">
    <!-- Full Data (N=1,000,000) -->
    <g style="fill: #262626" transform="translate(260.410781 43.92) scale(0.14 -0.14)">
     <defs>
      <path id="DejaVuSans-44" d="M 1259 4147 
L 1259 519 
L 2022 519 
Q 2988 519 3436 956 
Q 3884 1394 3884 2338 
Q 3884 3275 3436 3711 
Q 2988 4147 2022 4147 
L 1259 4147 
z
M 628 4666 
L 1925 4666 
Q 3281 4666 3915 4102 
Q 4550 3538 4550 2338 
Q 4550 1131 3912 565 
Q 3275 0 1925 0 
L 628 0 
L 628 4666 
z
" transform="scale(0.015625)"/>
      <path id="DejaVuSans-3d" d="M 678 2906 
L 4684 2906 
L 4684 2381 
L 678 2381 
L 678 2906 
z
M 678 1631 
L 4684 1631 
L 4684 1100 
L 678 1100 
L 678 1631 
z
" transform="scale(0.015625)"/>
      <path id="DejaVuSans-2c" d="M 750 794 
L 1409 794 
L 1409 256 
L 897 -744 
L 494 -744 
L 750 256 
L 750 794 
z
" transform="scale(0.015625)"/>
     </defs>
     <use xlink:href="#DejaVuSans-46"/>
     <use xlink:href="#DejaVuSans-75" transform="translate(52.019531 0)"/>
     <use xlink:href="#DejaVuSans-6c" transform="translate(115.398438 0)"/>
     <use xlink:href="#DejaVuSans-6c" transform="translate(143.181641 0)"/>
     <use xlink:href="#DejaVuSans-20" transform="translate(170.964844 0)"/>
     <use xlink:href="#DejaVuSans-44" transform="translate(202.751953 0)"/>
     <use xlink:href="#DejaVuSans-61" transform="translate(279.753906 0)"/>
     <use xlink:href="#DejaVuSans-74" transform="translate(341.033203 0)"/>
     <use xlink:href="#DejaVuSans-61" transform="translate(380.242188 0)"/>
     <use xlink:href="#DejaVuSans-20" transform="translate(441.521484 0)"/>
     <use xlink:href="#DejaVuSans-28" transform="translate(473.308594 0)"/>
     <use xlink:href="#DejaVuSans-4e" transform="translate(512.322266 0)"/>
     <use xlink:href="#DejaVuSans-3d" transform="translate(587.126953 0)"/>
     <use xlink:href="#DejaVuSans-31" transform="translate(670.916016 0)"/>
     <use xlink:href="#DejaVuSans-2c" transform="translate(734.539062 0)"/>
     <use xlink:href="#DejaVuSans-30" transform="translate(766.326172 0)"/>
     <use xlink:href="#DejaVuSans-30" transform="translate(829.949219 0)"/>
     <use xlink:href="#DejaVuSans-30" transform="translate(893.572266 0)"/>
     <use xlink:href="#DejaVuSans-2c" transform="translate(957.195312 0)"/>
     <use xlink:href="#DejaVuSans-30" transform="translate(988.982422 0)"/>
     <use xlink:href="#DejaVuSans-30" transform="translate(1052.605469 0)"/>
     <use xlink:href="#DejaVuSans-30" transform="translate(1116.228516 0)"/>
     <use xlink:href="#DejaVuSans-29" transform="translate(1179.851562 0)"/>
    </g>
   </g>
  </g>
  <g id="axes_2">
   <g id="patch_7">
    <path d="M 616.843438 522.54 
L 1135.308438 522.54 
L 1135.308438 49.92 
L 616.843438 49.92 
z
" style="fill: #ffffff"/>
   </g>
   <g id="matplotlib.axis_3">
    <g id="xtick_6">
     <g id="line2d_30">
      <path d="M 660.066697 522.54 
L 660.066697 49.92 
" clip-path="url(#p9232e0e437)" style="fill: none; stroke: #cccccc; stroke-linecap: round"/>
     </g>
     <g id="text_28">
      <!-- 4.90 -->
      <g style="fill: #262626" transform="translate(647.820603 540.398281) scale(0.11 -0.11)">
       <defs>
        <path id="DejaVuSans-39" d="M 703 97 
L 703 672 
Q 941 559 1184 500 
Q 1428 441 1663 441 
Q 2288 441 2617 861 
Q 2947 1281 2994 2138 
Q 2813 1869 2534 1725 
Q 2256 1581 1919 1581 
Q 1219 1581 811 2004 
Q 403 2428 403 3163 
Q 403 3881 828 4315 
Q 1253 4750 1959 4750 
Q 2769 4750 3195 4129 
Q 3622 3509 3622 2328 
Q 3622 1225 3098 567 
Q 2575 -91 1691 -91 
Q 1453 -91 1209 -44 
Q 966 3 703 97 
z
M 1959 2075 
Q 2384 2075 2632 2365 
Q 2881 2656 2881 3163 
Q 2881 3666 2632 3958 
Q 2384 4250 1959 4250 
Q 1534 4250 1286 3958 
Q 1038 3666 1038 3163 
Q 1038 2656 1286 2365 
Q 1534 2075 1959 2075 
z
" transform="scale(0.015625)"/>
       </defs>
       <use xlink:href="#DejaVuSans-34"/>
       <use xlink:href="#DejaVuSans-2e" transform="translate(63.623047 0)"/>
       <use xlink:href="#DejaVuSans-39" transform="translate(95.410156 0)"/>
       <use xlink:href="#DejaVuSans-30" transform="translate(159.033203 0)"/>
      </g>
     </g>
    </g>
    <g id="xtick_7">
     <g id="line2d_31">
      <path d="M 722.554955 522.54 
L 722.554955 49.92 
" clip-path="url(#p9232e0e437)" style="fill: none; stroke: #cccccc; stroke-linecap: round"/>
     </g>
     <g id="text_29">
      <!-- 4.95 -->
      <g style="fill: #262626" transform="translate(710.308861 540.398281) scale(0.11 -0.11)">
       <use xlink:href="#DejaVuSans-34"/>
       <use xlink:href="#DejaVuSans-2e" transform="translate(63.623047 0)"/>
       <use xlink:href="#DejaVuSans-39" transform="translate(95.410156 0)"/>
       <use xlink:href="#DejaVuSans-35" transform="translate(159.033203 0)"/>
      </g>
     </g>
    </g>
    <g id="xtick_8">
     <g id="line2d_32">
      <path d="M 785.043212 522.54 
L 785.043212 49.92 
" clip-path="url(#p9232e0e437)" style="fill: none; stroke: #cccccc; stroke-linecap: round"/>
     </g>
     <g id="text_30">
      <!-- 5.00 -->
      <g style="fill: #262626" transform="translate(772.797118 540.398281) scale(0.11 -0.11)">
       <use xlink:href="#DejaVuSans-35"/>
       <use xlink:href="#DejaVuSans-2e" transform="translate(63.623047 0)"/>
       <use xlink:href="#DejaVuSans-30" transform="translate(95.410156 0)"/>
       <use xlink:href="#DejaVuSans-30" transform="translate(159.033203 0)"/>
      </g>
     </g>
    </g>
    <g id="xtick_9">
     <g id="line2d_33">
      <path d="M 847.53147 522.54 
L 847.53147 49.92 
" clip-path="url(#p9232e0e437)" style="fill: none; stroke: #cccccc; stroke-linecap: round"/>
     </g>
     <g id="text_31">
      <!-- 5.05 -->
      <g style="fill: #262626" transform="translate(835.285376 540.398281) scale(0.11 -0.11)">
       <use xlink:href="#DejaVuSans-35"/>
       <use xlink:href="#DejaVuSans-2e" transform="translate(63.623047 0)"/>
       <use xlink:href="#DejaVuSans-30" transform="translate(95.410156 0)"/>
       <use xlink:href="#DejaVuSans-35" transform="translate(159.033203 0)"/>
      </g>
     </g>
    </g>
    <g id="xtick_10">
     <g id="line2d_34">
      <path d="M 910.019727 522.54 
L 910.019727 49.92 
" clip-path="url(#p9232e0e437)" style="fill: none; stroke: #cccccc; stroke-linecap: round"/>
     </g>
     <g id="text_32">
      <!-- 5.10 -->
      <g style="fill: #262626" transform="translate(897.773634 540.398281) scale(0.11 -0.11)">
       <use xlink:href="#DejaVuSans-35"/>
       <use xlink:href="#DejaVuSans-2e" transform="translate(63.623047 0)"/>
       <use xlink:href="#DejaVuSans-31" transform="translate(95.410156 0)"/>
       <use xlink:href="#DejaVuSans-30" transform="translate(159.033203 0)"/>
      </g>
     </g>
    </g>
    <g id="xtick_11">
     <g id="line2d_35">
      <path d="M 972.507985 522.54 
L 972.507985 49.92 
" clip-path="url(#p9232e0e437)" style="fill: none; stroke: #cccccc; stroke-linecap: round"/>
     </g>
     <g id="text_33">
      <!-- 5.15 -->
      <g style="fill: #262626" transform="translate(960.261891 540.398281) scale(0.11 -0.11)">
       <use xlink:href="#DejaVuSans-35"/>
       <use xlink:href="#DejaVuSans-2e" transform="translate(63.623047 0)"/>
       <use xlink:href="#DejaVuSans-31" transform="translate(95.410156 0)"/>
       <use xlink:href="#DejaVuSans-35" transform="translate(159.033203 0)"/>
      </g>
     </g>
    </g>
    <g id="xtick_12">
     <g id="line2d_36">
      <path d="M 1034.996242 522.54 
L 1034.996242 49.92 
" clip-path="url(#p9232e0e437)" style="fill: none; stroke: #cccccc; stroke-linecap: round"/>
     </g>
     <g id="text_34">
      <!-- 5.20 -->
      <g style="fill: #262626" transform="translate(1022.750149 540.398281) scale(0.11 -0.11)">
       <use xlink:href="#DejaVuSans-35"/>
       <use xlink:href="#DejaVuSans-2e" transform="translate(63.623047 0)"/>
       <use xlink:href="#DejaVuSans-32" transform="translate(95.410156 0)"/>
       <use xlink:href="#DejaVuSans-30" transform="translate(159.033203 0)"/>
      </g>
     </g>
    </g>
    <g id="xtick_13">
     <g id="line2d_37">
      <path d="M 1097.4845 522.54 
L 1097.4845 49.92 
" clip-path="url(#p9232e0e437)" style="fill: none; stroke: #cccccc; stroke-linecap: round"/>
     </g>
     <g id="text_35">
      <!-- 5.25 -->
      <g style="fill: #262626" transform="translate(1085.238406 540.398281) scale(0.11 -0.11)">
       <use xlink:href="#DejaVuSans-35"/>
       <use xlink:href="#DejaVuSans-2e" transform="translate(63.623047 0)"/>
       <use xlink:href="#DejaVuSans-32" transform="translate(95.410156 0)"/>
       <use xlink:href="#DejaVuSans-35" transform="translate(159.033203 0)"/>
      </g>
     </g>
    </g>
    <g id="text_36">
     <!-- Mortality Rate (%) -->
     <g style="fill: #262626" transform="translate(821.543437 555.804062) scale(0.12 -0.12)">
      <use xlink:href="#DejaVuSans-4d"/>
      <use xlink:href="#DejaVuSans-6f" transform="translate(86.279297 0)"/>
      <use xlink:href="#DejaVuSans-72" transform="translate(147.460938 0)"/>
      <use xlink:href="#DejaVuSans-74" transform="translate(188.574219 0)"/>
      <use xlink:href="#DejaVuSans-61" transform="translate(227.783203 0)"/>
      <use xlink:href="#DejaVuSans-6c" transform="translate(289.0625 0)"/>
      <use xlink:href="#DejaVuSans-69" transform="translate(316.845703 0)"/>
      <use xlink:href="#DejaVuSans-74" transform="translate(344.628906 0)"/>
      <use xlink:href="#DejaVuSans-79" transform="translate(383.837891 0)"/>
      <use xlink:href="#DejaVuSans-20" transform="translate(443.017578 0)"/>
      <use xlink:href="#DejaVuSans-52" transform="translate(474.804688 0)"/>
      <use xlink:href="#DejaVuSans-61" transform="translate(542.037109 0)"/>
      <use xlink:href="#DejaVuSans-74" transform="translate(603.316406 0)"/>
      <use xlink:href="#DejaVuSans-65" transform="translate(642.525391 0)"/>
      <use xlink:href="#DejaVuSans-20" transform="translate(704.048828 0)"/>
      <use xlink:href="#DejaVuSans-28" transform="translate(735.835938 0)"/>
      <use xlink:href="#DejaVuSans-25" transform="translate(774.849609 0)"/>
      <use xlink:href="#DejaVuSans-29" transform="translate(869.869141 0)"/>
     </g>
    </g>
   </g>
   <g id="matplotlib.axis_4">
    <g id="ytick_21">
     <g id="line2d_38">
      <path d="M 616.843438 501.057273 
L 1135.308438 501.057273 
" clip-path="url(#p9232e0e437)" style="fill: none; stroke: #cccccc; stroke-linecap: round"/>
     </g>
    </g>
    <g id="ytick_22">
     <g id="line2d_39">
      <path d="M 616.843438 478.443876 
L 1135.308438 478.443876 
" clip-path="url(#p9232e0e437)" style="fill: none; stroke: #cccccc; stroke-linecap: round"/>
     </g>
    </g>
    <g id="ytick_23">
     <g id="line2d_40">
      <path d="M 616.843438 455.830478 
L 1135.308438 455.830478 
" clip-path="url(#p9232e0e437)" style="fill: none; stroke: #cccccc; stroke-linecap: round"/>
     </g>
    </g>
    <g id="ytick_24">
     <g id="line2d_41">
      <path d="M 616.843438 433.217081 
L 1135.308438 433.217081 
" clip-path="url(#p9232e0e437)" style="fill: none; stroke: #cccccc; stroke-linecap: round"/>
     </g>
    </g>
    <g id="ytick_25">
     <g id="line2d_42">
      <path d="M 616.843438 410.603684 
L 1135.308438 410.603684 
" clip-path="url(#p9232e0e437)" style="fill: none; stroke: #cccccc; stroke-linecap: round"/>
     </g>
    </g>
    <g id="ytick_26">
     <g id="line2d_43">
      <path d="M 616.843438 387.990287 
L 1135.308438 387.990287 
" clip-path="url(#p9232e0e437)" style="fill: none; stroke: #cccccc; stroke-linecap: round"/>
     </g>
    </g>
    <g id="ytick_27">
     <g id="line2d_44">
      <path d="M 616.843438 365.37689 
L 1135.308438 365.37689 
" clip-path="url(#p9232e0e437)" style="fill: none; stroke: #cccccc; stroke-linecap: round"/>
     </g>
    </g>
    <g id="ytick_28">
     <g id="line2d_45">
      <path d="M 616.843438 342.763493 
L 1135.308438 342.763493 
" clip-path="url(#p9232e0e437)" style="fill: none; stroke: #cccccc; stroke-linecap: round"/>
     </g>
    </g>
    <g id="ytick_29">
     <g id="line2d_46">
      <path d="M 616.843438 320.150096 
L 1135.308438 320.150096 
" clip-path="url(#p9232e0e437)" style="fill: none; stroke: #cccccc; stroke-linecap: round"/>
     </g>
    </g>
    <g id="ytick_30">
     <g id="line2d_47">
      <path d="M 616.843438 297.536699 
L 1135.308438 297.536699 
" clip-path="url(#p9232e0e437)" style="fill: none; stroke: #cccccc; stroke-linecap: round"/>
     </g>
    </g>
    <g id="ytick_31">
     <g id="line2d_48">
      <path d="M 616.843438 274.923301 
L 1135.308438 274.923301 
" clip-path="url(#p9232e0e437)" style="fill: none; stroke: #cccccc; stroke-linecap: round"/>
     </g>
    </g>
    <g id="ytick_32">
     <g id="line2d_49">
      <path d="M 616.843438 252.309904 
L 1135.308438 252.309904 
" clip-path="url(#p9232e0e437)" style="fill: none; stroke: #cccccc; stroke-linecap: round"/>
     </g>
    </g>
    <g id="ytick_33">
     <g id="line2d_50">
      <path d="M 616.843438 229.696507 
L 1135.308438 229.696507 
" clip-path="url(#p9232e0e437)" style="fill: none; stroke: #cccccc; stroke-linecap: round"/>
     </g>
    </g>
    <g id="ytick_34">
     <g id="line2d_51">
      <path d="M 616.843438 207.08311 
L 1135.308438 207.08311 
" clip-path="url(#p9232e0e437)" style="fill: none; stroke: #cccccc; stroke-linecap: round"/>
     </g>
    </g>
    <g id="ytick_35">
     <g id="line2d_52">
      <path d="M 616.843438 184.469713 
L 1135.308438 184.469713 
" clip-path="url(#p9232e0e437)" style="fill: none; stroke: #cccccc; stroke-linecap: round"/>
     </g>
    </g>
    <g id="ytick_36">
     <g id="line2d_53">
      <path d="M 616.843438 161.856316 
L 1135.308438 161.856316 
" clip-path="url(#p9232e0e437)" style="fill: none; stroke: #cccccc; stroke-linecap: round"/>
     </g>
    </g>
    <g id="ytick_37">
     <g id="line2d_54">
      <path d="M 616.843438 139.242919 
L 1135.308438 139.242919 
" clip-path="url(#p9232e0e437)" style="fill: none; stroke: #cccccc; stroke-linecap: round"/>
     </g>
    </g>
    <g id="ytick_38">
     <g id="line2d_55">
      <path d="M 616.843438 116.629522 
L 1135.308438 116.629522 
" clip-path="url(#p9232e0e437)" style="fill: none; stroke: #cccccc; stroke-linecap: round"/>
     </g>
    </g>
    <g id="ytick_39">
     <g id="line2d_56">
      <path d="M 616.843438 94.016124 
L 1135.308438 94.016124 
" clip-path="url(#p9232e0e437)" style="fill: none; stroke: #cccccc; stroke-linecap: round"/>
     </g>
    </g>
    <g id="ytick_40">
     <g id="line2d_57">
      <path d="M 616.843438 71.402727 
L 1135.308438 71.402727 
" clip-path="url(#p9232e0e437)" style="fill: none; stroke: #cccccc; stroke-linecap: round"/>
     </g>
    </g>
   </g>
   <g id="LineCollection_2">
    <path d="M 641.403121 501.057273 
L 924.205318 501.057273 
" clip-path="url(#p9232e0e437)" style="fill: none; stroke: #e74c3c; stroke-width: 1.5"/>
    <path d="M 679.818275 478.443876 
L 957.073062 478.443876 
" clip-path="url(#p9232e0e437)" style="fill: none; stroke: #e74c3c; stroke-width: 1.5"/>
    <path d="M 666.728419 455.830478 
L 954.732 455.830478 
" clip-path="url(#p9232e0e437)" style="fill: none; stroke: #e74c3c; stroke-width: 1.5"/>
    <path d="M 735.508222 433.217081 
L 1013.390006 433.217081 
" clip-path="url(#p9232e0e437)" style="fill: none; stroke: #e74c3c; stroke-width: 1.5"/>
    <path d="M 700.932387 410.603684 
L 982.384182 410.603684 
" clip-path="url(#p9232e0e437)" style="fill: none; stroke: #e74c3c; stroke-width: 1.5"/>
    <path d="M 677.999801 387.990287 
L 954.45958 387.990287 
" clip-path="url(#p9232e0e437)" style="fill: none; stroke: #e74c3c; stroke-width: 1.5"/>
    <path d="M 713.157949 365.37689 
L 990.474809 365.37689 
" clip-path="url(#p9232e0e437)" style="fill: none; stroke: #e74c3c; stroke-width: 1.5"/>
    <path d="M 700.463029 342.763493 
L 981.383886 342.763493 
" clip-path="url(#p9232e0e437)" style="fill: none; stroke: #e74c3c; stroke-width: 1.5"/>
    <path d="M 722.44648 320.150096 
L 1005.342373 320.150096 
" clip-path="url(#p9232e0e437)" style="fill: none; stroke: #e74c3c; stroke-width: 1.5"/>
    <path d="M 693.990765 297.536699 
L 976.117531 297.536699 
" clip-path="url(#p9232e0e437)" style="fill: none; stroke: #e74c3c; stroke-width: 1.5"/>
    <path d="M 640.410028 274.923301 
L 920.519108 274.923301 
" clip-path="url(#p9232e0e437)" style="fill: none; stroke: #e74c3c; stroke-width: 1.5"/>
    <path d="M 755.883486 252.309904 
L 1027.815687 252.309904 
" clip-path="url(#p9232e0e437)" style="fill: none; stroke: #e74c3c; stroke-width: 1.5"/>
    <path d="M 739.402866 229.696507 
L 1014.588688 229.696507 
" clip-path="url(#p9232e0e437)" style="fill: none; stroke: #e74c3c; stroke-width: 1.5"/>
    <path d="M 831.985194 207.08311 
L 1111.741847 207.08311 
" clip-path="url(#p9232e0e437)" style="fill: none; stroke: #e74c3c; stroke-width: 1.5"/>
    <path d="M 779.040261 184.469713 
L 1063.908163 184.469713 
" clip-path="url(#p9232e0e437)" style="fill: none; stroke: #e74c3c; stroke-width: 1.5"/>
    <path d="M 773.579429 161.856316 
L 1050.141504 161.856316 
" clip-path="url(#p9232e0e437)" style="fill: none; stroke: #e74c3c; stroke-width: 1.5"/>
    <path d="M 659.982241 139.242919 
L 943.72232 139.242919 
" clip-path="url(#p9232e0e437)" style="fill: none; stroke: #e74c3c; stroke-width: 1.5"/>
    <path d="M 730.571538 116.629522 
L 1013.24892 116.629522 
" clip-path="url(#p9232e0e437)" style="fill: none; stroke: #e74c3c; stroke-width: 1.5"/>
    <path d="M 809.834131 94.016124 
L 1091.824678 94.016124 
" clip-path="url(#p9232e0e437)" style="fill: none; stroke: #e74c3c; stroke-width: 1.5"/>
    <path d="M 720.34861 71.402727 
L 1004.755394 71.402727 
" clip-path="url(#p9232e0e437)" style="fill: none; stroke: #e74c3c; stroke-width: 1.5"/>
   </g>
   <g id="line2d_58">
    <defs>
     <path id="mdab2cec3f7" d="M 0 4 
L 0 -4 
" style="stroke: #e74c3c"/>
    </defs>
    <g clip-path="url(#p9232e0e437)">
     <use xlink:href="#mdab2cec3f7" x="641.403121" y="501.057273" style="fill: #e74c3c; stroke: #e74c3c"/>
     <use xlink:href="#mdab2cec3f7" x="679.818275" y="478.443876" style="fill: #e74c3c; stroke: #e74c3c"/>
     <use xlink:href="#mdab2cec3f7" x="666.728419" y="455.830478" style="fill: #e74c3c; stroke: #e74c3c"/>
     <use xlink:href="#mdab2cec3f7" x="735.508222" y="433.217081" style="fill: #e74c3c; stroke: #e74c3c"/>
     <use xlink:href="#mdab2cec3f7" x="700.932387" y="410.603684" style="fill: #e74c3c; stroke: #e74c3c"/>
     <use xlink:href="#mdab2cec3f7" x="677.999801" y="387.990287" style="fill: #e74c3c; stroke: #e74c3c"/>
     <use xlink:href="#mdab2cec3f7" x="713.157949" y="365.37689" style="fill: #e74c3c; stroke: #e74c3c"/>
     <use xlink:href="#mdab2cec3f7" x="700.463029" y="342.763493" style="fill: #e74c3c; stroke: #e74c3c"/>
     <use xlink:href="#mdab2cec3f7" x="722.44648" y="320.150096" style="fill: #e74c3c; stroke: #e74c3c"/>
     <use xlink:href="#mdab2cec3f7" x="693.990765" y="297.536699" style="fill: #e74c3c; stroke: #e74c3c"/>
     <use xlink:href="#mdab2cec3f7" x="640.410028" y="274.923301" style="fill: #e74c3c; stroke: #e74c3c"/>
     <use xlink:href="#mdab2cec3f7" x="755.883486" y="252.309904" style="fill: #e74c3c; stroke: #e74c3c"/>
     <use xlink:href="#mdab2cec3f7" x="739.402866" y="229.696507" style="fill: #e74c3c; stroke: #e74c3c"/>
     <use xlink:href="#mdab2cec3f7" x="831.985194" y="207.08311" style="fill: #e74c3c; stroke: #e74c3c"/>
     <use xlink:href="#mdab2cec3f7" x="779.040261" y="184.469713" style="fill: #e74c3c; stroke: #e74c3c"/>
     <use xlink:href="#mdab2cec3f7" x="773.579429" y="161.856316" style="fill: #e74c3c; stroke: #e74c3c"/>
     <use xlink:href="#mdab2cec3f7" x="659.982241" y="139.242919" style="fill: #e74c3c; stroke: #e74c3c"/>
     <use xlink:href="#mdab2cec3f7" x="730.571538" y="116.629522" style="fill: #e74c3c; stroke: #e74c3c"/>
     <use xlink:href="#mdab2cec3f7" x="809.834131" y="94.016124" style="fill: #e74c3c; stroke: #e74c3c"/>
     <use xlink:href="#mdab2cec3f7" x="720.34861" y="71.402727" style="fill: #e74c3c; stroke: #e74c3c"/>
    </g>
   </g>
   <g id="line2d_59">
    <g clip-path="url(#p9232e0e437)">
     <use xlink:href="#mdab2cec3f7" x="924.205318" y="501.057273" style="fill: #e74c3c; stroke: #e74c3c"/>
     <use xlink:href="#mdab2cec3f7" x="957.073062" y="478.443876" style="fill: #e74c3c; stroke: #e74c3c"/>
     <use xlink:href="#mdab2cec3f7" x="954.732" y="455.830478" style="fill: #e74c3c; stroke: #e74c3c"/>
     <use xlink:href="#mdab2cec3f7" x="1013.390006" y="433.217081" style="fill: #e74c3c; stroke: #e74c3c"/>
     <use xlink:href="#mdab2cec3f7" x="982.384182" y="410.603684" style="fill: #e74c3c; stroke: #e74c3c"/>
     <use xlink:href="#mdab2cec3f7" x="954.45958" y="387.990287" style="fill: #e74c3c; stroke: #e74c3c"/>
     <use xlink:href="#mdab2cec3f7" x="990.474809" y="365.37689" style="fill: #e74c3c; stroke: #e74c3c"/>
     <use xlink:href="#mdab2cec3f7" x="981.383886" y="342.763493" style="fill: #e74c3c; stroke: #e74c3c"/>
     <use xlink:href="#mdab2cec3f7" x="1005.342373" y="320.150096" style="fill: #e74c3c; stroke: #e74c3c"/>
     <use xlink:href="#mdab2cec3f7" x="976.117531" y="297.536699" style="fill: #e74c3c; stroke: #e74c3c"/>
     <use xlink:href="#mdab2cec3f7" x="920.519108" y="274.923301" style="fill: #e74c3c; stroke: #e74c3c"/>
     <use xlink:href="#mdab2cec3f7" x="1027.815687" y="252.309904" style="fill: #e74c3c; stroke: #e74c3c"/>
     <use xlink:href="#mdab2cec3f7" x="1014.588688" y="229.696507" style="fill: #e74c3c; stroke: #e74c3c"/>
     <use xlink:href="#mdab2cec3f7" x="1111.741847" y="207.08311" style="fill: #e74c3c; stroke: #e74c3c"/>
     <use xlink:href="#mdab2cec3f7" x="1063.908163" y="184.469713" style="fill: #e74c3c; stroke: #e74c3c"/>
     <use xlink:href="#mdab2cec3f7" x="1050.141504" y="161.856316" style="fill: #e74c3c; stroke: #e74c3c"/>
     <use xlink:href="#mdab2cec3f7" x="943.72232" y="139.242919" style="fill: #e74c3c; stroke: #e74c3c"/>
     <use xlink:href="#mdab2cec3f7" x="1013.24892" y="116.629522" style="fill: #e74c3c; stroke: #e74c3c"/>
     <use xlink:href="#mdab2cec3f7" x="1091.824678" y="94.016124" style="fill: #e74c3c; stroke: #e74c3c"/>
     <use xlink:href="#mdab2cec3f7" x="1004.755394" y="71.402727" style="fill: #e74c3c; stroke: #e74c3c"/>
    </g>
   </g>
   <g id="line2d_60">
    <path d="M 847.451992 522.54 
L 847.451992 49.92 
" clip-path="url(#p9232e0e437)" style="fill: none; stroke-dasharray: 5.55,2.4; stroke-dashoffset: 0; stroke: #ff0000; stroke-opacity: 0.5; stroke-width: 1.5"/>
   </g>
   <g id="line2d_61">
    <defs>
     <path id="mc822ce28ae" d="M 0 3 
C 0.795609 3 1.55874 2.683901 2.12132 2.12132 
C 2.683901 1.55874 3 0.795609 3 0 
C 3 -0.795609 2.683901 -1.55874 2.12132 -2.12132 
C 1.55874 -2.683901 0.795609 -3 0 -3 
C -0.795609 -3 -1.55874 -2.683901 -2.12132 -2.12132 
C -2.683901 -1.55874 -3 -0.795609 -3 0 
C -3 0.795609 -2.683901 1.55874 -2.12132 2.12132 
C -1.55874 2.683901 -0.795609 3 0 3 
z
" style="stroke: #e74c3c"/>
    </defs>
    <g clip-path="url(#p9232e0e437)">
     <use xlink:href="#mc822ce28ae" x="782.804219" y="501.057273" style="fill: #e74c3c; stroke: #e74c3c"/>
     <use xlink:href="#mc822ce28ae" x="818.445669" y="478.443876" style="fill: #e74c3c; stroke: #e74c3c"/>
     <use xlink:href="#mc822ce28ae" x="810.730209" y="455.830478" style="fill: #e74c3c; stroke: #e74c3c"/>
     <use xlink:href="#mc822ce28ae" x="874.449114" y="433.217081" style="fill: #e74c3c; stroke: #e74c3c"/>
     <use xlink:href="#mc822ce28ae" x="841.658284" y="410.603684" style="fill: #e74c3c; stroke: #e74c3c"/>
     <use xlink:href="#mc822ce28ae" x="816.22969" y="387.990287" style="fill: #e74c3c; stroke: #e74c3c"/>
     <use xlink:href="#mc822ce28ae" x="851.816379" y="365.37689" style="fill: #e74c3c; stroke: #e74c3c"/>
     <use xlink:href="#mc822ce28ae" x="840.923458" y="342.763493" style="fill: #e74c3c; stroke: #e74c3c"/>
     <use xlink:href="#mc822ce28ae" x="863.894427" y="320.150096" style="fill: #e74c3c; stroke: #e74c3c"/>
     <use xlink:href="#mc822ce28ae" x="835.054148" y="297.536699" style="fill: #e74c3c; stroke: #e74c3c"/>
     <use xlink:href="#mc822ce28ae" x="780.464568" y="274.923301" style="fill: #e74c3c; stroke: #e74c3c"/>
     <use xlink:href="#mc822ce28ae" x="891.849586" y="252.309904" style="fill: #e74c3c; stroke: #e74c3c"/>
     <use xlink:href="#mc822ce28ae" x="876.995777" y="229.696507" style="fill: #e74c3c; stroke: #e74c3c"/>
     <use xlink:href="#mc822ce28ae" x="971.86352" y="207.08311" style="fill: #e74c3c; stroke: #e74c3c"/>
     <use xlink:href="#mc822ce28ae" x="921.474212" y="184.469713" style="fill: #e74c3c; stroke: #e74c3c"/>
     <use xlink:href="#mc822ce28ae" x="911.860467" y="161.856316" style="fill: #e74c3c; stroke: #e74c3c"/>
     <use xlink:href="#mc822ce28ae" x="801.852281" y="139.242919" style="fill: #e74c3c; stroke: #e74c3c"/>
     <use xlink:href="#mc822ce28ae" x="871.910229" y="116.629522" style="fill: #e74c3c; stroke: #e74c3c"/>
     <use xlink:href="#mc822ce28ae" x="950.829405" y="94.016124" style="fill: #e74c3c; stroke: #e74c3c"/>
     <use xlink:href="#mc822ce28ae" x="862.552002" y="71.402727" style="fill: #e74c3c; stroke: #e74c3c"/>
    </g>
   </g>
   <g id="patch_8">
    <path d="M 616.843438 522.54 
L 616.843438 49.92 
" style="fill: none; stroke: #cccccc; stroke-width: 1.25; stroke-linejoin: miter; stroke-linecap: square"/>
   </g>
   <g id="patch_9">
    <path d="M 1135.308438 522.54 
L 1135.308438 49.92 
" style="fill: none; stroke: #cccccc; stroke-width: 1.25; stroke-linejoin: miter; stroke-linecap: square"/>
   </g>
   <g id="patch_10">
    <path d="M 616.843438 522.54 
L 1135.308437 522.54 
" style="fill: none; stroke: #cccccc; stroke-width: 1.25; stroke-linejoin: miter; stroke-linecap: square"/>
   </g>
   <g id="patch_11">
    <path d="M 616.843438 49.92 
L 1135.308437 49.92 
" style="fill: none; stroke: #cccccc; stroke-width: 1.25; stroke-linejoin: miter; stroke-linecap: square"/>
   </g>
   <g id="text_37">
    <!-- 5% Subsample (N=50,039) -->
    <g style="fill: #262626" transform="translate(780.688906 43.92) scale(0.14 -0.14)">
     <defs>
      <path id="DejaVuSans-33" d="M 2597 2516 
Q 3050 2419 3304 2112 
Q 3559 1806 3559 1356 
Q 3559 666 3084 287 
Q 2609 -91 1734 -91 
Q 1441 -91 1130 -33 
Q 819 25 488 141 
L 488 750 
Q 750 597 1062 519 
Q 1375 441 1716 441 
Q 2309 441 2620 675 
Q 2931 909 2931 1356 
Q 2931 1769 2642 2001 
Q 2353 2234 1838 2234 
L 1294 2234 
L 1294 2753 
L 1863 2753 
Q 2328 2753 2575 2939 
Q 2822 3125 2822 3475 
Q 2822 3834 2567 4026 
Q 2313 4219 1838 4219 
Q 1578 4219 1281 4162 
Q 984 4106 628 3988 
L 628 4550 
Q 988 4650 1302 4700 
Q 1616 4750 1894 4750 
Q 2613 4750 3031 4423 
Q 3450 4097 3450 3541 
Q 3450 3153 3228 2886 
Q 3006 2619 2597 2516 
z
" transform="scale(0.015625)"/>
     </defs>
     <use xlink:href="#DejaVuSans-35"/>
     <use xlink:href="#DejaVuSans-25" transform="translate(63.623047 0)"/>
     <use xlink:href="#DejaVuSans-20" transform="translate(158.642578 0)"/>
     <use xlink:href="#DejaVuSans-53" transform="translate(190.429688 0)"/>
     <use xlink:href="#DejaVuSans-75" transform="translate(253.90625 0)"/>
     <use xlink:href="#DejaVuSans-62" transform="translate(317.285156 0)"/>
     <use xlink:href="#DejaVuSans-73" transform="translate(380.761719 0)"/>
     <use xlink:href="#DejaVuSans-61" transform="translate(432.861328 0)"/>
     <use xlink:href="#DejaVuSans-6d" transform="translate(494.140625 0)"/>
     <use xlink:href="#DejaVuSans-70" transform="translate(591.552734 0)"/>
     <use xlink:href="#DejaVuSans-6c" transform="translate(655.029297 0)"/>
     <use xlink:href="#DejaVuSans-65" transform="translate(682.8125 0)"/>
     <use xlink:href="#DejaVuSans-20" transform="translate(744.335938 0)"/>
     <use xlink:href="#DejaVuSans-28" transform="translate(776.123047 0)"/>
     <use xlink:href="#DejaVuSans-4e" transform="translate(815.136719 0)"/>
     <use xlink:href="#DejaVuSans-3d" transform="translate(889.941406 0)"/>
     <use xlink:href="#DejaVuSans-35" transform="translate(973.730469 0)"/>
     <use xlink:href="#DejaVuSans-30" transform="translate(1037.353516 0)"/>
     <use xlink:href="#DejaVuSans-2c" transform="translate(1100.976562 0)"/>
     <use xlink:href="#DejaVuSans-30" transform="translate(1132.763672 0)"/>
     <use xlink:href="#DejaVuSans-33" transform="translate(1196.386719 0)"/>
     <use xlink:href="#DejaVuSans-39" transform="translate(1260.009766 0)"/>
     <use xlink:href="#DejaVuSans-29" transform="translate(1323.632812 0)"/>
    </g>
   </g>
  </g>
  <g id="text_38">
   <!-- Q5: Impact of Sparse Reporting on Confidence Intervals -->
   <g style="fill: #262626" transform="translate(375.76375 17.837812) scale(0.14 -0.14)">
    <defs>
     <path id="DejaVuSans-51" d="M 2522 4238 
Q 1834 4238 1429 3725 
Q 1025 3213 1025 2328 
Q 1025 1447 1429 934 
Q 1834 422 2522 422 
Q 3209 422 3611 934 
Q 4013 1447 4013 2328 
Q 4013 3213 3611 3725 
Q 3209 4238 2522 4238 
z
M 3406 84 
L 4238 -825 
L 3475 -825 
L 2784 -78 
Q 2681 -84 2626 -87 
Q 2572 -91 2522 -91 
Q 1538 -91 948 567 
Q 359 1225 359 2328 
Q 359 3434 948 4092 
Q 1538 4750 2522 4750 
Q 3503 4750 4090 4092 
Q 4678 3434 4678 2328 
Q 4678 1516 4351 937 
Q 4025 359 3406 84 
z
" transform="scale(0.015625)"/>
     <path id="DejaVuSans-3a" d="M 750 794 
L 1409 794 
L 1409 0 
L 750 0 
L 750 794 
z
M 750 3309 
L 1409 3309 
L 1409 2516 
L 750 2516 
L 750 3309 
z
" transform="scale(0.015625)"/>
     <path id="DejaVuSans-76" d="M 191 3500 
L 800 3500 
L 1894 563 
L 2988 3500 
L 3597 3500 
L 2284 0 
L 1503 0 
L 191 3500 
z
" transform="scale(0.015625)"/>
    </defs>
    <use xlink:href="#DejaVuSans-51"/>
    <use xlink:href="#DejaVuSans-35" transform="translate(78.710938 0)"/>
    <use xlink:href="#DejaVuSans-3a" transform="translate(142.333984 0)"/>
    <use xlink:href="#DejaVuSans-20" transform="translate(176.025391 0)"/>
    <use xlink:href="#DejaVuSans-49" transform="translate(207.8125 0)"/>
    <use xlink:href="#DejaVuSans-6d" transform="translate(237.304688 0)"/>
    <use xlink:href="#DejaVuSans-70" transform="translate(334.716797 0)"/>
    <use xlink:href="#DejaVuSans-61" transform="translate(398.193359 0)"/>
    <use xlink:href="#DejaVuSans-63" transform="translate(459.472656 0)"/>
    <use xlink:href="#DejaVuSans-74" transform="translate(514.453125 0)"/>
    <use xlink:href="#DejaVuSans-20" transform="translate(553.662109 0)"/>
    <use xlink:href="#DejaVuSans-6f" transform="translate(585.449219 0)"/>
    <use xlink:href="#DejaVuSans-66" transform="translate(646.630859 0)"/>
    <use xlink:href="#DejaVuSans-20" transform="translate(681.835938 0)"/>
    <use xlink:href="#DejaVuSans-53" transform="translate(713.623047 0)"/>
    <use xlink:href="#DejaVuSans-70" transform="translate(777.099609 0)"/>
    <use xlink:href="#DejaVuSans-61" transform="translate(840.576172 0)"/>
    <use xlink:href="#DejaVuSans-72" transform="translate(901.855469 0)"/>
    <use xlink:href="#DejaVuSans-73" transform="translate(942.96875 0)"/>
    <use xlink:href="#DejaVuSans-65" transform="translate(995.068359 0)"/>
    <use xlink:href="#DejaVuSans-20" transform="translate(1056.591797 0)"/>
    <use xlink:href="#DejaVuSans-52" transform="translate(1088.378906 0)"/>
    <use xlink:href="#DejaVuSans-65" transform="translate(1153.361328 0)"/>
    <use xlink:href="#DejaVuSans-70" transform="translate(1214.884766 0)"/>
    <use xlink:href="#DejaVuSans-6f" transform="translate(1278.361328 0)"/>
    <use xlink:href="#DejaVuSans-72" transform="translate(1339.542969 0)"/>
    <use xlink:href="#DejaVuSans-74" transform="translate(1380.65625 0)"/>
    <use xlink:href="#DejaVuSans-69" transform="translate(1419.865234 0)"/>
    <use xlink:href="#DejaVuSans-6e" transform="translate(1447.648438 0)"/>
    <use xlink:href="#DejaVuSans-67" transform="translate(1511.027344 0)"/>
    <use xlink:href="#DejaVuSans-20" transform="translate(1574.503906 0)"/>
    <use xlink:href="#DejaVuSans-6f" transform="translate(1606.291016 0)"/>
    <use xlink:href="#DejaVuSans-6e" transform="translate(1667.472656 0)"/>
    <use xlink:href="#DejaVuSans-20" transform="translate(1730.851562 0)"/>
    <use xlink:href="#DejaVuSans-43" transform="translate(1762.638672 0)"/>
    <use xlink:href="#DejaVuSans-6f" transform="translate(1832.462891 0)"/>
    <use xlink:href="#DejaVuSans-6e" transform="translate(1893.644531 0)"/>
    <use xlink:href="#DejaVuSans-66" transform="translate(1957.023438 0)"/>
    <use xlink:href="#DejaVuSans-69" transform="translate(1992.228516 0)"/>
    <use xlink:href="#DejaVuSans-64" transform="translate(2020.011719 0)"/>
    <use xlink:href="#DejaVuSans-65" transform="translate(2083.488281 0)"/>
    <use xlink:href="#DejaVuSans-6e" transform="translate(2145.011719 0)"/>
    <use xlink:href="#DejaVuSans-63" transform="translate(2208.390625 0)"/>
    <use xlink:href="#DejaVuSans-65" transform="translate(2263.371094 0)"/>
    <use xlink:href="#DejaVuSans-20" transform="translate(2324.894531 0)"/>
    <use xlink:href="#DejaVuSans-49" transform="translate(2356.681641 0)"/>
    <use xlink:href="#DejaVuSans-6e" transform="translate(2386.173828 0)"/>
    <use xlink:href="#DejaVuSans-74" transform="translate(2449.552734 0)"/>
    <use xlink:href="#DejaVuSans-65" transform="translate(2488.761719 0)"/>
    <use xlink:href="#DejaVuSans-72" transform="translate(2550.285156 0)"/>
    <use xlink:href="#DejaVuSans-76" transform="translate(2591.398438 0)"/>
    <use xlink:href="#DejaVuSans-61" transform="translate(2650.578125 0)"/>
    <use xlink:href="#DejaVuSans-6c" transform="translate(2711.857422 0)"/>
    <use xlink:href="#DejaVuSans-73" transform="translate(2739.640625 0)"/>
   </g>
  </g>
 </g>
 <defs>
  <clipPath id="p30d0c37cab">
   <rect x="86.498438" y="49.92" width="518.465" height="472.62"/>
  </clipPath>
  <clipPath id="p9232e0e437">
   <rect x="616.843438" y="49.92" width="518.465" height="472.62"/>
  </clipPath>
 </defs>
</svg>
